<svg width="24" height="24" viewBox="0 0 24 24" fill="none" xmlns="http://www.w3.org/2000/svg">
<g id="mdi:generator-mobile">
<path id="Vector" d="M4 2H2V19C2 19.5304 2.21071 20.0391 2.58579 20.4142C2.96086 20.7893 3.46957 21 4 21H12.1C12.03 20.68 12 20.34 12 20C12 19.66 12.03 19.32 12.1 19H4V2ZM13 17C13.91 15.79 15.36 15 17 15C18.64 15 20.09 15.79 21 17H22V6C22 4.89 21.11 4 20 4H8C7.46957 4 6.96086 4.21071 6.58579 4.58579C6.21071 4.96086 6 5.46957 6 6V17H13ZM20 6V8H14V6H20ZM14 10H20V12H14V10ZM7 11L10 5V9H12L9 15V11H7ZM14.17 19C14.057 19.3213 13.9995 19.6594 14 20C14 20.7956 14.3161 21.5587 14.8787 22.1213C15.4413 22.6839 16.2044 23 17 23C18.66 23 20 21.66 20 20C20 18.34 18.66 17 17 17C15.69 17 14.58 17.84 14.17 19Z" fill="#3D3D3D"/>
</g>
</svg>
