<svg width="24" height="24" viewBox="0 0 24 24" fill="none" xmlns="http://www.w3.org/2000/svg">
<g clip-path="url(#clip0_14705_8814)">
<path d="M23.124 0.876119C22.8135 0.562709 22.4368 0.322726 22.0215 0.173748C21.6063 0.0247701 21.1629 -0.0294296 20.724 0.0151188C18.452 0.236119 12.71 1.21512 8.461 5.46112C4.78207 9.14464 1.97381 13.6046 0.242 18.5141L0 19.1221L4.855 23.9771L5.464 23.7391C10.377 22.0128 14.8427 19.2113 18.535 15.5391C22.783 11.2911 23.76 5.54812 23.981 3.27612C24.0251 2.83756 23.9711 2.39467 23.8229 1.97957C23.6747 1.56446 23.4359 1.18754 23.124 0.876119ZM17.124 14.1251C13.7968 17.4626 9.77611 20.0272 5.347 21.6371L4.562 20.8521L16.707 8.70712L15.293 7.29312L3.148 19.4381L2.348 18.6381C3.97602 14.2185 6.54417 10.2051 9.875 6.87512C13.667 3.08412 18.861 2.20612 20.919 2.00512C21.0637 1.9918 21.2095 2.01043 21.3462 2.05967C21.4829 2.10892 21.6071 2.18759 21.71 2.29012C21.814 2.39219 21.894 2.51613 21.9441 2.65294C21.9943 2.78975 22.0134 2.93602 22 3.08112C21.794 5.13912 20.916 10.3341 17.125 14.1251H17.124Z" fill="#3D3D3D"/>
</g>
<defs>
<clipPath id="clip0_14705_8814">
<rect width="24" height="24" fill="white"/>
</clipPath>
</defs>
</svg>
