<svg width="24" height="24" viewBox="0 0 24 24" fill="none" xmlns="http://www.w3.org/2000/svg">
<g id="bed-alt 2">
<path id="Vector" d="M21 2.00049H3C1.346 2.00049 0 3.34649 0 5.00049V22.0005H2V19.0005H22V22.0005H24V5.00049C24 3.34649 22.654 2.00049 21 2.00049ZM3 4.00049H21C21.552 4.00049 22 4.44949 22 5.00049V13.0005H20V12.0005C20 10.3465 18.654 9.00049 17 9.00049H14C13.232 9.00049 12.531 9.29049 12 9.76649C11.469 9.29049 10.768 9.00049 10 9.00049H7C5.346 9.00049 4 10.3465 4 12.0005V13.0005H2V5.00049C2 4.44949 2.449 4.00049 3 4.00049ZM11 13.0005H6V12.0005C6 11.4495 6.449 11.0005 7 11.0005H10C10.551 11.0005 11 11.4495 11 12.0005V13.0005ZM13 12.0005C13 11.4495 13.448 11.0005 14 11.0005H17C17.552 11.0005 18 11.4495 18 12.0005V13.0005H13V12.0005ZM2 17.0005V15.0005H22V17.0005H2Z" fill="#3D3D3D"/>
</g>
</svg>
