<svg width="24" height="24" viewBox="0 0 24 24" fill="none" xmlns="http://www.w3.org/2000/svg">
<g id="bi:scooter">
<path id="Vector" fill-rule="evenodd" clip-rule="evenodd" d="M13.4992 3.75C13.4992 3.55109 13.5783 3.36032 13.7189 3.21967C13.8596 3.07902 14.0503 3 14.2492 3H18.7492C18.9481 3 19.1389 3.07902 19.2796 3.21967C19.4202 3.36032 19.4992 3.55109 19.4992 3.75C19.4992 3.94891 19.4202 4.13968 19.2796 4.28033C19.1389 4.42098 18.9481 4.5 18.7492 4.5H18.1642L20.2642 15C21.1936 15.0044 22.0882 15.3538 22.7746 15.9804C23.4609 16.607 23.8902 17.4661 23.9791 18.3912C24.068 19.3163 23.8102 20.2415 23.2558 20.9873C22.7013 21.7331 21.8896 22.2465 20.9781 22.4279C20.0666 22.6092 19.1203 22.4457 18.3225 21.9689C17.5248 21.4921 16.9325 20.7361 16.6605 19.8475C16.3885 18.9588 16.4562 18.0008 16.8504 17.1592C17.2447 16.3176 17.9374 15.6524 18.7942 15.2925L18.5107 13.8855L14.8657 19.176C14.7968 19.2758 14.7048 19.3575 14.5974 19.4139C14.49 19.4703 14.3705 19.4999 14.2492 19.5H7.42423C7.23837 20.4105 6.72104 21.2196 5.97254 21.7704C5.22404 22.3212 4.29769 22.5744 3.37309 22.481C2.44849 22.3876 1.5915 21.9542 0.968282 21.2649C0.34506 20.5755 0 19.6793 0 18.75C0 17.8207 0.34506 16.9245 0.968282 16.2351C1.5915 15.5458 2.44849 15.1124 3.37309 15.019C4.29769 14.9256 5.22404 15.1788 5.97254 15.7296C6.72104 16.2804 7.23837 17.0895 7.42423 18H13.8547L18.1012 11.835L16.6342 4.5H14.2492C14.0503 4.5 13.8596 4.42098 13.7189 4.28033C13.5783 4.13968 13.4992 3.94891 13.4992 3.75ZM5.87173 18C5.69481 17.4996 5.34668 17.0778 4.88887 16.8093C4.43107 16.5407 3.89306 16.4427 3.36994 16.5324C2.84681 16.6222 2.37226 16.894 2.03016 17.2998C1.68805 17.7056 1.50041 18.2192 1.50041 18.75C1.50041 19.2808 1.68805 19.7944 2.03016 20.2002C2.37226 20.606 2.84681 20.8778 3.36994 20.9676C3.89306 21.0574 4.43107 20.9593 4.88887 20.6907C5.34668 20.4222 5.69481 20.0004 5.87173 19.5H3.74923C3.55032 19.5 3.35956 19.421 3.2189 19.2803C3.07825 19.1397 2.99923 18.9489 2.99923 18.75C2.99923 18.5511 3.07825 18.3603 3.2189 18.2197C3.35956 18.079 3.55032 18 3.74923 18H5.87173ZM19.0972 16.8165C18.6726 17.0678 18.3424 17.4519 18.1576 17.9095C17.9728 18.367 17.9436 18.8727 18.0746 19.3485C18.2056 19.8242 18.4895 20.2437 18.8825 20.5421C19.2755 20.8406 19.7558 21.0015 20.2492 21C20.8186 21.0005 21.367 20.7852 21.7839 20.3974C22.2008 20.0095 22.4551 19.4781 22.4956 18.9101C22.5362 18.3422 22.3599 17.78 22.0023 17.3369C21.6447 16.8939 21.1324 16.6028 20.5687 16.5225L20.9842 18.603C21.0158 18.7949 20.9716 18.9915 20.861 19.1514C20.7503 19.3113 20.5819 19.422 20.3913 19.4601C20.2006 19.4983 20.0026 19.4609 19.8389 19.3558C19.6753 19.2507 19.5589 19.0862 19.5142 18.897L19.0972 16.8165Z" fill="#3D3D3D"/>
</g>
</svg>
