<svg width="24" height="24" viewBox="0 0 24 24" fill="none" xmlns="http://www.w3.org/2000/svg">
<g clip-path="url(#clip0_14705_8731)">
<path d="M19.4475 8.65799C19.1998 8.15861 18.8172 7.7386 18.343 7.44556C17.8688 7.15251 17.322 6.99816 16.7645 6.99999H7.23655C6.67911 6.99816 6.1323 7.15251 5.6581 7.44556C5.18389 7.7386 4.80125 8.15861 4.55355 8.65799L2.26755 13.23C1.43589 14.898 1.00221 16.7361 1.00055 18.6V22H3.00055V24H8.00055V22H16.0005V24H21.0005V22H23.0005V18.6C22.9984 16.7371 22.5648 14.9001 21.7335 13.233L19.4475 8.65799ZM6.34755 9.55799C6.42891 9.3913 6.55529 9.2507 6.71239 9.15208C6.8695 9.05347 7.05106 9.00079 7.23655 8.99999H16.7645C16.9504 8.9994 17.1326 9.05089 17.2906 9.14864C17.4487 9.24639 17.5761 9.38647 17.6585 9.55299L19.8825 14H4.11855L6.34755 9.55799ZM21.0005 20H3.00055V18.6C3.0009 17.7219 3.1169 16.8478 3.34555 16H5.00055V17C5.00055 17.2652 5.1059 17.5196 5.29344 17.7071C5.48098 17.8946 5.73533 18 6.00055 18C6.26576 18 6.52012 17.8946 6.70765 17.7071C6.89519 17.5196 7.00055 17.2652 7.00055 17V16H17.0005V17C17.0005 17.2652 17.1059 17.5196 17.2934 17.7071C17.481 17.8946 17.7353 18 18.0005 18C18.2658 18 18.5201 17.8946 18.7077 17.7071C18.8952 17.5196 19.0005 17.2652 19.0005 17V16H20.6555C20.8842 16.8478 21.0002 17.7219 21.0005 18.6V20ZM23.9405 5.52799L23.0575 7.32799L12.4415 2.09999C12.3042 2.0324 12.1531 1.99725 12 1.99725C11.847 1.99725 11.6959 2.0324 11.5585 2.09999L0.943547 7.32299L0.0605469 5.52799L10.6765 0.307991C11.0889 0.106621 11.5417 0.00195312 12.0005 0.00195312C12.4594 0.00195312 12.9122 0.106621 13.3245 0.307991L23.9405 5.52799Z" fill="#3D3D3D"/>
</g>
<defs>
<clipPath id="clip0_14705_8731">
<rect width="24" height="24" fill="white"/>
</clipPath>
</defs>
</svg>
