<svg width="24" height="24" viewBox="0 0 24 24" fill="none" xmlns="http://www.w3.org/2000/svg">
<g id="carbon:soil-moisture-field">
<path id="Vector" d="M18.375 22.5C17.6509 22.5416 16.9296 22.3805 16.292 22.0349C15.6544 21.6893 15.1257 21.1728 14.7654 20.5434C14.405 19.914 14.2273 19.1966 14.252 18.4718C14.2768 17.7469 14.5031 17.0434 14.9055 16.44L17.6175 12.4035C17.701 12.2793 17.8138 12.1775 17.9459 12.1071C18.078 12.0368 18.2253 12 18.375 12C18.5247 12 18.672 12.0368 18.8041 12.1071C18.9362 12.1775 19.049 12.2793 19.1325 12.4035L21.795 16.3613C22.2354 17.0129 22.4801 17.777 22.5 18.5633C22.4733 19.6317 22.0241 20.646 21.2509 21.3839C20.4777 22.1218 19.4435 22.5232 18.375 22.5ZM18.375 13.965L16.173 17.2403C15.9138 17.6169 15.7674 18.0596 15.7507 18.5165C15.7341 18.9733 15.8479 19.4255 16.079 19.82C16.3101 20.2145 16.6487 20.535 17.0553 20.744C17.462 20.953 17.9197 21.0418 18.375 21C19.0458 21.0233 19.6985 20.7801 20.1904 20.3234C20.6824 19.8668 20.9734 19.2339 21 18.5633C20.9826 18.0604 20.8184 17.5736 20.5275 17.163L18.375 13.965ZM8.25 12V8.25H9C9.79535 8.24901 10.5578 7.93262 11.1202 7.37022C11.6826 6.80783 11.999 6.04535 12 5.25V3H9.75C8.98199 3.00126 8.24404 3.29864 7.68975 3.83025C7.30137 3.12508 6.73102 2.53694 6.0381 2.1271C5.34518 1.71726 4.55505 1.5007 3.75 1.5H1.5V3.75C1.50139 4.94305 1.97594 6.08683 2.81955 6.93045C3.66317 7.77406 4.80695 8.24861 6 8.25H6.75V12H1.5V13.5H12V12H8.25ZM9.75 4.5H10.5V5.25C10.4996 5.6477 10.3414 6.029 10.0602 6.31022C9.779 6.59144 9.3977 6.7496 9 6.75H8.25V6C8.2504 5.6023 8.40856 5.221 8.68978 4.93978C8.971 4.65856 9.3523 4.5004 9.75 4.5ZM6 6.75C5.20466 6.74901 4.44217 6.43262 3.87978 5.87022C3.31738 5.30783 3.00099 4.54535 3 3.75V3H3.75C4.54534 3.00099 5.30783 3.31738 5.87022 3.87978C6.43262 4.44217 6.74901 5.20466 6.75 6V6.75H6ZM1.5 15.75H12V17.25H1.5V15.75ZM1.5 19.5H12V21H1.5V19.5Z" fill="#3D3D3D"/>
</g>
</svg>
