<svg width="24" height="24" viewBox="0 0 24 24" fill="none" xmlns="http://www.w3.org/2000/svg">
<g id="carbon:cafe">
<path id="Vector" d="M1.5 21H22.5V22.5H1.5V21ZM18.375 8.25H6C5.6023 8.2504 5.221 8.40856 4.93978 8.68978C4.65856 8.971 4.5004 9.3523 4.5 9.75V15.75C4.50119 16.7442 4.89666 17.6973 5.59966 18.4003C6.30267 19.1033 7.2558 19.4988 8.25 19.5H14.25C15.2442 19.4988 16.1973 19.1033 16.9003 18.4003C17.6033 17.6973 17.9988 16.7442 18 15.75V15H18.375C19.2701 15 20.1285 14.6444 20.7615 14.0115C21.3944 13.3785 21.75 12.5201 21.75 11.625C21.75 10.7299 21.3944 9.87145 20.7615 9.23851C20.1285 8.60558 19.2701 8.25 18.375 8.25ZM16.5 15.75C16.4994 16.3466 16.2622 16.9185 15.8403 17.3403C15.4185 17.7622 14.8466 17.9994 14.25 18H8.25C7.65345 17.9994 7.0815 17.7622 6.65967 17.3403C6.23784 16.9185 6.0006 16.3466 6 15.75V9.75H16.5V15.75ZM18.375 13.5H18V9.75H18.375C18.8723 9.75 19.3492 9.94754 19.7008 10.2992C20.0525 10.6508 20.25 11.1277 20.25 11.625C20.25 12.1223 20.0525 12.5992 19.7008 12.9508C19.3492 13.3025 18.8723 13.5 18.375 13.5ZM14.25 6.75H12.75V6.6405C12.7511 6.36174 12.674 6.08825 12.5275 5.85108C12.3811 5.61392 12.171 5.42256 11.9213 5.29875L9.9075 4.293C9.40815 4.04516 8.98821 3.66241 8.69526 3.18812C8.40231 2.71383 8.24806 2.16697 8.25 1.6095V0.75H9.75V1.6095C9.74907 1.88822 9.82621 2.16164 9.97268 2.39877C10.1192 2.63591 10.3291 2.8273 10.5787 2.95125L12.5917 3.957C13.0912 4.2048 13.5112 4.58753 13.8043 5.06181C14.0974 5.53609 14.2518 6.08297 14.25 6.6405V6.75Z" fill="#3D3D3D"/>
</g>
</svg>
