<svg width="24" height="24" viewBox="0 0 24 24" fill="none" xmlns="http://www.w3.org/2000/svg">
<g id="emojione-monotone:basketball" clip-path="url(#clip0_17601_47865)">
<path id="Vector" d="M22.2638 11.0678C22.3147 11.0055 22.3654 10.9433 22.4123 10.8806C23.2661 9.73425 23.9194 7.5 19.8679 7.5C18.7335 7.5 17.2684 7.752 15.7459 8.17163C15.7211 5.75513 14.5511 3.61838 12.7552 2.26463C12.7028 2.22 12.6521 2.17425 12.594 2.136C12.6019 2.14388 12.6086 2.15288 12.6169 2.16075C11.3456 1.24307 9.81748 0.749434 8.24963 0.75C7.5195 0.75 6.816 0.859501 6.1485 1.05413L6.13912 1.0515L6.14625 1.05488C4.92134 1.4123 3.80803 2.07667 2.91188 2.985C2.91188 2.98425 2.91188 2.9835 2.91112 2.98275L2.91188 2.985C1.57317 4.34065 0.803148 6.15702 0.759375 8.06175L0.752625 8.04863L0.758625 8.0715C0.757875 8.13075 0.75 8.18925 0.75 8.25C0.75 10.8135 2.0385 13.0744 4.0005 14.4274L3.99525 14.427C3.99713 14.4274 3.99938 14.4274 4.00125 14.4281C4.82199 14.9946 5.74787 15.3909 6.72428 15.5937C7.70068 15.7966 8.70781 15.8017 9.68625 15.609L9.68587 15.6094C10.6733 16.8274 11.2417 17.9445 11.5444 18.912C10.874 19.6748 10.1362 20.3756 9.34013 21.006C9.15712 21.1526 9.135 21.4095 9.2925 21.5801C9.45 21.7515 9.726 21.7721 9.90975 21.6248C10.572 21.0989 11.197 20.5278 11.7802 19.9155C12.039 21.5633 11.5553 22.5938 11.5181 22.6695C11.4338 22.8368 11.4806 23.0362 11.6332 23.1547C11.7092 23.213 11.8013 23.2463 11.8969 23.25C11.9925 23.2538 12.087 23.2278 12.1672 23.1757C13.413 22.3586 14.4604 21.5576 15.3458 20.7825C15.5858 21.9795 15.4106 22.7284 15.4061 22.7453C15.363 22.908 15.4309 23.0779 15.5775 23.175C15.6508 23.2223 15.7359 23.2482 15.8232 23.2498C15.9104 23.2514 15.9964 23.2286 16.0714 23.184C17.1431 22.5345 18.096 21.8764 18.93 21.2111C19.0009 22.1077 18.8423 22.6665 18.8231 22.7295C18.7556 22.9451 18.8891 23.1705 19.1213 23.2339C19.1614 23.2448 19.203 23.25 19.2439 23.25C19.4329 23.25 19.608 23.1349 19.6635 22.9571C19.6894 22.875 19.9601 21.9551 19.7228 20.5402C20.0354 20.2639 20.3375 19.9759 20.6284 19.6766C20.6351 19.7666 20.6677 19.8563 20.7394 19.9271C20.822 20.0062 20.9311 20.0519 21.0454 20.0553C21.1598 20.0587 21.2713 20.0196 21.3585 19.9455C21.3784 19.9279 22.4805 18.9266 22.4876 17.1506C22.8382 16.4663 23.0689 15.7774 23.178 15.0844C23.5005 13.0447 22.6541 11.6051 22.2638 11.0678ZM19.8679 8.65088C21.6555 8.65088 21.3874 9.23738 20.8631 9.85388C19.7302 11.1866 16.6294 12.6525 13.8232 13.2566C14.7877 12.1853 15.4212 10.8575 15.6473 9.43388C17.1866 8.95913 18.7181 8.65088 19.8679 8.65088ZM19.0972 13.4171C18.9971 14.1386 18.7035 15.2168 17.9096 16.5281C17.4469 15.9075 16.8757 15.264 16.1745 14.6077C17.1847 14.2864 18.1845 13.8829 19.0972 13.4171ZM13.8821 15.1916C13.8098 15.3728 13.7239 15.5704 13.6249 15.78C13.4825 15.6195 13.3367 15.4621 13.1876 15.3079C13.4199 15.2741 13.6515 15.2353 13.8821 15.1916ZM12.0349 13.8356C11.6257 13.6718 11.2364 13.4619 10.8746 13.2101L10.8724 13.2079C10.9399 13.1666 11.0096 13.1295 11.0756 13.0856C11.3517 12.8964 11.6123 12.6855 11.8549 12.4549C11.9299 12.5063 12.0082 12.5531 12.0919 12.5933C12.4819 12.7718 12.8947 12.7924 13.2877 12.7264C12.9174 13.1463 12.4966 13.5189 12.0349 13.8356ZM14.9996 8.25C14.9996 9.90863 14.3959 11.4274 13.3991 12.6038C12.9742 12.6338 12.5554 12.5828 12.216 12.3623C12.1637 12.3292 12.1132 12.2932 12.0649 12.2546C12.3344 11.9796 12.579 11.6812 12.7958 11.3629C13.7055 9.99713 14.0711 8.34375 14.016 6.74925C13.9926 5.94947 13.8585 5.1568 13.6174 4.39388C13.5675 4.24425 13.5098 4.09763 13.4505 3.95175C14.4529 5.15969 15.0009 6.68033 14.9996 8.25ZM8.24963 1.5C10.1512 1.5 11.8684 2.2935 13.0965 3.56288C13.2086 3.85725 13.2937 4.16288 13.3657 4.46438C13.5401 5.21475 13.608 5.98725 13.5975 6.75263C13.5667 8.27888 13.1933 9.81525 12.3484 11.0633C12.1582 11.351 11.9425 11.621 11.7037 11.8699C11.5024 11.5901 11.3558 11.259 11.2376 10.9253C11.0426 10.3489 10.9054 9.7425 10.7876 9.12938L10.4239 7.27725C10.1546 6.04425 9.83175 4.78313 9.17625 3.6555C8.85112 3.0945 8.43375 2.57813 7.9245 2.175C7.63492 1.95408 7.31993 1.76863 6.98625 1.62263C7.40261 1.54232 7.82559 1.50127 8.24963 1.5ZM6.80363 1.66013C7.68937 2.17088 8.3685 2.95913 8.80725 3.85613C9.35025 4.95338 9.64162 6.16763 9.89775 7.389C10.1711 8.60813 10.3549 9.86813 10.8472 11.0764C10.9969 11.433 11.1926 11.8016 11.463 12.1054C11.1483 12.4003 10.8051 12.6633 10.4385 12.8906C10.0949 12.6359 9.76259 12.3662 9.4425 12.0825C8.53988 11.2654 7.70625 10.3691 6.92925 9.4275C6.14611 8.4888 5.41766 7.5058 4.7475 6.48338C4.41525 5.97038 4.095 5.44913 3.80963 4.908C3.60038 4.52363 3.4125 4.12763 3.2655 3.714C4.20372 2.67949 5.44001 1.96182 6.80363 1.66013ZM1.5 8.25C1.5 6.5415 2.14313 4.98413 3.19313 3.79388C3.28088 4.21088 3.42263 4.61888 3.57075 5.01825C3.80605 5.59639 4.07927 6.15836 4.38863 6.7005C5.00063 7.788 5.72325 8.808 6.51487 9.771C7.31512 10.7258 8.18625 11.6288 9.17175 12.4039C9.47475 12.6439 9.79125 12.8678 10.119 13.0751C9.68368 13.315 9.22522 13.5102 8.75062 13.6579C8.74275 13.6605 8.7345 13.662 8.727 13.6642C8.42587 13.4666 8.10375 13.3069 7.78088 13.1677C6.85463 12.7714 5.91112 12.4898 5.03662 12.0784C4.15687 11.6828 3.34688 11.1596 2.67338 10.4756C2.23538 10.032 1.86637 9.51975 1.54012 8.97263C1.51388 8.73264 1.50049 8.49142 1.5 8.25ZM1.65862 9.69188C1.85737 10.0665 2.08613 10.4276 2.36325 10.7565C3.01725 11.5493 3.89175 12.1429 4.81125 12.567C5.73637 12.9904 6.705 13.254 7.629 13.5592C7.84125 13.6328 8.05162 13.7093 8.25675 13.7959C7.21088 14.0618 6.11662 14.1634 5.01638 14.1727C4.16954 13.7085 3.4318 13.0685 2.85268 12.2956C2.27355 11.5228 1.86642 10.635 1.65862 9.69188ZM8.24963 15C7.191 15 6.19238 14.748 5.2995 14.3115C6.465 14.4146 7.65338 14.3685 8.81063 14.0737C8.853 14.0992 8.89762 14.1221 8.93962 14.1495C9.22298 14.3297 9.46327 14.57 9.6435 14.8534C9.1935 14.9486 8.72738 15 8.24963 15ZM9.1425 13.9789C9.6535 13.8294 10.1463 13.6235 10.6117 13.365C10.6553 13.3886 10.6976 13.4141 10.7408 13.4366C11.1229 13.6256 11.523 13.7933 11.9355 13.8975C11.264 14.3373 10.5191 14.653 9.73612 14.8298C9.60657 14.5041 9.40339 14.2129 9.1425 13.9789ZM10.6275 15.4181C10.8836 15.435 11.1589 15.4436 11.4548 15.4436C11.6621 15.4436 11.877 15.4361 12.0975 15.4222C12.486 15.794 12.854 16.1867 13.1996 16.5986C12.8972 17.13 12.5593 17.6404 12.1882 18.1264C11.865 17.295 11.37 16.3856 10.6275 15.4181ZM12.6559 21.8317C12.7635 21.1594 12.7871 20.2275 12.5036 19.1074C12.9702 18.55 13.3947 17.9587 13.7738 17.3385C14.4345 18.261 14.8477 19.1175 15.0994 19.8638C14.4075 20.5005 13.602 21.1582 12.6559 21.8317ZM15.7984 19.1887C15.4781 18.3784 14.9857 17.4743 14.238 16.5131C14.4967 16.0157 14.7175 15.4995 14.8988 14.9689C15.0079 14.9419 15.1174 14.9141 15.2269 14.8849C16.1651 15.7178 16.8757 16.527 17.4075 17.2901C16.9823 17.8875 16.4535 18.5235 15.7984 19.1887ZM16.3583 22.0226C16.3658 21.5363 16.3136 20.8762 16.1002 20.0917C16.8274 19.3931 17.4233 18.7204 17.9089 18.0825C18.3638 18.8816 18.63 19.6147 18.7781 20.2511C18.0735 20.8447 17.2676 21.4358 16.3583 22.0226ZM19.5034 19.6012C19.2964 18.9097 18.9641 18.1402 18.4504 17.3175C19.5206 15.6938 19.8825 14.3475 19.9882 13.4561C21.1537 14.8511 21.5685 16.0151 21.6259 16.9313C21.1474 17.8249 20.4386 18.7162 19.5034 19.6012ZM22.308 14.9869C22.2803 15.1601 22.2405 15.3334 22.1951 15.5062C21.8993 14.6595 21.3476 13.7059 20.4172 12.6559C20.8565 12.3714 21.272 12.0519 21.6596 11.7004C22.0076 12.2411 22.5653 13.3965 22.308 14.9869Z" fill="#3D3D3D"/>
<path id="Vector_2" d="M14.2698 12.7106L14.2676 12.7136C14.2724 12.7116 14.2773 12.7098 14.2822 12.708L14.2698 12.7106Z" fill="#3D3D3D"/>
</g>
<defs>
<clipPath id="clip0_17601_47865">
<rect width="24" height="24" fill="white"/>
</clipPath>
</defs>
</svg>
