<svg width="24" height="24" viewBox="0 0 24 24" fill="none" xmlns="http://www.w3.org/2000/svg">
<g id="fluent:sport-basketball-24-regular">
<path id="Vector" d="M12.9408 21.9557C15.2584 21.7399 17.4273 20.7192 19.0707 19.0707C22.9757 15.1657 22.9757 8.83375 19.0707 4.92875C15.1657 1.02375 8.83375 1.02375 4.92875 4.92875C1.02375 8.83375 1.02375 15.1657 4.92875 19.0707C5.92981 20.074 7.13316 20.8524 8.45863 21.3542C9.7841 21.856 11.2013 22.0696 12.6158 21.9808C12.7246 21.9965 12.8356 21.988 12.9408 21.9557ZM3.57675 10.8538C3.79059 9.26561 4.45124 7.77092 5.48175 6.54375L10.9397 11.9998L9.85175 13.0878C8.79975 12.2378 7.62775 11.7797 6.51075 11.4797C5.86075 11.3057 5.21475 11.1798 4.62375 11.0668L4.60775 11.0627C4.24075 10.9928 3.89775 10.9257 3.57775 10.8538H3.57675ZM3.50775 12.3737C3.77375 12.4297 4.04275 12.4818 4.30775 12.5338L4.32175 12.5358C4.92475 12.6528 5.52375 12.7688 6.12075 12.9288C7.07375 13.1847 7.98175 13.5448 8.78275 14.1567L5.48275 17.4568C4.28194 16.0265 3.58759 14.2395 3.50775 12.3737ZM9.84675 15.2137C10.5218 16.0758 10.8868 17.0197 11.1438 17.9867C11.2688 18.4567 11.3647 18.9147 11.4618 19.3787L11.5457 19.7738C11.5957 20.0138 11.6508 20.2548 11.7108 20.4948C9.81532 20.433 7.99548 19.7368 6.54275 18.5177L9.84675 15.2137ZM13.2397 20.4097C13.1538 20.0955 13.0778 19.7787 13.0118 19.4597L12.9348 19.0928C12.8368 18.6238 12.7297 18.1127 12.5938 17.6007C12.2928 16.4727 11.8317 15.2638 10.9137 14.1468L11.9998 13.0608L17.4568 18.5177C16.2541 19.5278 14.7939 20.183 13.2397 20.4097ZM13.0598 11.9998L14.2718 10.7887C15.3858 11.7308 16.5517 12.2487 17.6367 12.6147C18.0837 12.7668 18.5338 12.8967 18.9478 13.0177C19.1068 13.0637 19.2608 13.1078 19.4078 13.1518C19.7578 13.2578 20.0788 13.3597 20.3717 13.4727C20.1158 14.941 19.4762 16.3154 18.5177 17.4568L13.0598 11.9998ZM19.8368 11.7148L19.3347 11.5677C18.9264 11.4521 18.5206 11.3274 18.1178 11.1938C17.1737 10.8738 16.2297 10.4538 15.3368 9.72375L18.5168 6.54275C19.7834 8.05162 20.4846 9.95476 20.4998 11.9248C20.2798 11.8498 20.0567 11.7808 19.8368 11.7148ZM17.4568 5.48175L14.2758 8.66275C13.5457 7.76975 13.1248 6.82575 12.8057 5.88175C12.6717 5.4787 12.547 5.07259 12.4318 4.66375C12.3818 4.49775 12.3348 4.33075 12.2838 4.16275C12.2178 3.94275 12.1497 3.71975 12.0747 3.49975C14.0446 3.51461 15.9477 4.21546 17.4568 5.48175ZM11.3837 6.36175C11.7507 7.44675 12.2678 8.61375 13.2108 9.72775L11.9998 10.9397L6.54275 5.48175C7.68409 4.52334 9.05853 3.88373 10.5268 3.62775C10.6398 3.92075 10.7418 4.24075 10.8468 4.59175L10.9818 5.05175C11.1018 5.46575 11.2317 5.91475 11.3837 6.36175Z" fill="#3D3D3D"/>
</g>
</svg>
