<svg width="24" height="24" viewBox="0 0 24 24" fill="none" xmlns="http://www.w3.org/2000/svg">
<g id="fluent-emoji-high-contrast:artist">
<g id="Group">
<path id="Vector" d="M6.92641 17.6657C6.92641 17.9124 6.82842 18.1489 6.65402 18.3233C6.47961 18.4977 6.24306 18.5957 5.99641 18.5957C5.74975 18.5957 5.51321 18.4977 5.3388 18.3233C5.16439 18.1489 5.06641 17.9124 5.06641 17.6657C5.06641 17.4191 5.16439 17.1825 5.3388 17.0081C5.51321 16.8337 5.74975 16.7357 5.99641 16.7357C6.24306 16.7357 6.47961 16.8337 6.65402 17.0081C6.82842 17.1825 6.92641 17.4191 6.92641 17.6657ZM8.14141 20.8457C8.38806 20.8457 8.62461 20.7477 8.79902 20.5733C8.97342 20.3989 9.07141 20.1624 9.07141 19.9157C9.07141 19.6691 8.97342 19.4325 8.79902 19.2581C8.62461 19.0837 8.38806 18.9857 8.14141 18.9857C7.89475 18.9857 7.65821 19.0837 7.4838 19.2581C7.30939 19.4325 7.21141 19.6691 7.21141 19.9157C7.21141 20.1624 7.30939 20.3989 7.4838 20.5733C7.65821 20.7477 7.89475 20.8457 8.14141 20.8457ZM6.17641 20.5832C6.17641 20.8299 6.07842 21.0664 5.90402 21.2408C5.72961 21.4152 5.49306 21.5132 5.24641 21.5132C4.99975 21.5132 4.76321 21.4152 4.5888 21.2408C4.41439 21.0664 4.31641 20.8299 4.31641 20.5832C4.31641 20.3366 4.41439 20.1 4.5888 19.9256C4.76321 19.7512 4.99975 19.6532 5.24641 19.6532C5.49306 19.6532 5.72961 19.7512 5.90402 19.9256C6.07842 20.1 6.17641 20.3366 6.17641 20.5832ZM10.5414 6.89947C10.0389 6.89947 9.61891 7.24447 9.50641 7.70947C9.47641 7.83697 9.57391 7.97197 9.70891 7.97197H10.0389C10.0117 7.8706 10.0081 7.76432 10.0284 7.66134C10.0488 7.55837 10.0926 7.46145 10.1564 7.37809C10.2202 7.29473 10.3023 7.22714 10.3963 7.18057C10.4904 7.13399 10.5939 7.10966 10.6989 7.10947C10.7888 7.10846 10.878 7.12543 10.9613 7.15937C11.0445 7.19332 11.1202 7.24355 11.1837 7.30713C11.2473 7.37071 11.2976 7.44634 11.3315 7.5296C11.3654 7.61286 11.3824 7.70206 11.3814 7.79197C11.3814 7.85197 11.3739 7.91197 11.3589 7.97197H11.4189C11.5314 7.97197 11.6139 7.87447 11.5914 7.76197C11.5456 7.51776 11.4153 7.29747 11.2233 7.13976C11.0313 6.98204 10.7899 6.89697 10.5414 6.89947ZM14.2089 6.89947C14.7114 6.89947 15.1314 7.24447 15.2439 7.70947C15.2739 7.84447 15.1764 7.97197 15.0414 7.97197H14.7114C14.7387 7.8706 14.7422 7.76432 14.7219 7.66134C14.7015 7.55837 14.6577 7.46145 14.5939 7.37809C14.5301 7.29473 14.448 7.22714 14.354 7.18057C14.2599 7.13399 14.1564 7.10966 14.0514 7.10947C13.9464 7.10966 13.8429 7.13399 13.7488 7.18057C13.6548 7.22714 13.5727 7.29473 13.5089 7.37809C13.4451 7.46145 13.4013 7.55837 13.3809 7.66134C13.3606 7.76432 13.3642 7.8706 13.3914 7.97197H13.3314C13.3052 7.9726 13.2792 7.96725 13.2554 7.95634C13.2316 7.94544 13.2106 7.92925 13.194 7.90901C13.1773 7.88877 13.1656 7.86501 13.1595 7.83953C13.1534 7.81406 13.1532 7.78753 13.1589 7.76197C13.2564 7.26697 13.6914 6.89947 14.2089 6.89947Z" fill="#3D3D3D"/>
<path id="Vector_2" d="M10.7077 7.39495C10.775 7.39425 10.8412 7.41109 10.9 7.44381C10.9587 7.47653 11.008 7.524 11.0428 7.58154C11.0776 7.63908 11.0968 7.7047 11.0986 7.77193C11.1003 7.83917 11.0845 7.90569 11.0527 7.96495H10.3627C10.3319 7.90628 10.3165 7.84075 10.318 7.77451C10.3194 7.70827 10.3376 7.64348 10.371 7.5862C10.3811 7.59902 10.3937 7.60964 10.4081 7.61741C10.4225 7.62517 10.4383 7.62992 10.4545 7.63137C10.4708 7.63281 10.4872 7.63091 10.5027 7.6258C10.5182 7.62068 10.5325 7.61245 10.5448 7.60161C10.557 7.59077 10.5669 7.57754 10.5738 7.56275C10.5807 7.54796 10.5846 7.53191 10.5851 7.51558C10.5856 7.49925 10.5828 7.48299 10.5768 7.46779C10.5708 7.45259 10.5617 7.43878 10.5502 7.4272C10.5999 7.40573 10.6535 7.39475 10.7077 7.39495ZM14.0527 7.39495C14.0058 7.395 13.9594 7.40338 13.9155 7.4197C13.93 7.4309 13.9418 7.44529 13.9499 7.46177C13.958 7.47825 13.9622 7.49636 13.9623 7.51473C13.9623 7.53309 13.9581 7.55122 13.95 7.5677C13.9419 7.58419 13.9301 7.59859 13.9156 7.60981C13.901 7.62103 13.8841 7.62876 13.8661 7.63241C13.8481 7.63605 13.8295 7.63552 13.8117 7.63085C13.794 7.62618 13.7775 7.61749 13.7636 7.60546C13.7498 7.59343 13.7388 7.57837 13.7317 7.56145C13.6912 7.6201 13.6676 7.68871 13.6633 7.75985C13.6591 7.83098 13.6745 7.90192 13.7077 7.96495H14.3977C14.4295 7.90569 14.4453 7.83917 14.4436 7.77193C14.4418 7.7047 14.4226 7.63908 14.3878 7.58154C14.353 7.524 14.3037 7.47653 14.245 7.44381C14.1862 7.41109 14.12 7.39425 14.0527 7.39495ZM12.1402 7.73245L11.7427 9.01495C11.6602 9.27745 11.8552 9.54745 12.1327 9.54745H12.7177C12.9952 9.54745 13.1902 9.27745 13.1077 9.01495L12.7102 7.73245C12.6277 7.44745 12.2302 7.44745 12.1402 7.73245ZM11.2702 9.98995C11.5927 10.1625 11.9752 10.26 12.3802 10.26C12.7852 10.26 13.1677 10.1625 13.4902 9.98995C13.5952 9.93745 13.7152 10.0575 13.6477 10.1625C13.3777 10.575 12.9127 10.8525 12.3802 10.8525C11.8477 10.8525 11.3827 10.575 11.1127 10.1625C11.0452 10.0575 11.1577 9.92995 11.2702 9.98995ZM9.6127 6.01045C9.57001 6.04836 9.54333 6.10108 9.53807 6.15793C9.5328 6.21478 9.54935 6.2715 9.58434 6.31661C9.61934 6.36172 9.67018 6.39183 9.72655 6.40085C9.78293 6.40988 9.84062 6.39713 9.88795 6.3652L9.88945 6.3637L9.89395 6.3607L9.90145 6.3547C9.91345 6.3472 9.9322 6.33445 9.9577 6.31945C10.2724 6.1365 10.638 6.06069 10.9994 6.10345C11.0569 6.10704 11.1135 6.08849 11.1577 6.05161C11.2019 6.01473 11.2302 5.96233 11.2369 5.90518C11.2437 5.84803 11.2282 5.79047 11.1938 5.74435C11.1594 5.69822 11.1086 5.66704 11.052 5.6572C10.5918 5.60299 10.1265 5.70042 9.7267 5.9347C9.69939 5.95107 9.67263 5.96833 9.64645 5.98645L9.6127 6.01045ZM15.1852 6.32545C15.2217 6.27845 15.238 6.21893 15.2307 6.1599C15.2234 6.10087 15.193 6.04714 15.1462 6.01045L15.1447 6.00895L15.1424 6.00745L15.1349 6.0022C15.1022 5.97746 15.0679 5.95491 15.0322 5.9347C14.6324 5.70042 14.1671 5.60299 13.707 5.6572C13.6515 5.66826 13.6022 5.69982 13.5689 5.7456C13.5356 5.79137 13.5208 5.848 13.5275 5.9042C13.5341 5.96039 13.5616 6.01203 13.6046 6.04882C13.6476 6.08561 13.7029 6.10485 13.7594 6.1027C14.1213 6.06 14.4871 6.13607 14.8019 6.31945C14.825 6.33331 14.8475 6.34807 14.8694 6.3637L14.871 6.3652C14.918 6.40157 14.9776 6.41781 15.0367 6.41036C15.0957 6.40291 15.1486 6.37238 15.1852 6.32545Z" fill="#3D3D3D"/>
<path id="Vector_3" d="M7.0282 2.70976C9.14304 1.42559 11.5703 0.747633 14.0444 0.750006C14.5636 0.749809 15.0776 0.851909 15.5572 1.05047C16.0369 1.24903 16.4727 1.54016 16.8397 1.90723C17.2068 2.27429 17.4979 2.71009 17.6965 3.18972C17.895 3.66935 17.9971 4.1834 17.997 4.70251C17.997 5.07376 17.8402 5.40676 17.5919 5.64226V6.67726C17.8949 7.04809 18.0547 7.51534 18.0424 7.99403C18.03 8.47273 17.8462 8.93109 17.5245 9.28576V9.66751C17.5246 10.1414 17.3836 10.6046 17.1195 10.998C17.0122 11.343 16.8547 11.6655 16.6574 11.9595C17.0159 12.1538 17.3594 12.372 17.6864 12.6113C17.5911 12.9431 17.5895 13.2949 17.6819 13.6276C17.7743 13.9603 17.9571 14.2609 18.2099 14.496C18.1627 14.6685 18.1207 14.841 18.0824 15.0135C17.4316 14.2492 16.6344 13.6226 15.7379 13.1708C15.6938 13.6383 15.4951 14.0778 15.1731 14.4196C14.8512 14.7615 14.4245 14.9863 13.9605 15.0585C14.1967 15.3825 14.3369 15.7823 14.3369 16.215V17.4675C13.8165 17.4669 13.3175 17.2601 12.9492 16.8924C12.5809 16.5246 12.3733 16.026 12.372 15.5055C12.3706 16.026 12.163 16.5246 11.7947 16.8924C11.4264 17.2601 10.9274 17.4669 10.4069 17.4675V16.215C10.4069 15.7823 10.5472 15.3825 10.7842 15.0585C10.32 14.9865 9.89313 14.7618 9.57106 14.4199C9.24898 14.0779 9.05012 13.6384 9.00595 13.1708C7.95458 13.7006 7.04195 14.4694 6.3412 15.4155C7.03859 15.5188 7.69518 15.8084 8.24167 16.2538C8.78817 16.6992 9.20432 17.2838 9.4462 17.946L10.8337 21.75H17.3107C17.3305 21.6465 17.3673 21.5469 17.4194 21.4553C17.3369 21.3137 17.2933 21.1528 17.293 20.989C17.2927 20.8251 17.3358 20.6641 17.4179 20.5223C17.3358 20.3804 17.2927 20.2194 17.293 20.0556C17.2933 19.8917 17.3369 19.7308 17.4194 19.5893C17.3307 19.4387 17.2867 19.2659 17.2927 19.0913C17.3062 18.6015 17.6939 18.231 18.15 18.1845C18.1811 18.1764 18.2131 18.1724 18.2452 18.1725H18.6352C18.5217 16.8796 18.654 15.5769 19.0252 14.3333C18.7249 14.1268 18.5102 13.8178 18.4214 13.4643C18.3326 13.1109 18.3758 12.7371 18.5429 12.4133C19.0162 11.421 19.9207 10.9163 20.9542 10.8488H20.979C21.1147 10.8488 21.2557 10.8915 21.3802 10.9988L21.3877 11.0048C21.4842 11.0922 21.5492 11.2091 21.5725 11.3372C21.5958 11.4654 21.5762 11.5976 21.5167 11.7135L21.513 11.7218L21.5084 11.7293C21.3195 12.0653 21.2602 12.3855 21.3457 12.7965L21.354 12.834V12.8438C21.4028 13.1235 21.3711 13.4114 21.2624 13.6739C21.1538 13.9363 20.9728 14.1624 20.7404 14.3258C20.9665 15.0895 21.1046 15.8766 21.1522 16.6718C21.4371 16.7797 21.6825 16.9717 21.8559 17.2223C22.0292 17.4729 22.1222 17.7703 22.1227 18.075V21.8325C22.1226 22.1943 21.9827 22.5421 21.7323 22.8031C21.4818 23.0642 21.1402 23.2184 20.7787 23.2335C20.7274 23.2444 20.6751 23.25 20.6227 23.25H3.19945C3.04341 23.2499 2.89127 23.2012 2.76423 23.1106C2.63718 23.02 2.54157 22.892 2.4907 22.7445L1.7557 20.6145L1.75495 20.6138C0.859448 18 2.43445 15.177 5.00995 14.6963C5.8286 13.5346 6.90959 12.5824 8.1652 11.9168C8.0241 11.7012 7.90596 11.4714 7.8127 11.2313C7.4302 10.7972 7.21925 10.2385 7.21945 9.66001V9.23026C6.91616 8.86976 6.75012 8.41362 6.7507 7.94251C6.7507 7.45201 6.9277 7.00276 7.21945 6.65551V5.93026C6.86585 5.82559 6.55565 5.60923 6.33527 5.31355C6.1149 5.01787 5.9962 4.65877 5.99695 4.29001C5.99695 3.69151 6.30595 3.13651 6.8302 2.82751L6.83095 2.82676L7.0282 2.70976ZM10.0349 21.75L8.74195 18.204C8.50723 17.5608 8.07011 17.0111 7.49628 16.6376C6.92244 16.264 6.24288 16.0868 5.5597 16.1325C5.546 16.1347 5.53225 16.1364 5.51845 16.1378C3.7807 16.3073 2.52295 18.225 3.17395 20.127L3.7342 21.75H10.0349ZM20.622 18.9225H18.3194C18.2948 18.9275 18.2696 18.93 18.2444 18.93C18.1267 18.93 18.0442 19.0215 18.042 19.1115V19.116C18.0414 19.1483 18.0492 19.1801 18.0646 19.2085C18.0799 19.2369 18.1024 19.2608 18.1297 19.278C18.1814 19.3124 18.2237 19.3591 18.2529 19.4139C18.282 19.4687 18.2972 19.5299 18.2969 19.5919C18.2966 19.654 18.2809 19.715 18.2512 19.7696C18.2215 19.8241 18.1787 19.8703 18.1267 19.9043C18.1013 19.9205 18.0803 19.9427 18.0655 19.969C18.0507 19.9953 18.0426 20.0249 18.042 20.055C18.042 20.1225 18.0742 20.1728 18.1192 20.2013C18.1729 20.2345 18.2173 20.2807 18.2484 20.3357C18.2794 20.3906 18.2961 20.4526 18.2968 20.5157C18.2976 20.5788 18.2824 20.6411 18.2526 20.6968C18.2229 20.7525 18.1796 20.7998 18.1267 20.8343C18.1013 20.8505 18.0803 20.8727 18.0655 20.899C18.0507 20.9253 18.0426 20.9549 18.042 20.985C18.042 21.0525 18.0742 21.1028 18.1192 21.1313C18.1711 21.1634 18.2144 21.2077 18.2452 21.2603C18.2761 21.313 18.2937 21.3723 18.2964 21.4333C18.2992 21.4943 18.287 21.555 18.2609 21.6102C18.2349 21.6654 18.1958 21.7134 18.1469 21.75H20.472C20.52 21.7403 20.5702 21.735 20.622 21.735V18.9225ZM20.385 16.473C20.3204 15.7204 20.1694 14.9778 19.9349 14.2598L19.8832 14.1008L19.83 14.2658C19.5952 14.9817 19.4437 15.7224 19.3785 16.473H20.385ZM11.0744 13.065C11.1958 13.3226 11.3878 13.5405 11.6281 13.6933C11.8684 13.8461 12.1472 13.9276 12.4319 13.9283C13.0312 13.9283 13.5509 13.5728 13.7909 13.062C13.5756 13.1045 13.3565 13.1259 13.1369 13.1258H11.7119C11.498 13.1259 11.2845 13.1056 11.0744 13.065ZM8.8432 5.62501C8.84545 5.68201 8.84845 5.73901 8.85295 5.79751L8.8537 5.80276L9.13795 10.1318C9.2253 10.7528 9.53366 11.3215 10.0065 11.7336C10.4793 12.1456 11.0848 12.3734 11.7119 12.375H13.1369C13.7643 12.3746 14.3704 12.1474 14.8435 11.7353C15.3165 11.3232 15.6246 10.7539 15.7109 10.1325L15.9809 5.79601V5.78701C15.9877 5.73301 15.9922 5.67901 15.9952 5.62501H8.8432ZM19.2172 12.741L19.2142 12.7485L19.2105 12.7545C19.1619 12.8481 19.1336 12.9509 19.1275 13.0561C19.1214 13.1614 19.1376 13.2668 19.175 13.3653C19.2125 13.4639 19.2704 13.5535 19.3448 13.6281C19.4193 13.7027 19.5087 13.7608 19.6072 13.7985L19.881 13.9035L20.1532 13.7955C20.2845 13.7432 20.3984 13.6548 20.4817 13.5405C20.4335 13.5516 20.3841 13.5567 20.3347 13.5555C20.0047 13.5555 19.7497 13.2705 19.7497 12.9405C19.7497 12.7155 19.5697 12.5355 19.3447 12.5355H19.3282C19.2875 12.6019 19.2504 12.6705 19.2172 12.741Z" fill="#3D3D3D"/>
</g>
</g>
</svg>
