<svg width="24" height="24" viewBox="0 0 24 24" fill="none" xmlns="http://www.w3.org/2000/svg">
<g id="fluent-emoji-high-contrast:closed-mailbox-with-raised-flag">
<g id="Group">
<path id="Vector" d="M13.815 0.275392C13.3125 0.275392 12.9075 0.680392 12.9075 1.18289V7.86089C12.5608 8.06025 12.2897 8.36857 12.1364 8.7379C11.983 9.10724 11.956 9.5169 12.0595 9.90319C12.163 10.2895 12.3912 10.6307 12.7087 10.8739C13.0262 11.1171 13.4151 11.2486 13.815 11.2479C14.2146 11.248 14.603 11.1161 14.9201 10.8729C15.2371 10.6297 15.465 10.2886 15.5684 9.90263C15.6719 9.51665 15.645 9.10732 15.4921 8.73816C15.3391 8.369 15.0686 8.06063 14.7225 7.86089V3.74789H18.099C18.4552 3.74789 18.75 3.47114 18.75 3.13589V1.35989C18.75 1.02464 18.4553 0.747892 18.0983 0.747892H14.6122C14.5342 0.60466 14.4189 0.485155 14.2786 0.40199C14.1383 0.318826 13.9781 0.275088 13.815 0.275392ZM6.9525 14.9979H3.735C3.33 14.9979 3 15.3279 3 15.7329C3 16.1379 3.33 16.4679 3.735 16.4679H6.9525C7.3575 16.4679 7.6875 16.1379 7.6875 15.7329C7.68861 15.6361 7.67035 15.54 7.6338 15.4503C7.59726 15.3606 7.54316 15.2792 7.47469 15.2107C7.40621 15.1422 7.32475 15.0881 7.23507 15.0516C7.1454 15.015 7.04933 14.9968 6.9525 14.9979Z" fill="#3D3D3D"/>
<path id="Vector_2" d="M5.88 4.49903H12.1575V5.99903H9.501C9.97805 6.47536 10.3563 7.04126 10.6139 7.66421C10.8716 8.28716 11.0037 8.95489 11.0025 9.62903V16.9565H19.4925C19.592 16.9565 19.6873 16.917 19.7577 16.8467C19.828 16.7764 19.8675 16.681 19.8675 16.5815V9.62978C19.8663 8.66734 19.4835 7.74465 18.803 7.06403C18.1225 6.38341 17.1999 6.00041 16.2375 5.99903H15.4725V4.49903H16.2375C19.068 4.49903 21.3585 6.79328 21.3675 9.62678V16.5815C21.3675 16.8278 21.319 17.0716 21.2248 17.2991C21.1305 17.5265 20.9924 17.7332 20.8183 17.9074C20.6442 18.0815 20.4375 18.2196 20.21 18.3138C19.9825 18.408 19.7387 18.4565 19.4925 18.4565H12.6075V22.529H8.8725V18.4565H2.625C2.37877 18.4565 2.13496 18.408 1.90747 18.3138C1.67998 18.2196 1.47329 18.0815 1.29918 17.9074C1.12507 17.7332 0.986955 17.5265 0.892728 17.2991C0.7985 17.0716 0.750002 16.8278 0.750002 16.5815V9.62903C0.74941 8.95518 0.881697 8.28783 1.13929 7.66516C1.39689 7.04249 1.77474 6.47673 2.25122 6.00025C2.72771 5.52377 3.29347 5.14591 3.91614 4.88832C4.5388 4.63072 5.20615 4.49843 5.88 4.49903ZM5.88 5.99903C5.40314 5.99843 4.93084 6.09192 4.49016 6.27414C4.04948 6.45635 3.64908 6.72371 3.31188 7.06091C2.97469 7.3981 2.70733 7.79851 2.52511 8.23918C2.3429 8.67986 2.24941 9.15216 2.25 9.62903V16.5815C2.25 16.681 2.28951 16.7764 2.35984 16.8467C2.43016 16.917 2.52555 16.9565 2.625 16.9565H9.5025V9.62903C9.50329 9.15274 9.41018 8.68096 9.22851 8.24068C9.04683 7.80041 8.78015 7.40026 8.44371 7.06312C8.10727 6.72599 7.70768 6.45848 7.26777 6.27589C6.82787 6.0933 6.35629 5.99922 5.88 5.99903Z" fill="#3D3D3D"/>
</g>
</g>
</svg>
