<svg width="24" height="24" viewBox="0 0 24 24" fill="none" xmlns="http://www.w3.org/2000/svg">
<g id="game-icons:tightrope">
<path id="Vector" d="M12.8578 1.79492C12.6141 2.77133 12.4313 3.55367 11.8641 4.15273C10.7906 5.29648 9.12188 5.97617 6.47344 5.23086C5.77031 5.03398 5.15625 4.51461 4.53 3.74492L3.87563 4.27836C4.55578 5.11367 5.30156 5.77461 6.24375 6.04648H6.24844C6.92813 6.23867 7.56563 6.33711 8.15625 6.36523C8.54063 7.63555 8.7375 8.85898 9.52969 10.0543C9.62344 11.9668 9.34219 13.4574 9.01875 15.2996C7.65 15.098 6.26719 14.6527 4.84688 13.8699L4.65141 14.7184C9.675 17.3855 14.3109 16.0777 19.3312 14.6434L19.1391 13.8184C16.05 14.7043 13.2234 15.5199 10.3969 15.4215C10.8 13.6777 11.0672 11.934 11.2266 10.1855C13.3547 10.9262 14.8359 11.7043 16.125 12.9699L16.8984 12.234C15.6984 10.8559 13.6922 9.54336 11.6578 8.67617C11.3438 7.61211 11.0625 6.84336 11.0391 5.80273C11.6016 5.52148 12.0844 5.15586 12.4828 4.7293C13.2281 3.9357 13.4391 2.96258 13.6734 1.99648L12.8578 1.79492ZM8.77031 2.10758C8.72813 2.10758 8.69063 2.1118 8.64844 2.11977C8.43281 2.16242 8.24531 2.31805 8.11406 2.59555C7.97813 2.87445 7.92188 3.26164 8.00625 3.67086C8.08594 4.08008 8.28281 4.41898 8.5125 4.62617C8.74219 4.82773 8.97656 4.90273 9.19219 4.86055C9.40781 4.81836 9.59531 4.66039 9.72656 4.3857C9.8625 4.10586 9.91406 3.71773 9.83438 3.30852C9.75469 2.8993 9.55781 2.56133 9.32812 2.35508C9.14062 2.18727 8.95313 2.10852 8.77031 2.10758ZM1.17188 13.9215V22.8277H1.91438L3.96984 13.9215H1.17188ZM20.0297 13.9215L22.0875 22.8277H22.8281V13.9215H20.0297Z" fill="#3D3D3D"/>
</g>
</svg>
