<svg width="24" height="24" viewBox="0 0 24 24" fill="none" xmlns="http://www.w3.org/2000/svg">
<g id="game-icons:hot-meal" clip-path="url(#clip0_17601_48017)">
<path id="Vector" d="M12.557 0.960938C12.557 0.960938 11.9495 1.27097 11.3426 1.72753C11.0392 1.95581 10.7321 2.22066 10.4893 2.52567C10.2465 2.83064 10.0485 3.1928 10.0786 3.61627C10.1121 4.08689 10.4311 4.43737 10.7715 4.64752C11.1117 4.85761 11.4981 4.98473 11.862 5.11013C12.2259 5.23552 12.5675 5.35917 12.7841 5.493C13.0008 5.62678 13.0678 5.71345 13.0786 5.86627C13.0799 5.88361 13.059 5.97623 12.9562 6.10547C12.8533 6.2347 12.6877 6.38344 12.5146 6.51375C12.1683 6.77423 11.807 6.96094 11.807 6.96094L12.1919 7.71169C12.1919 7.71169 12.6056 7.50103 13.0218 7.18791C13.23 7.03134 13.4426 6.84914 13.6162 6.63103C13.7899 6.41283 13.944 6.14166 13.9202 5.80636C13.8868 5.33573 13.5677 4.98525 13.2274 4.77511C12.8872 4.56497 12.5008 4.43789 12.1369 4.3125C11.7729 4.18711 11.4314 4.06345 11.2147 3.92963C10.998 3.7958 10.9311 3.70917 10.9202 3.55636C10.9127 3.4508 10.9773 3.26723 11.1493 3.05119C11.3213 2.83509 11.5814 2.60358 11.8499 2.40159C12.3868 1.99767 12.9419 1.71169 12.9419 1.71169L12.557 0.960938ZM6.55702 3.21094C6.55702 3.21094 5.94951 3.52097 5.34262 3.97753C5.0392 4.20581 4.73208 4.47066 4.48926 4.77567C4.24645 5.08064 4.04855 5.4428 4.07864 5.86627C4.11211 6.33689 4.43114 6.68737 4.77145 6.89752C5.11172 7.10761 5.49811 7.23473 5.862 7.36013C6.22594 7.48552 6.56747 7.60917 6.78412 7.743C7.00083 7.87678 7.06781 7.96345 7.07864 8.11627C7.07991 8.13361 7.05905 8.22623 6.95616 8.35547C6.85327 8.4847 6.68775 8.63344 6.51459 8.76375C6.16828 9.02423 5.80701 9.21094 5.80701 9.21094L6.19186 9.96169C6.19186 9.96169 6.60558 9.75103 7.02183 9.43791C7.22995 9.28134 7.44258 9.09914 7.61625 8.88098C7.78992 8.66283 7.94405 8.39161 7.92023 8.05636C7.88677 7.58573 7.56773 7.23525 7.22742 7.02511C6.88716 6.81497 6.50077 6.68789 6.13687 6.5625C5.77294 6.43711 5.43141 6.31345 5.21475 6.17962C4.99805 6.0458 4.93106 5.95917 4.92023 5.80636C4.91273 5.7008 4.97728 5.51723 5.14927 5.30119C5.3213 5.08509 5.58136 4.85358 5.84986 4.65159C6.38677 4.24767 6.94186 3.96169 6.94186 3.96169L6.55702 3.21094ZM18.557 3.21094C18.557 3.21094 17.9495 3.52097 17.3426 3.97753C17.0392 4.20581 16.7321 4.47066 16.4893 4.77567C16.2465 5.08064 16.0485 5.4428 16.0786 5.86627C16.1121 6.33689 16.4311 6.68737 16.7715 6.89752C17.1117 7.10761 17.4981 7.23473 17.862 7.36013C18.2259 7.48552 18.5675 7.60917 18.7841 7.743C19.0008 7.87678 19.0678 7.96345 19.0786 8.11627C19.0799 8.13361 19.059 8.22623 18.9562 8.35547C18.8533 8.4847 18.6877 8.63344 18.5146 8.76375C18.1683 9.02423 17.807 9.21094 17.807 9.21094L18.1919 9.96169C18.1919 9.96169 18.6056 9.75103 19.0218 9.43791C19.23 9.28134 19.4426 9.09914 19.6162 8.88098C19.7899 8.66283 19.944 8.39161 19.9202 8.05636C19.8868 7.58573 19.5677 7.23525 19.2274 7.02511C18.8872 6.81497 18.5008 6.68789 18.1369 6.5625C17.7729 6.43711 17.4314 6.31345 17.2148 6.17962C16.998 6.0458 16.9311 5.95917 16.9202 5.80636C16.9127 5.7008 16.9773 5.51723 17.1493 5.30119C17.3213 5.08509 17.5814 4.85358 17.8499 4.65159C18.3868 4.24767 18.9419 3.96169 18.9419 3.96169L18.557 3.21094ZM11.9994 8.78934C11.3901 8.78934 10.9779 9.06656 10.6629 9.53906C10.5325 9.73467 10.4273 9.96563 10.3482 10.2171C10.8788 10.1418 11.4296 10.102 11.9994 10.102C12.5693 10.102 13.12 10.1418 13.6507 10.2171C13.5716 9.96563 13.4663 9.73467 13.3359 9.53906C13.0209 9.06656 12.6088 8.78934 11.9994 8.78934ZM11.9994 10.9456C6.4013 10.9456 2.91731 14.9787 2.69287 19.102H21.306C21.0815 14.9787 17.5975 10.9455 11.9994 10.9455V10.9456ZM1.0477 19.3193L0.451172 19.9158C1.30055 20.7652 2.24944 20.7893 2.99944 20.7893H20.9994C21.7494 20.7893 22.6983 20.7652 23.5477 19.9158L22.9512 19.3193C22.3005 19.9699 21.7494 19.9458 20.9994 19.9458H2.99944C2.24944 19.9458 1.69828 19.9699 1.0477 19.3193ZM5.28759 21.6331L6.22519 23.0395H17.7737L18.7113 21.6331H5.28759Z" fill="#3D3D3D"/>
</g>
<defs>
<clipPath id="clip0_17601_48017">
<rect width="24" height="24" fill="white"/>
</clipPath>
</defs>
</svg>
