<svg width="24" height="24" viewBox="0 0 24 24" fill="none" xmlns="http://www.w3.org/2000/svg">
<g id="game-icons:tennis-court">
<path id="Vector" d="M5.66336 2.57812L4.10617 9.32812H4.9743L6.33836 3.42188H7.19148L6.22586 9.32812H7.08367L7.55711 6.42188H11.579V9.32812H12.4227V6.42188H16.4446L16.918 9.32812H17.7759L16.8102 3.42188H17.6634L19.0274 9.32812H19.8946L18.3384 2.57812H5.66336ZM8.0493 3.42188H15.9524L16.3087 5.57812H7.69305L8.0493 3.42188ZM3.42273 10.1719V11.5781H20.579V10.1719H3.42273ZM3.39273 12.4219L0.970703 22.9219H23.0305L20.6071 12.4219H19.7399L21.9712 22.0781H19.8618L18.2821 12.4219H17.4243L18.0899 16.5H12.4227V12.4219H11.579V16.5H5.9118L6.57742 12.4219H5.71961L4.14227 22.0781H2.03102L4.26039 12.4219H3.39273ZM5.77117 17.3438H18.2305L19.004 22.0781H4.99773L5.77117 17.3438Z" fill="#3D3D3D"/>
</g>
</svg>
