<svg width="24" height="24" viewBox="0 0 24 24" fill="none" xmlns="http://www.w3.org/2000/svg">
<g id="game-icons:golf-flag">
<path id="Vector" d="M9.04688 1.54688V22.3383C9.29672 22.3701 9.54881 22.3914 9.80264 22.3995L9.79908 9.3525L17.9872 6.375L9.79753 3.39689L9.79697 1.54688H9.04688ZM16.5 18.0469C15.6925 18.0469 15.0469 18.6925 15.0469 19.5C15.0469 20.3075 15.6925 20.9531 16.5 20.9531C17.3075 20.9531 17.9531 20.3075 17.9531 19.5C17.9531 18.6925 17.3075 18.0469 16.5 18.0469ZM11.625 20.2969C11.2912 20.2969 10.9643 20.3044 10.6458 20.3177L10.6464 22.4324C10.9647 22.4458 11.2914 22.4531 11.625 22.4531C13.2533 22.4531 14.7285 22.2856 15.7653 22.0264C16.0482 21.9557 16.297 21.877 16.5061 21.7967C16.5041 21.7967 16.5021 21.7969 16.5 21.7969C15.5841 21.7969 14.7896 21.2537 14.4214 20.4736C13.5947 20.362 12.6397 20.2969 11.625 20.2969ZM8.20312 20.5719C7.94606 20.618 7.70494 20.6685 7.48472 20.7236C6.96628 20.8532 6.55683 21.0091 6.3112 21.1543C6.10603 21.2756 6.05972 21.3617 6.04983 21.375C6.05967 21.3884 6.10608 21.4745 6.31116 21.5958C6.55678 21.741 6.96623 21.8969 7.48462 22.0264C7.70484 22.0815 7.94597 22.1321 8.20303 22.1782V20.5719L8.20312 20.5719ZM6.04987 21.375C6.048 21.3724 6.04688 21.3715 6.04688 21.375C6.04688 21.3785 6.04795 21.3776 6.04987 21.375Z" fill="#3D3D3D"/>
</g>
</svg>
