<svg width="24" height="24" viewBox="0 0 24 24" fill="none" xmlns="http://www.w3.org/2000/svg">
<g id="game-icons:cellar-barrels">
<path id="Vector" d="M12.4927 2.12793C11.5598 2.12793 10.627 2.19871 9.69421 2.33934C8.30672 3.56184 7.56609 5.68152 7.56609 7.74871C7.56609 8.69559 7.72078 9.61434 8.01609 10.4206C8.32078 10.4065 8.62078 10.3971 8.92546 10.3971C9.79265 10.3596 10.388 10.3971 11.1098 10.519C10.8239 9.65652 10.6833 8.70496 10.6833 7.74871C10.6833 5.70027 11.3208 3.57215 12.6567 2.13168H12.4927V2.12793ZM13.8473 2.18137C12.3333 3.37293 11.527 5.58777 11.527 7.74871C11.527 8.78934 11.7098 9.79246 12.0661 10.6503C12.6286 10.7393 13.1864 10.8518 13.7489 10.9878C14.0208 10.9971 14.288 11.0534 14.5411 11.1471C13.9786 10.1534 13.6505 8.86434 13.6505 7.4534C13.6505 5.96277 14.0161 4.6048 14.6395 3.59184C14.9302 3.11605 15.2911 2.71012 15.6989 2.41387C15.0802 2.30605 14.4661 2.22777 13.8473 2.18137ZM8.30203 2.6009C8.15203 2.63559 7.99734 2.67168 7.84265 2.71012L7.8239 2.7148L7.80984 2.71949C4.5375 3.26465 3.77953 8.14246 5.5364 10.6925C6.07078 10.5987 6.60515 10.5284 7.13953 10.4768C6.86296 9.6284 6.72234 8.6909 6.72234 7.74871C6.72234 5.91121 7.23328 4.01277 8.30203 2.6009ZM17.2411 2.72793C16.552 2.72793 15.8817 3.18449 15.3614 4.03434C14.8364 4.88465 14.4942 6.1034 14.4942 7.4534C14.4942 8.8034 14.8364 10.0221 15.3614 10.8706C15.8817 11.7237 16.552 12.1784 17.2411 12.1784C17.9302 12.1784 18.6005 11.7237 19.1208 10.8706C19.6458 10.0221 19.988 8.8034 19.988 7.4534C19.988 6.1034 19.6458 4.88465 19.1208 4.03434C18.6005 3.18449 17.9302 2.72793 17.2411 2.72793ZM17.2364 9.00965H17.2458C17.5833 9.01434 17.7895 9.25809 17.8973 9.4784C18.0052 9.69871 18.0567 9.94715 18.0567 10.2237C18.0567 10.5003 18.0052 10.7487 17.8973 10.969C17.7895 11.1893 17.5833 11.4331 17.2458 11.4378H17.2364C16.8989 11.4331 16.6927 11.1893 16.5848 10.969C16.477 10.7487 16.4255 10.5003 16.4255 10.2237C16.4255 9.94715 16.477 9.69871 16.5848 9.4784C16.6927 9.25809 16.8989 9.01434 17.2364 9.00965ZM8.92546 11.2362C7.99734 11.2362 7.06453 11.3065 6.13172 11.4471C4.74422 12.6706 4.00125 14.7846 4.00125 16.8518C4.00125 18.8206 4.65937 20.6628 5.89265 21.6284C6.88171 21.7878 7.87078 21.8722 8.85515 21.8722C7.68328 20.6581 7.12078 18.7643 7.12078 16.8565C7.12078 14.8034 7.75359 12.6753 9.09421 11.2362H8.92546ZM10.2848 11.2878C8.76609 12.4784 7.95984 14.6956 7.95984 16.8565C7.95984 18.9659 8.71921 20.9346 10.1395 21.8346C10.8052 21.7878 11.4708 21.7081 12.1364 21.5956C11.7286 21.2956 11.3723 20.8925 11.0817 20.419C10.4583 19.4018 10.0927 18.0471 10.0927 16.5565C10.0927 15.0659 10.4583 13.7112 11.0817 12.6987C11.3723 12.2253 11.7286 11.8175 12.1317 11.5221C11.513 11.4143 10.8989 11.3346 10.2848 11.2878ZM4.73484 11.7143C4.57968 11.7471 4.43015 11.7846 4.27875 11.8221H4.25859L4.24406 11.8268C-0.0136445 12.5346 -0.0136445 20.5831 4.24406 21.2909L4.25859 21.2956H4.27875L4.44984 21.3378C3.5775 20.1378 3.15984 18.5018 3.15984 16.8518C3.15984 15.019 3.66984 13.1206 4.73484 11.7143ZM13.6786 11.8315C12.9895 11.8315 12.3239 12.2909 11.7989 13.1393C11.2739 13.9878 10.9317 15.2065 10.9317 16.5565C10.9317 17.9112 11.2739 19.1253 11.7989 19.9784C12.3239 20.8268 12.9895 21.2862 13.6786 21.2862C14.3677 21.2862 15.0333 20.8268 15.5583 19.9784C16.0833 19.1253 16.4255 17.9112 16.4255 16.5565C16.4255 15.2065 16.0833 13.9878 15.5583 13.1393C15.0333 12.2909 14.3677 11.8315 13.6786 11.8315ZM20.1942 11.8315C19.777 11.8362 19.3645 12.005 18.9848 12.3331C18.9755 12.3425 18.9661 12.3518 18.9567 12.3565C18.727 12.5628 18.5114 12.8253 18.3192 13.144C17.7989 13.9925 17.4567 15.2065 17.4567 16.5565C17.4567 17.9065 17.7989 19.1253 18.3239 19.9737C18.8442 20.8268 19.5145 21.2815 20.2036 21.2815C20.8927 21.2815 21.563 20.8268 22.0833 19.9737C22.6083 19.1253 22.9505 17.9065 22.9505 16.5565C22.9505 15.2065 22.6083 13.9878 22.0833 13.1393C21.563 12.2862 20.8927 11.8315 20.2036 11.8315H20.1942ZM13.6786 18.1175C14.0161 18.1175 14.227 18.3612 14.3395 18.5815C14.4473 18.8018 14.4942 19.0503 14.4942 19.3315C14.4942 19.6081 14.4473 19.8612 14.3395 20.0768C14.227 20.3018 14.0161 20.5409 13.6786 20.5409C13.3411 20.5409 13.1302 20.3018 13.0223 20.0768C12.9098 19.8612 12.863 19.6081 12.863 19.3315C12.863 19.0503 12.9098 18.8018 13.0223 18.5815C13.1302 18.3612 13.3411 18.1175 13.6786 18.1175ZM20.1989 18.1175H20.2083C20.5458 18.1221 20.752 18.3659 20.8598 18.5862C20.9677 18.8065 21.0192 19.055 21.0192 19.3315C21.0192 19.6081 20.9677 19.8565 20.8598 20.0768C20.752 20.2971 20.5458 20.5409 20.2083 20.5456H20.1989C19.8614 20.5409 19.6552 20.2971 19.5473 20.0768C19.4395 19.8565 19.388 19.6081 19.388 19.3315C19.388 19.055 19.4395 18.8065 19.5473 18.5862C19.6552 18.3659 19.8614 18.1221 20.1989 18.1175ZM16.9411 18.905C16.777 19.4628 16.552 19.9737 16.2802 20.419C15.8817 21.0565 15.3708 21.5721 14.7848 21.8628C16.0739 21.905 17.3677 21.8206 18.6567 21.5956C18.2536 21.3003 17.8927 20.8925 17.602 20.419C17.3302 19.9737 17.1052 19.4628 16.9411 18.905Z" fill="#3D3D3D"/>
</g>
</svg>
