<svg width="24" height="24" viewBox="0 0 24 24" fill="none" xmlns="http://www.w3.org/2000/svg">
<g id="game-icons:pool-table-corner">
<path id="Vector" d="M1.17188 1.17188V4.82812H12.3281V1.17188H1.17188ZM13.1719 1.17188V4.82812H13.1813C12.9047 5.40938 12.75 6.06094 12.75 6.75C12.75 9.22969 14.7703 11.25 17.25 11.25C17.9391 11.25 18.5906 11.0953 19.1719 10.8188V10.8281H22.8281V1.17188H13.1719ZM17.25 3.09469C19.275 3.09469 20.9062 4.725 20.9062 6.75C20.9062 8.775 19.275 10.4062 17.25 10.4062C15.225 10.4062 13.5938 8.775 13.5938 6.75C13.5938 4.725 15.225 3.09422 17.25 3.09469ZM1.17188 5.67188V7.07812H10.3266L11.7328 5.67188H1.17188ZM19.1719 11.6719V22.8281H22.8281V11.6719H19.1719ZM18.3281 12.2672L16.9219 13.6734V22.8281H18.3281V12.2672ZM11.8359 12.4219C11.1957 12.4219 10.5817 12.6762 10.1289 13.1289C9.67621 13.5817 9.42188 14.1957 9.42188 14.8359C9.42188 15.4762 9.67621 16.0902 10.1289 16.5429C10.5817 16.9957 11.1957 17.25 11.8359 17.25C12.4762 17.25 13.0902 16.9957 13.5429 16.5429C13.9957 16.0902 14.25 15.4762 14.25 14.8359C14.25 14.1957 13.9957 13.5817 13.5429 13.1289C13.0902 12.6762 12.4762 12.4219 11.8359 12.4219ZM8.61563 17.6578L7.5 19.5L9.54375 20.6391L10.5234 18.7172L8.61563 17.6578ZM7.06406 20.2219L5.48906 22.8281H8.42813L9.15937 21.3937L7.06406 20.2219Z" fill="#3D3D3D"/>
</g>
</svg>
