<svg width="24" height="24" viewBox="0 0 24 24" fill="none" xmlns="http://www.w3.org/2000/svg">
<g id="game-icons:jumping-dog">
<path id="Vector" d="M12 1.07812C11.4094 1.07812 10.8984 1.44891 10.4953 1.98234C10.0922 2.51578 9.75938 3.23953 9.47813 4.1175C8.91563 5.87344 8.57813 8.25 8.57813 10.875C8.64375 13.3266 8.78907 15.45 9.47813 17.6344C9.75938 18.5109 10.0922 19.2328 10.4953 19.7672C10.8 20.1703 11.1656 20.4797 11.5781 20.6063V22.3594H8.25V23.2031H15.75V22.3594H12.4219V20.6063C12.8344 20.4797 13.2 20.1703 13.5047 19.7672C13.9078 19.2328 14.2406 18.5109 14.5219 17.6344C14.7188 17.0156 14.8875 16.3219 15.0281 15.5672C15.8203 15.2531 16.5328 14.8641 16.5328 14.8641C17.5219 14.9953 18.7969 15.225 19.1156 15.7641C19.2984 16.0828 19.0359 16.6125 19.2703 16.8047C19.8844 17.3062 20.3766 16.8562 20.4797 16.5187C20.5828 15.8906 20.6063 15.3141 20.3859 14.8031C20.2828 14.5687 18.7406 13.6828 17.6391 13.3453C18.9188 13.5609 20.9625 13.7672 21.0328 14.0438C21.1547 14.5031 21 15.1547 21.3891 15.2391C22.275 15.4313 22.4063 15.2672 22.4719 14.5359C22.5141 14.0953 22.5422 13.7016 22.2516 13.3359C21.9422 12.9469 19.5797 12.3234 18.6 12.1359C19.7672 11.3719 19.8891 11.2219 20.3016 10.8C21.8625 10.5891 22.35 9.94219 22.6359 8.93906C23.1422 8.6625 22.8469 8.01562 22.6031 8.00156C21.8766 7.96875 20.8781 8.04844 20.1984 7.76719C19.9453 7.42031 19.5 7.19062 19.0078 6.97969C18.8531 6.62344 19.2516 5.78438 18.9469 5.45156C18.4922 5.63438 17.9203 6.54375 17.7141 6.9C17.6297 6.44062 17.3109 6.02812 17.0625 5.65781C15.9703 6.98906 16.05 7.9125 15.3844 9.38906C15.2813 7.35938 14.9766 5.53594 14.5219 4.1175C14.2406 3.23953 13.9078 2.51578 13.5047 1.98234C13.1016 1.44891 12.5906 1.07812 12 1.07812ZM12 1.92188C12.2344 1.92188 12.5156 2.07563 12.8297 2.49141C13.1438 2.90672 13.4578 3.55594 13.7203 4.37437C14.1891 5.83594 14.5031 7.8375 14.5641 10.0688C12.6516 10.9359 11.7188 11.2312 10.1719 11.7328C10.2328 13.7812 10.3359 14.3953 10.7906 15.9703C11.7891 16.1531 13.0734 16.125 14.1094 15.8672C13.9969 16.4156 13.8656 16.9219 13.7203 17.3766C13.4578 18.1922 13.1438 18.8438 12.8297 19.2609C12.5156 19.6734 12.2344 19.8281 12 19.8281C11.7656 19.8281 11.4844 19.6734 11.1703 19.2609C10.8563 18.8438 10.5422 18.1922 10.2797 17.3766C9.67032 14.9344 9.42657 13.1719 9.42188 10.875C9.42188 8.32031 9.75469 6.00938 10.2797 4.37437C10.5422 3.55594 10.8563 2.90672 11.1703 2.49141C11.4844 2.07563 11.7656 1.92188 12 1.92188ZM19.0125 7.61719C19.1766 7.6125 19.3406 7.81406 19.3922 8.08594C19.4484 8.37656 19.35 8.63906 19.1766 8.67188C19.0031 8.70469 18.8203 8.49375 18.7641 8.20312C18.7125 7.9125 18.8063 7.65469 18.9797 7.62188C18.9891 7.61719 19.0031 7.61719 19.0125 7.61719ZM3.28875 10.9406C3.57891 12.2719 3.74485 13.6125 5.98594 13.8469C5.5125 15.3656 3.99375 16.275 1.86 17.5828C1.24219 17.9625 0.973598 18.8203 1.41657 19.2797C2.59969 18.8484 4.22297 17.8313 5.25469 17.0906C4.81875 17.6156 4.01016 18.4359 3.59204 18.9375C2.96672 19.6781 3.22172 20.0484 3.6525 20.3297C4.95 19.4016 6.38907 17.8875 7.21875 16.7156L8.25938 16.3125C7.84688 14.7703 7.77188 13.5281 7.75782 12.1734C5.89219 12.0328 4.46813 11.8312 3.28875 10.9406Z" fill="black"/>
</g>
</svg>
