<svg width="24" height="24" viewBox="0 0 24 24" fill="none" xmlns="http://www.w3.org/2000/svg">
<g id="game-icons:trail">
<path id="Vector" d="M7.02656 1.27539L1.60547 2.66008V6.2582L7.39688 4.39961L9.58594 2.3057L7.02656 1.27539ZM13.2516 3.94727C12.9047 3.9557 12.7781 4.03539 13.2938 4.28148C16.2609 5.70039 20.7047 9.69414 18.3422 10.1676C10.8844 11.6723 6.1125 13.702 2.27391 18.3191C1.19156 19.6223 0.84375 23.1941 0.84375 23.1941H21.1219C21.1219 23.1941 14.6062 22.2051 14.1937 19.6457C13.4953 15.3238 23.3109 14.8316 23.4047 10.2754C23.4469 8.25039 19.2656 4.41648 14.7609 4.06352C14.4984 4.04289 13.6969 3.93648 13.2516 3.94727ZM5.5875 5.86445L4.05516 6.35664V12.0848L5.74219 11.616L5.5875 5.86445Z" fill="#3D3D3D"/>
</g>
</svg>
