<svg width="24" height="24" viewBox="0 0 24 24" fill="none" xmlns="http://www.w3.org/2000/svg">
<g id="game-icons:gate">
<path id="Vector" d="M11.625 4.125V5.65556C11.3772 5.69466 11.1274 5.77031 10.875 5.87259V4.875H10.125V6.24188C10.0454 6.28688 9.96553 6.33342 9.88523 6.38156C9.71658 6.48281 9.54633 6.59156 9.375 6.70523V5.625H8.625V7.22766C8.37544 7.40813 8.12512 7.5945 7.875 7.78181V7.125H7.125V8.34211C6.87178 8.52998 6.62109 8.71242 6.375 8.88548V7.875H5.625V9.38498C5.57625 9.41531 5.52703 9.44648 5.47898 9.47536C5.27048 9.60052 5.06808 9.70987 4.875 9.8017V9.375H4.125V10.0769C3.98953 10.1083 3.86367 10.125 3.75 10.125H3.375V8.625H1.125V22.875H3.375V10.875H3.75C3.87459 10.875 3.99956 10.8642 4.125 10.8444V22.875H4.875V10.6274C5.12212 10.5271 5.37187 10.4014 5.625 10.2581V22.875H6.375V9.79477C6.62316 9.63014 6.87361 9.45427 7.125 9.27239V22.875H7.875V16.125H8.625V22.875H9.375V7.61452C9.63103 7.43461 9.88172 7.26638 10.125 7.11502V13.875H10.875V6.69834C11.1465 6.56925 11.3994 6.47545 11.625 6.42319V13.875H12.375V6.42314C12.6006 6.47545 12.8535 6.56925 13.125 6.6983V13.875H13.875V7.11502C14.1183 7.26642 14.369 7.43461 14.625 7.61452V22.875H15.375V16.125H16.125V22.875H16.875V9.27234C17.1264 9.45422 17.3768 9.63014 17.625 9.79477V22.875H18.375V10.2581C18.6281 10.4014 18.8779 10.5272 19.125 10.6274V22.875H19.875V10.8444C20.0004 10.8642 20.1254 10.875 20.25 10.875H20.625V22.875H22.875V8.625H20.625V10.125H20.25C20.1363 10.125 20.0105 10.1083 19.875 10.0769V9.375H19.125V9.80166C18.9319 9.70978 18.7295 9.60047 18.521 9.47541C18.4729 9.44648 18.4237 9.41531 18.375 9.38494V7.875H17.625V8.88548C17.3788 8.71252 17.1282 8.52998 16.875 8.34211V7.125H16.125V7.78181C15.8749 7.5945 15.6246 7.40822 15.375 7.22761V5.625H14.625V6.70523C14.4537 6.59161 14.2834 6.48277 14.1148 6.38161C14.0354 6.33403 13.9555 6.28746 13.875 6.24192V4.875H13.125V5.87264C12.8726 5.77031 12.6228 5.69466 12.375 5.65561V4.125H11.625ZM2.25 5.625C1.62422 5.625 1.125 6.12422 1.125 6.75C1.125 7.37578 1.62422 7.875 2.25 7.875C2.87578 7.875 3.375 7.37578 3.375 6.75C3.375 6.12422 2.87578 5.625 2.25 5.625ZM21.75 5.625C21.1242 5.625 20.625 6.12422 20.625 6.75C20.625 7.37578 21.1242 7.875 21.75 7.875C22.3758 7.875 22.875 7.37578 22.875 6.75C22.875 6.12422 22.3758 5.625 21.75 5.625ZM8.625 8.15789V15.375H7.875V8.71819C7.95 8.66203 8.02514 8.60616 8.1 8.55C8.27578 8.41828 8.45081 8.28713 8.625 8.15789ZM15.375 8.15789C15.5492 8.28713 15.7242 8.41828 15.9 8.55C15.9749 8.60625 16.05 8.66203 16.125 8.71819V15.375H15.375V8.15789ZM10.125 14.625V16.125H13.875V14.625H10.125ZM10.125 16.875V22.875H10.875V16.875H10.125ZM11.625 16.875V22.875H12.375V16.875H11.625ZM13.125 16.875V22.875H13.875V16.875H13.125Z" fill="#3D3D3D"/>
</g>
</svg>
