<svg width="24" height="24" viewBox="0 0 24 24" fill="none" xmlns="http://www.w3.org/2000/svg">
<g id="game-icons:fire-ring">
<path id="Vector" d="M14.642 0.788086C14.8809 3.27316 11.0473 4.16027 14.8207 6.92871C13.8363 3.74801 16.6938 3.13465 14.642 0.788086ZM6.51062 2.80952C6.64488 5.57079 6.13586 7.54315 4.91252 9.22999L4.88908 9.24312C4.95564 7.88524 4.21703 6.76906 3.38472 5.68502C3.51981 7.52299 3.19891 9.36002 2.43991 11.1958C1.46538 12.3143 0.90625 13.6195 0.90625 15.0132C0.90625 19.1597 5.85578 22.5206 11.9629 22.5206C18.07 22.5206 23.021 19.1597 23.021 15.0132C23.021 14.5407 22.9565 14.0788 22.8335 13.6304C22.5349 12.2085 22.4698 11.3067 22.8189 10.8575C23.385 10.1291 23.3651 9.01113 22.7061 7.93226C22.3518 10.1852 20.874 9.34432 19.75 5.41413C18.4394 9.86646 16.3624 5.20826 17.0123 2.92245C15.7813 3.93485 15.6237 6.20191 15.6895 7.94393C15.4187 7.87768 15.1462 7.81907 14.8721 7.76815C12.7796 7.05457 11.1862 5.1139 11.9483 3.69874C10.9153 4.17987 10.7872 5.20671 11.1807 6.38093C12.0814 9.0686 8.52278 5.90609 8.66261 3.75293L7.86138 7.16018C7.85416 5.54421 7.58744 3.69499 6.51081 2.80957L6.51062 2.80952ZM11.9629 9.23435C17.0749 9.23435 21.2192 12.0476 21.2192 15.5186C21.2192 16.5589 20.8472 17.5401 20.188 18.4043C19.4644 18.7266 19.063 17.3569 18.9913 16.4604C18.2357 17.4256 18.9643 19.2223 18.1753 19.979C18.0756 19.4988 17.6146 18.9027 16.9873 18.5376C17.0862 19.5784 16.7986 20.5687 15.5942 21.3002C14.134 21.5669 13.5116 19.9544 13.271 18.7586C13.082 20.3295 12.5197 21.5237 10.9287 21.7631C10.7394 21.7491 10.5503 21.731 10.3618 21.709C8.93163 20.8468 9.39466 19.3918 9.22506 18.0249C9.08772 19.4079 8.07953 21.0905 7.39694 20.6573C6.19333 19.8934 7.90755 19.0847 6.95022 17.6734C6.83702 19.0887 5.93069 19.1491 4.98006 19.0738C5.02413 18.4084 5.06083 17.7447 4.85116 17.1402C4.42281 17.5002 4.00553 17.8826 3.23097 17.606C2.89239 16.9529 2.70803 16.2504 2.70803 15.5187C2.70794 12.0477 6.85075 9.23435 11.9628 9.23435H11.9629Z" fill="#3D3D3D"/>
</g>
</svg>
