<svg width="24" height="24" viewBox="0 0 24 24" fill="none" xmlns="http://www.w3.org/2000/svg">
<g id="game-icons:fireplace">
<path id="Vector" d="M6.24375 1.17188L3.72703 5.57812H20.2734L17.7562 1.17188H6.24375ZM1.17188 6.42188V8.57812H22.8281V6.42188H1.17188ZM2.67188 9.42188V11.5781H4.82812V9.42188H2.67188ZM19.1719 9.42188V11.5781H21.3281V9.42188H19.1719ZM11.1375 9.45C11.1375 9.45 10.1063 9.8625 10.0125 10.3312C9.79688 11.4 11.6016 13.1813 11.6016 13.1813C11.6016 13.1813 10.9781 11.5594 10.9312 10.7062C10.9078 10.2797 11.1375 9.45 11.1375 9.45ZM13.6875 10.1437C13.4016 12.0281 13.1625 14.0672 11.5359 14.8406C10.1156 15.5156 9.82969 11.1609 7.125 10.5516C9.22969 15.2906 3.89531 17.1094 9.10312 19.2328H10.0172C8.89219 18.0187 8.40469 14.9766 8.40469 14.9766C8.40469 14.9766 9.82031 18.3516 11.3344 18.4547C12.0375 18.5016 12.9047 17.0391 12.9047 17.0391C12.9047 17.0391 13.1813 18.4359 12.9 19.2328H14.9531C16.2328 18.5391 17.0438 17.5594 17.3531 16.5469C17.6578 15.5672 17.4937 14.5547 16.8422 13.7391C16.4391 16.1672 15.8391 16.6828 14.2594 17.2125C15.975 15.1172 15.2063 11.625 13.6875 10.1437ZM2.67188 12.4219V14.5781H4.82812V12.4219H2.67188ZM19.1719 12.4219V14.5781H21.3281V12.4219H19.1719ZM2.67188 15.4219V19.0781H4.82812V15.4219H2.67188ZM19.1719 15.4219V19.0781H21.3281V15.4219H19.1719ZM1.17188 19.9219V22.8281H22.8281V19.9219H1.17188Z" fill="#3D3D3D"/>
</g>
</svg>
