<svg width="24" height="24" viewBox="0 0 24 24" fill="none" xmlns="http://www.w3.org/2000/svg">
<g clip-path="url(#clip0_14705_8773)">
<path d="M23.047 17.1975L18.729 21.1325C16.698 22.9825 14.067 24.0005 11.321 24.0005H1C0.447 24.0005 0 23.5535 0 23.0005C0 22.4475 0.447 22.0005 1 22.0005H11.32C13.567 22.0005 15.719 21.1675 17.381 19.6535L21.665 15.7515C22.012 15.4035 22.095 14.8075 21.821 14.4275C21.641 14.1785 21.379 14.0285 21.081 14.0035C20.79 13.9845 20.501 14.0855 20.293 14.2935L16.059 18.1795C15.521 18.6875 14.797 19.0005 14 19.0005H9C8.447 19.0005 8 18.5535 8 18.0005C8 17.4475 8.447 17.0005 9 17.0005H14C14.252 17.0005 15 16.8855 15 16.0005C15 15.4485 14.552 15.0005 14 15.0005H9.088C6.685 15.0005 4.424 15.9375 2.724 17.6365L1.726 18.6895C1.529 18.8965 1.265 19.0015 1 19.0015C0.753 19.0015 0.505 18.9105 0.312 18.7275C-0.088 18.3465 -0.105 17.7135 0.275 17.3135L1.292 16.2425C3.389 14.1465 6.151 13.0025 9.089 13.0025H14.001C15.237 13.0025 16.301 13.7545 16.76 14.8245L18.911 12.8505C19.502 12.2575 20.367 11.9355 21.242 12.0115C22.122 12.0815 22.925 12.5365 23.445 13.2595C24.289 14.4335 24.118 16.1255 23.048 17.1985L23.047 17.1975ZM4.006 2.1625C3.964 1.5815 4.178 1.0095 4.594 0.5945C5.009 0.1785 5.581 -0.0394996 6.163 0.00650043C9.04 0.2095 10.948 1.2015 12 3.1185C13.053 1.2015 14.96 0.2095 17.838 0.00650043C18.429 -0.0414996 18.992 0.1785 19.406 0.5945C19.822 1.0095 20.036 1.5815 19.994 2.1635C19.683 6.5765 17.514 8.7085 13 8.9715V9.9995C13 10.5525 12.553 10.9995 12 10.9995C11.447 10.9995 11 10.5525 11 9.9995V8.9715C6.486 8.7075 4.317 6.5765 4.006 2.1625ZM13.032 6.9685C16.393 6.7445 17.766 5.3315 18 2.0225C14.671 2.2365 13.256 3.6075 13.032 6.9685ZM6.021 2.0005C6.235 5.3295 7.606 6.7445 10.967 6.9685C10.743 3.6075 9.33 2.2345 6.021 2.0005Z" fill="#3D3D3D"/>
</g>
<defs>
<clipPath id="clip0_14705_8773">
<rect width="24" height="24" fill="white"/>
</clipPath>
</defs>
</svg>
