<svg width="24" height="24" viewBox="0 0 24 24" fill="none" xmlns="http://www.w3.org/2000/svg">
<g id="guidance:conference-room">
<path id="Vector" d="M6 14.5H1.5V1.5H22.5V14.5H18M17.5 24C17.5 22.0386 18.0441 20.1156 19.072 18.445L19.5 17.75V17.5H4.5V17.75L4.928 18.445C5.95586 20.1156 6.50005 22.0386 6.5 24M16 15V11.5C16 11.5 14.5 10.5 12 10.5C9.5 10.5 8 11.5 8 11.5V15M11.85 8.5C11.85 8.5 10.25 7.5 10.25 6.25C10.25 5.7864 10.4342 5.34179 10.762 5.01398C11.0898 4.68616 11.5344 4.502 11.998 4.502C12.4616 4.502 12.9062 4.68616 13.234 5.01398C13.5618 5.34179 13.746 5.7864 13.746 6.25C13.746 7.5 12.15 8.5 12.15 8.5H11.85Z" stroke="#3D3D3D"/>
</g>
</svg>
