<svg width="24" height="24" viewBox="0 0 24 24" fill="none" xmlns="http://www.w3.org/2000/svg">
<g id="guidance:charging-station">
<path id="Vector" d="M8.5 21V3.5L8.588 3.441C10.4869 2.17519 12.7179 1.49972 15 1.49972C17.2821 1.49972 19.5131 2.17519 21.412 3.441L21.5 3.5V21M6 22.5H24M8.5 16.5H7.5C6.43913 16.5 5.42172 16.0786 4.67157 15.3284C3.92143 14.5783 3.5 13.5609 3.5 12.5V6M3.5 6C4.5 6 5 5.5 5 5.5V3M3.5 6C2.5 6 2 5.5 2 5.5V3M5 3H2M5 3V1M2 3V1M16 12C15.5 14 14 15 14 15V15.5H16V16C15.5 18 14 19 14 19M18.5 9.5H11.5V5.043C13.7772 4.3195 16.2228 4.3195 18.5 5.043V9.5Z" stroke="#3D3D3D"/>
</g>
</svg>
