<svg width="24" height="24" viewBox="0 0 24 24" fill="none" xmlns="http://www.w3.org/2000/svg">
<g id="guidance:office">
<path id="Vector" d="M24 6.49995C23.671 6.49995 23.341 6.56995 23.063 6.74495C21.5 7.73295 21.5 9.07995 21.5 9.99995V10.5H17M9 13.5H24M16.5 13.5V24M12 23.5C11 23.5 10.25 22 10.25 22C9.5 20.5 9.5 19.5 9.5 18V16.5H1.5V16.25L3.422 8.75495C3.58738 8.10985 3.96272 7.53811 4.48886 7.12983C5.015 6.72156 5.66203 6.49996 6.328 6.49995H7.5L8.947 9.39395C9.11313 9.72642 9.36862 10.006 9.6848 10.2014C10.001 10.3967 10.3653 10.5001 10.737 10.5H15M7.35 4.49995C7.35 4.49995 5.75 3.49995 5.75 2.24995C5.75 2.0204 5.79521 1.7931 5.88306 1.58102C5.9709 1.36895 6.09966 1.17625 6.26198 1.01393C6.42429 0.851614 6.61699 0.722857 6.82907 0.635012C7.04115 0.547166 7.26845 0.501953 7.498 0.501953C7.72755 0.501953 7.95485 0.547166 8.16693 0.635012C8.37901 0.722857 8.57171 0.851614 8.73402 1.01393C8.89634 1.17625 9.0251 1.36895 9.11294 1.58102C9.20079 1.7931 9.246 2.0204 9.246 2.24995C9.246 3.49995 7.65 4.49995 7.65 4.49995H7.35Z" stroke="#3D3D3D"/>
</g>
</svg>
