<svg width="24" height="24" viewBox="0 0 24 24" fill="none" xmlns="http://www.w3.org/2000/svg">
<g clip-path="url(#clip0_35229_57881)">
<path d="M23.1204 7.12186L20.7064 4.70686L22.7064 2.70686L21.2924 1.29286L19.2924 3.29286L16.8784 0.878859C16.5998 0.60023 16.269 0.379206 15.905 0.22841C15.541 0.0776141 15.1509 0 14.7569 0C14.3629 0 13.9727 0.0776141 13.6087 0.22841C13.2447 0.379206 12.9139 0.60023 12.6354 0.878859L9.80736 3.70686L14.3424 8.24286L8.24236 14.3429L3.70636 9.80786L0.878359 12.6359C0.315946 13.1984 0 13.9614 0 14.7569C0 15.5524 0.315946 16.3153 0.878359 16.8779L3.29236 19.2929L1.29236 21.2929L2.70636 22.7069L4.70636 20.7069L7.12036 23.1209C7.39894 23.3995 7.72968 23.6205 8.09369 23.7713C8.4577 23.9221 8.84785 23.9997 9.24186 23.9997C9.63587 23.9997 10.026 23.9221 10.39 23.7713C10.754 23.6205 11.0848 23.3995 11.3634 23.1209L14.1914 20.2929L9.65636 15.7569L15.7564 9.65686L20.2914 14.1919L23.1194 11.3639C23.6818 10.8013 23.9977 10.0384 23.9977 9.24286C23.9977 8.44737 23.6818 7.68444 23.1194 7.12186H23.1204ZM9.94936 21.7069C9.85649 21.7998 9.7462 21.8736 9.6248 21.9239C9.5034 21.9742 9.37327 22.0001 9.24186 22.0001C9.11044 22.0001 8.98032 21.9742 8.85892 21.9239C8.73752 21.8736 8.62723 21.7998 8.53436 21.7069L2.29236 15.4639C2.10489 15.2763 1.99957 15.022 1.99957 14.7569C1.99957 14.4917 2.10489 14.2374 2.29236 14.0499L3.70636 12.6359L11.3634 20.2929L9.94936 21.7069ZM21.7064 9.94886L20.2924 11.3639L12.6354 3.70686L14.0494 2.29286C14.1422 2.19988 14.2525 2.12612 14.3739 2.0758C14.4953 2.02548 14.6254 1.99957 14.7569 1.99957C14.8883 1.99957 15.0184 2.02548 15.1398 2.0758C15.2612 2.12612 15.3715 2.19988 15.4644 2.29286L21.7064 8.53586C21.8935 8.72335 21.9986 8.97744 21.9986 9.24236C21.9986 9.50728 21.8935 9.76137 21.7064 9.94886Z" fill="#3D3D3D"/>
</g>
<defs>
<clipPath id="clip0_35229_57881">
<rect width="24" height="24" fill="white"/>
</clipPath>
</defs>
</svg>
