<svg width="24" height="24" viewBox="0 0 24 24" fill="none" xmlns="http://www.w3.org/2000/svg">
<g id="healthicons:discharge-lounge-outline">
<g id="Group">
<path id="Vector" d="M11.5 5.5V7H10V8H11.5V9.5H12.5V8H14V7H12.5V5.5H11.5Z" fill="#3D3D3D"/>
<path id="Vector_2" fill-rule="evenodd" clip-rule="evenodd" d="M3 4.5C3 4.10218 3.15804 3.72064 3.43934 3.43934C3.72064 3.15804 4.10218 3 4.5 3H19.5C19.8978 3 20.2794 3.15804 20.5607 3.43934C20.842 3.72064 21 4.10218 21 4.5V19.5C21 19.8978 20.842 20.2794 20.5607 20.5607C20.2794 20.842 19.8978 21 19.5 21H4.5C4.10218 21 3.72064 20.842 3.43934 20.5607C3.15804 20.2794 3 19.8978 3 19.5V4.5ZM4 4.5C4 4.36739 4.05268 4.24021 4.14645 4.14645C4.24021 4.05268 4.36739 4 4.5 4H19.5C19.6326 4 19.7598 4.05268 19.8536 4.14645C19.9473 4.24021 20 4.36739 20 4.5V17.5H18.667C18.667 17.4686 18.6639 17.4373 18.658 17.4065L18.013 14.023L18.9805 10.6375C19.017 10.51 19.0013 10.3732 18.9369 10.2573C18.8725 10.1413 18.7648 10.0557 18.6373 10.0192C18.5097 9.98278 18.373 9.99846 18.257 10.0628C18.1411 10.1272 18.0555 10.235 18.019 10.3625L17.4195 12.4615H13.5V13.4615H14.154V14.3075H13.8845C13.7691 14.3074 13.6573 14.3473 13.5679 14.4203C13.4786 14.4933 13.4172 14.595 13.3943 14.708C13.3713 14.8211 13.3882 14.9386 13.442 15.0407C13.4958 15.1427 13.5832 15.2231 13.6895 15.268L13.0235 17.348C13.0079 17.3971 12.9999 17.4484 13 17.5H11C10.9999 17.4482 10.9918 17.3968 10.976 17.3475L10.311 15.268C10.417 15.2228 10.5041 15.1425 10.5577 15.0405C10.6113 14.9385 10.628 14.8211 10.605 14.7082C10.582 14.5953 10.5207 14.4938 10.4315 14.4209C10.3423 14.348 10.2307 14.3081 10.1155 14.308H9.846V13.4615H10.5V12.4615H6.58L5.9805 10.3625C5.96398 10.2977 5.93463 10.2368 5.89418 10.1836C5.85372 10.1303 5.80299 10.0857 5.74498 10.0524C5.68698 10.0191 5.62288 9.99772 5.55648 9.98963C5.49008 9.98153 5.42273 9.98684 5.35842 10.0052C5.29411 10.0237 5.23415 10.0548 5.18208 10.0968C5.13002 10.1388 5.08691 10.1908 5.0553 10.2497C5.0237 10.3087 5.00425 10.3734 4.9981 10.44C4.99195 10.5066 4.99923 10.5738 5.0195 10.6375L5.9865 14.023L5.342 17.4065C5.33611 17.4373 5.3331 17.4686 5.333 17.5H4V4.5ZM19.5 20C19.6326 20 19.7598 19.9473 19.8536 19.8536C19.9473 19.7598 20 19.6326 20 19.5V18.5H4V19.5C4 19.6326 4.05268 19.7598 4.14645 19.8536C4.24021 19.9473 4.36739 20 4.5 20H19.5ZM17.009 14.0935L17.0495 14.3075H15.154V13.4615H17.134L17.019 13.8625C16.9977 13.9377 16.9942 14.0168 17.009 14.0935ZM17.6575 17.5L17.2765 15.5H14.665L14.025 17.5H17.6575ZM6.991 14.0935L6.9505 14.3075H8.846V13.4615H6.866L6.981 13.8625C7.00234 13.9377 7.00576 14.0168 6.991 14.0935ZM6.3425 17.5L6.7235 15.5H9.335L9.975 17.5H6.3425Z" fill="#3D3D3D"/>
</g>
</g>
</svg>
