<svg width="24" height="24" viewBox="0 0 24 24" fill="none" xmlns="http://www.w3.org/2000/svg">
<g id="healthicons:bike-outline">
<path id="Vector" fill-rule="evenodd" clip-rule="evenodd" d="M17.8725 6.08543L15.41 6.82543L17.05 11.1144C18.0383 10.8723 19.0817 11.016 19.9678 11.5161C20.8539 12.0163 21.5161 12.8353 21.8196 13.8065C22.1231 14.7776 22.0451 15.828 21.6014 16.7437C21.1578 17.6593 20.3818 18.3715 19.4316 18.7353C18.4813 19.099 17.4281 19.0869 16.4864 18.7015C15.5448 18.316 14.7854 17.5862 14.3629 16.6606C13.9403 15.735 13.8864 14.6831 14.2121 13.7192C14.5378 12.7552 15.2187 11.9516 16.116 11.4719L15.292 9.31693L12.451 15.2179C12.41 15.3027 12.346 15.3742 12.2662 15.4242C12.1864 15.4741 12.0941 15.5006 12 15.5004H9.969C9.84066 16.5091 9.33307 17.431 8.54939 18.0788C7.76572 18.7267 6.76477 19.0518 5.74999 18.9881C4.73521 18.9244 3.78274 18.4768 3.08619 17.7361C2.38964 16.9953 2.00126 16.0172 2 15.0004C1.99924 13.9824 2.38667 13.0024 3.08334 12.2601C3.78001 11.5178 4.7335 11.069 5.74952 11.0053C6.76554 10.9416 7.76764 11.2676 8.55163 11.917C9.33562 12.5664 9.84251 13.4903 9.969 14.5004H11.219L8.779 7.66843C8.75977 7.61451 8.74996 7.55768 8.75 7.50043H8C7.86739 7.50043 7.74022 7.44775 7.64645 7.35398C7.55268 7.26021 7.5 7.13304 7.5 7.00043C7.5 6.86782 7.55268 6.74064 7.64645 6.64688C7.74022 6.55311 7.86739 6.50043 8 6.50043H10.25C10.3826 6.50043 10.5098 6.55311 10.6036 6.64688C10.6973 6.74064 10.75 6.86782 10.75 7.00043C10.75 7.13304 10.6973 7.26021 10.6036 7.35398C10.5098 7.44775 10.3826 7.50043 10.25 7.50043H9.781L10.702 10.0789L14.7655 7.94043L14.283 6.67893C14.2584 6.61469 14.2474 6.54607 14.2506 6.47737C14.2537 6.40867 14.271 6.34136 14.3014 6.27965C14.3318 6.21794 14.3745 6.16316 14.427 6.11873C14.4795 6.0743 14.5406 6.04117 14.6065 6.02143L17.585 5.12793L17.8725 6.08543ZM11.0415 11.0304L12.0275 13.7904L14.1425 9.39843L11.0415 11.0304ZM17.533 15.1789L16.4765 12.4154C15.8286 12.7977 15.348 13.4093 15.1298 14.1292C14.9117 14.8491 14.9719 15.6247 15.2986 16.3022C15.6254 16.9798 16.1947 17.5099 16.8938 17.7875C17.5929 18.0651 18.3708 18.0699 19.0733 17.801C19.7758 17.5321 20.3517 17.0091 20.6868 16.3357C21.0219 15.6622 21.0918 14.8875 20.8826 14.1649C20.6734 13.4424 20.2004 12.8248 19.5573 12.4346C18.9142 12.0443 18.148 11.9099 17.4105 12.0579L18.467 14.8219C18.5122 14.9453 18.507 15.0815 18.4526 15.2011C18.3981 15.3207 18.2988 15.414 18.176 15.461C18.0533 15.5079 17.917 15.5046 17.7967 15.4518C17.6763 15.399 17.5816 15.301 17.533 15.1789ZM8.9585 14.5004H6C5.86739 14.5004 5.74022 14.5531 5.64645 14.6469C5.55268 14.7406 5.5 14.8678 5.5 15.0004C5.5 15.133 5.55268 15.2602 5.64645 15.354C5.74022 15.4478 5.86739 15.5004 6 15.5004H8.9585C8.83113 16.2405 8.43095 16.9059 7.83696 17.3653C7.24297 17.8247 6.49833 18.0447 5.75004 17.9819C5.00176 17.9191 4.3042 17.5781 3.79508 17.0261C3.28595 16.4741 3.00226 15.7513 3 15.0004C2.99931 14.2477 3.2816 13.5223 3.79084 12.968C4.30009 12.4137 4.99908 12.0711 5.74914 12.0082C6.4992 11.9453 7.24551 12.1666 7.84001 12.6282C8.4345 13.0899 8.83374 13.7581 8.9585 14.5004Z" fill="#3D3D3D"/>
</g>
</svg>
