<svg width="24" height="24" viewBox="0 0 24 24" fill="none" xmlns="http://www.w3.org/2000/svg">
<g id="healthicons:security-worker-outline">
<g id="Group">
<path id="Vector" d="M12 6.49902C12.1989 6.49902 12.3897 6.42001 12.5303 6.27935C12.671 6.1387 12.75 5.94794 12.75 5.74902C12.75 5.55011 12.671 5.35935 12.5303 5.21869C12.3897 5.07804 12.1989 4.99902 12 4.99902C11.8011 4.99902 11.6103 5.07804 11.4697 5.21869C11.329 5.35935 11.25 5.55011 11.25 5.74902C11.25 5.94794 11.329 6.1387 11.4697 6.27935C11.6103 6.42001 11.8011 6.49902 12 6.49902Z" fill="#3D3D3D"/>
<path id="Vector_2" fill-rule="evenodd" clip-rule="evenodd" d="M11.908 3.00723L11.904 3.00823L11.8925 3.01023L11.851 3.01823L11.696 3.04923C11.563 3.07623 11.3735 3.11623 11.147 3.16773C10.6945 3.27073 10.087 3.42123 9.477 3.60973C8.873 3.79623 8.2405 4.02823 7.75 4.29973C7.506 4.43473 7.272 4.59323 7.0935 4.77973C6.916 4.96423 6.75 5.22273 6.75 5.54723C6.75 6.41973 6.995 7.05873 7.254 7.48723C7.3815 7.69823 7.511 7.85573 7.613 7.96373C7.618 8.02123 7.6255 8.08573 7.6395 8.15573C7.69 8.41873 7.8165 8.75373 8.1065 9.07923C7.96841 9.66636 7.96488 10.2771 8.09618 10.8658C8.22748 11.4545 8.49021 12.0059 8.86471 12.4787C9.23921 12.9515 9.71578 13.3335 10.2588 13.5961C10.8018 13.8586 11.3971 13.995 12.0002 13.995C12.6034 13.995 13.1987 13.8586 13.7417 13.5961C14.2847 13.3335 14.7613 12.9515 15.1358 12.4787C15.5103 12.0059 15.773 11.4545 15.9043 10.8658C16.0356 10.2771 16.0321 9.66636 15.894 9.07923C16.1835 8.75373 16.31 8.41923 16.3605 8.15573C16.3745 8.08573 16.3825 8.02123 16.387 7.96373C16.5232 7.81804 16.6435 7.65832 16.746 7.48723C17.0055 7.05873 17.25 6.41973 17.25 5.54723C17.25 5.22273 17.084 4.96423 16.9065 4.77973C16.728 4.59323 16.494 4.43473 16.25 4.29973C15.7595 4.02823 15.127 3.79623 14.5225 3.60973C13.9716 3.44184 13.4148 3.2944 12.853 3.16773C12.6191 3.11442 12.3844 3.06442 12.149 3.01773L12.1075 3.01023L12.096 3.00823L12.092 3.00723L12 2.99023L11.908 3.00723ZM12 9.24873C13.1035 9.24873 13.8445 9.10573 14.34 8.91973C14.7595 8.76223 15.004 8.57423 15.145 8.41573C15.1965 8.35823 15.237 8.30223 15.269 8.24873H8.731C8.763 8.30223 8.8035 8.35873 8.8545 8.41573C8.9965 8.57423 9.2405 8.76223 9.6595 8.91973C10.1555 9.10573 10.8965 9.24873 12 9.24873ZM15.686 7.24873H8.314C8.23736 7.16225 8.1689 7.06885 8.1095 6.96973C7.938 6.68623 7.752 6.22773 7.75 5.55773C7.7667 5.52563 7.78868 5.49656 7.815 5.47173C7.896 5.38723 8.033 5.28573 8.2345 5.17473C8.6345 4.95323 9.1895 4.74523 9.7725 4.56473C10.2991 4.4046 10.8315 4.26401 11.3685 4.14323C11.5784 4.09546 11.7889 4.05046 12 4.00823C12.0285 4.01323 12.0635 4.02073 12.104 4.02873C12.231 4.05473 12.413 4.09373 12.6315 4.14323C13.0695 4.24273 13.65 4.38673 14.2275 4.56523C14.8105 4.74523 15.3655 4.95323 15.7655 5.17473C15.967 5.28573 16.104 5.38723 16.1855 5.47173C16.2305 5.51923 16.2455 5.54723 16.25 5.55773C16.248 6.22773 16.062 6.68623 15.89 6.96973C15.8309 7.06892 15.7626 7.16233 15.686 7.24873ZM9 9.99873C9 9.90873 9.004 9.81973 9.0115 9.73173C9.6805 10.0452 10.6385 10.2487 12 10.2487C13.1725 10.2487 14.0445 10.0987 14.691 9.85623C14.796 9.81723 14.895 9.77523 14.9885 9.73123C15.0239 10.1345 14.9773 10.5407 14.8516 10.9255C14.7258 11.3103 14.5235 11.6656 14.2568 11.9702C13.9901 12.2747 13.6645 12.5221 13.2997 12.6975C12.9348 12.8728 12.5383 12.9726 12.1339 12.9906C11.7295 13.0087 11.3256 12.9447 10.9466 12.8026C10.5675 12.6604 10.2212 12.443 9.9284 12.1635C9.6356 11.884 9.40241 11.5481 9.24285 11.1761C9.0833 10.804 9.00069 10.4035 9 9.99873Z" fill="#3D3D3D"/>
<path id="Vector_3" d="M16.5 16.999C16.8335 17.3325 17.5 17.6655 17.5 17.6655C17.5 17.6655 17.151 18.999 16.5 18.999C15.849 18.999 15.5 17.6655 15.5 17.6655C15.5 17.6655 16.1665 17.3325 16.5 16.999Z" fill="#3D3D3D"/>
<path id="Vector_4" fill-rule="evenodd" clip-rule="evenodd" d="M10.25 15.499C10.25 15.2338 10.3554 14.9795 10.5429 14.7919C10.7304 14.6044 10.9848 14.499 11.25 14.499H12.75C13.0152 14.499 13.2696 14.6044 13.4571 14.7919C13.6446 14.9795 13.75 15.2338 13.75 15.499V16.19C13.75 16.3528 13.7102 16.5132 13.6341 16.6571C13.5581 16.8011 13.448 16.9243 13.3135 17.016L13.37 17.299L15.086 15.2155C15.1438 15.1452 15.2198 15.0921 15.3056 15.0618C15.3914 15.0315 15.4839 15.0252 15.573 15.0435C16.855 15.3095 18.1665 15.7125 19.1705 16.2655C20.1415 16.8005 21 17.577 21 18.648V20.499C21 20.6316 20.9473 20.7588 20.8536 20.8526C20.7598 20.9463 20.6326 20.999 20.5 20.999H3.5C3.36739 20.999 3.24021 20.9463 3.14645 20.8526C3.05268 20.7588 3 20.6316 3 20.499V18.648C3 17.583 3.875 16.8115 4.846 16.281C5.854 15.7295 7.166 15.3235 8.4325 15.054C8.52205 15.035 8.6151 15.041 8.7015 15.0712C8.78791 15.1014 8.86435 15.1548 8.9225 15.2255L10.6375 17.3085L10.6915 17.0195C10.5555 16.928 10.4441 16.8044 10.3671 16.6596C10.2901 16.5149 10.2499 16.3535 10.25 16.1895V15.499ZM12.26 16.847L12.5495 18.2955L12 18.9625L11.468 18.3165L11.7415 16.84C11.7613 16.7333 11.7459 16.6231 11.6975 16.526C11.6492 16.4288 11.5706 16.35 11.4735 16.3015L11.25 16.19V15.499H12.75V16.19L12.5265 16.302C12.4284 16.351 12.3491 16.4309 12.3009 16.5294C12.2526 16.6279 12.2381 16.7395 12.2595 16.847H12.26ZM12.4415 19.999L15.6635 16.0865C16.7935 16.3395 17.877 16.695 18.6875 17.1415C19.602 17.645 20 18.1655 20 18.648V19.999H12.442H12.4415ZM8.3445 16.0975L11.558 19.999H4V18.648C4 18.181 4.4 17.6645 5.3255 17.158C6.142 16.7115 7.2275 16.354 8.3455 16.0975H8.3445Z" fill="#3D3D3D"/>
</g>
</g>
</svg>
