<svg width="24" height="24" viewBox="0 0 24 24" fill="none" xmlns="http://www.w3.org/2000/svg">
<g id="icon-park-outline:green-new-energy">
<g id="Group">
<path id="Vector" d="M21.168 8C19.6245 4.468 16.1 2 12 2C7.89953 2 4.37503 4.468 2.83203 8" stroke="#3D3D3D" stroke-width="2" stroke-linecap="round" stroke-linejoin="round"/>
<path id="Vector_2" d="M12 7C11.0488 7.93002 10.2933 9.041 9.7781 10.2675C9.26288 11.494 8.99832 12.8112 9.00001 14.1415C9.00001 14.3915 9.00901 14.6395 9.02751 14.8855C9.97054 15.8146 10.7191 16.9222 11.2294 18.1437C11.7398 19.3652 12.0017 20.6762 12 22C11.9982 20.6761 12.2601 19.3651 12.7705 18.1435C13.2808 16.9219 14.0294 15.8142 14.9725 14.885C15.0828 13.4334 14.8738 11.9752 14.3603 10.613C13.8467 9.25081 13.0411 8.01758 12 7Z" stroke="#3D3D3D" stroke-width="2" stroke-linecap="round" stroke-linejoin="round"/>
<path id="Vector_3" d="M2 12C2 17.523 6.477 22 12 22C12.0018 20.6761 11.7399 19.3651 11.2295 18.1435C10.7192 16.9219 9.97059 15.8142 9.0275 14.885C7.15764 13.0334 4.63148 11.9964 2 12Z" stroke="#3D3D3D" stroke-width="2" stroke-linecap="round" stroke-linejoin="round"/>
<path id="Vector_4" d="M22 12C22 17.523 17.523 22 12 22C11.9982 20.6761 12.2601 19.3651 12.7705 18.1435C13.2808 16.9219 14.0294 15.8142 14.9725 14.885C16.8424 13.0334 19.3685 11.9964 22 12Z" stroke="#3D3D3D" stroke-width="2" stroke-linecap="round" stroke-linejoin="round"/>
</g>
</g>
</svg>
