<svg width="24" height="24" viewBox="0 0 24 24" fill="none" xmlns="http://www.w3.org/2000/svg">
<g clip-path="url(#clip0_35229_57923)">
<path d="M10.9994 23.0008C10.9994 22.803 11.0581 22.6097 11.1679 22.4452C11.2778 22.2808 11.434 22.1526 11.6167 22.0769C11.7994 22.0012 12.0005 21.9814 12.1945 22.02C12.3885 22.0586 12.5667 22.1538 12.7065 22.2937C12.8464 22.4335 12.9416 22.6117 12.9802 22.8057C13.0188 22.9997 12.999 23.2008 12.9233 23.3835C12.8476 23.5662 12.7194 23.7224 12.555 23.8323C12.3905 23.9421 12.1972 24.0008 11.9994 24.0008C11.7342 24.0008 11.4798 23.8954 11.2923 23.7079C11.1048 23.5204 10.9994 23.266 10.9994 23.0008ZM15.5344 20.8788C15.7219 20.6913 15.8272 20.437 15.8272 20.1718C15.8272 19.9066 15.7219 19.6523 15.5344 19.4648C14.5968 18.5274 13.3252 18.0009 11.9994 18.0009C10.6736 18.0009 9.40204 18.5274 8.4644 19.4648C8.28224 19.6534 8.18145 19.906 8.18373 20.1682C8.18601 20.4304 8.29117 20.6812 8.47658 20.8666C8.66199 21.052 8.9128 21.1572 9.175 21.1595C9.4372 21.1617 9.6898 21.061 9.8784 20.8788C10.4501 20.3338 11.2096 20.0298 11.9994 20.0298C12.7892 20.0298 13.5487 20.3338 14.1204 20.8788C14.3079 21.0663 14.5622 21.1716 14.8274 21.1716C15.0926 21.1716 15.3469 21.0663 15.5344 20.8788ZM18.3634 18.0508C18.5509 17.8633 18.6562 17.609 18.6562 17.3438C18.6562 17.0786 18.5509 16.8243 18.3634 16.6368C16.6743 14.9514 14.3856 14.0049 11.9994 14.0049C9.61325 14.0049 7.32453 14.9514 5.6354 16.6368C5.45324 16.8254 5.35245 17.078 5.35473 17.3402C5.35701 17.6024 5.46217 17.8532 5.64758 18.0386C5.83299 18.224 6.0838 18.3292 6.346 18.3315C6.6082 18.3337 6.8608 18.233 7.0494 18.0508C8.3636 16.7406 10.1437 16.0048 11.9994 16.0048C13.8551 16.0048 15.6352 16.7406 16.9494 18.0508C17.1369 18.2383 17.3912 18.3436 17.6564 18.3436C17.9216 18.3436 18.1759 18.2383 18.3634 18.0508ZM5.9864 22.1618C6.00755 22.0322 6.00296 21.8997 5.9729 21.7718C5.94283 21.644 5.88788 21.5233 5.81117 21.4167C5.73447 21.3101 5.63752 21.2197 5.52586 21.1505C5.4142 21.0814 5.29002 21.0349 5.1604 21.0138C4.40476 20.8943 3.70261 20.55 3.1454 20.0258C2.58819 19.5016 2.20175 18.8217 2.0364 18.0748C1.9288 17.3605 2.04657 16.6305 2.37332 15.9863C2.70006 15.3422 3.21953 14.8159 3.8594 14.4808C4.32003 14.228 4.66269 13.8042 4.81332 13.3008C4.96395 12.7975 4.91046 12.255 4.6644 11.7908C4.27556 11.0503 4.04585 10.2366 3.99001 9.40206C3.93416 8.56751 4.05342 7.73051 4.34013 6.94477C4.62684 6.15903 5.07466 5.44192 5.65486 4.83945C6.23505 4.23699 6.9348 3.76249 7.70919 3.4464C8.48357 3.13032 9.31549 2.97963 10.1516 3.00402C10.9876 3.0284 11.8093 3.22732 12.564 3.58801C13.3186 3.94869 13.9895 4.46317 14.5336 5.09843C15.0777 5.73368 15.483 6.47568 15.7234 7.27679C15.8714 7.7595 16.1351 8.19876 16.4915 8.55637C16.8479 8.91399 17.2862 9.17915 17.7684 9.32879C19.0748 9.72648 20.2054 10.5599 20.9718 11.6901C21.7383 12.8203 22.0942 14.179 21.9804 15.5398C21.891 16.5617 21.5268 17.5404 20.9265 18.3722C20.3262 19.204 19.5121 19.858 18.5704 20.2648C18.3372 20.3824 18.1593 20.5865 18.0746 20.8335C17.9899 21.0806 18.0053 21.351 18.1173 21.5868C18.2294 21.8227 18.4293 22.0054 18.6743 22.0959C18.9193 22.1863 19.19 22.1773 19.4284 22.0708C20.6912 21.5174 21.7807 20.6324 22.5812 19.5099C23.3818 18.3873 23.8635 17.069 23.9754 15.6948C24.1264 13.8805 23.651 12.0692 22.6283 10.563C21.6056 9.05683 20.0975 7.94672 18.3554 7.41779C18.1839 7.36449 18.0282 7.26957 17.9022 7.14151C17.7762 7.01344 17.6839 6.8562 17.6334 6.68379C17.104 4.98388 16.0227 3.50913 14.5606 2.49308C13.0985 1.47703 11.3393 0.977742 9.56149 1.07427C7.78367 1.1708 6.08884 1.85763 4.74539 3.02601C3.40193 4.1944 2.48663 5.77755 2.1444 7.52479C1.79481 9.29269 2.0698 11.1271 2.9224 12.7148C1.91741 13.2403 1.10126 14.066 0.587574 15.0771C0.0738831 16.0882 -0.11179 17.2343 0.056401 18.3558C0.284885 19.5239 0.865666 20.594 1.7206 21.4221C2.57554 22.2502 3.6636 22.7966 4.8384 22.9878C4.96802 23.0089 5.10053 23.0044 5.22837 22.9743C5.35621 22.9442 5.47688 22.8893 5.58348 22.8126C5.69009 22.7359 5.78054 22.6389 5.84967 22.5273C5.9188 22.4156 5.96526 22.2914 5.9864 22.1618Z" fill="#3D3D3D"/>
</g>
<defs>
<clipPath id="clip0_35229_57923">
<rect width="24" height="24" fill="white"/>
</clipPath>
</defs>
</svg>
