<svg width="24" height="24" viewBox="0 0 24 24" fill="none" xmlns="http://www.w3.org/2000/svg">
<g id="la:hot-tub">
<path id="Vector" d="M8.41425 3.28125C7.7925 4.0485 7.506 4.70475 7.5 5.34375C7.494 5.98275 7.77825 6.47775 7.96875 6.79725C8.15925 7.116 8.244 7.27725 8.25 7.45275C8.256 7.629 8.1975 7.9365 7.734 8.53125L8.90625 9.46875C9.492 8.71275 9.77025 8.03325 9.75 7.40625C9.72975 6.77925 9.4425 6.33075 9.258 6.02325C9.0735 5.71575 8.997 5.5515 9 5.367C9.003 5.1825 9.0825 4.83975 9.58575 4.21875L8.41425 3.28125ZM12.1642 3.28125C11.5425 4.0485 11.256 4.70475 11.25 5.34375C11.244 5.98275 11.5282 6.47775 11.7188 6.79725C11.9093 7.116 11.994 7.27725 12 7.45275C12.006 7.629 11.9475 7.9365 11.484 8.53125L12.6562 9.46875C13.242 8.71275 13.5203 8.03325 13.5 7.40625C13.4797 6.77925 13.1925 6.33075 13.008 6.02325C12.8235 5.71575 12.747 5.5515 12.75 5.367C12.753 5.1825 12.8325 4.83975 13.3358 4.21875L12.1642 3.28125ZM15.9142 3.28125C15.2925 4.0485 15.006 4.70475 15 5.34375C14.994 5.98275 15.2782 6.47775 15.4688 6.79725C15.6593 7.116 15.744 7.27725 15.75 7.45275C15.756 7.629 15.6975 7.9365 15.234 8.53125L16.4062 9.46875C16.992 8.71275 17.2703 8.03325 17.25 7.40625C17.2297 6.77925 16.9425 6.33075 16.758 6.02325C16.5735 5.71575 16.497 5.5515 16.5 5.367C16.503 5.1825 16.5825 4.83975 17.0858 4.21875L15.9142 3.28125ZM2.25 10.5V12H3.141L4.2885 17.6955V17.7188C4.37561 18.1012 4.5592 18.4549 4.82178 18.7462C5.08436 19.0375 5.41717 19.2568 5.7885 19.383L5.25 21H6.75L7.242 19.5H16.758L17.25 21H18.75L18.2108 19.383C18.996 19.143 19.6057 18.513 19.7812 17.7188V17.6955L20.8597 12H21.75V10.5H2.25ZM4.66425 12H19.359L18.3045 17.4142C18.2168 17.739 17.9415 18 17.5545 18H6.516C6.114 18 5.84175 17.7338 5.766 17.3903L4.66425 12Z" fill="#3D3D3D"/>
</g>
</svg>
