<svg width="24" height="24" viewBox="0 0 24 24" fill="none" xmlns="http://www.w3.org/2000/svg">
<g id="map:playground" clip-path="url(#clip0_17601_47900)">
<path id="Vector" d="M3.45982 14.9476C4.84462 14.9476 5.96494 13.7961 5.96494 12.371C5.96494 10.9536 4.84462 9.80156 3.45982 9.80156C2.08078 9.80156 0.960938 10.9536 0.960938 12.371C0.960938 13.7956 2.08078 14.9476 3.45982 14.9476ZM17.4902 19.3713C17.5172 19.3516 17.5479 19.3375 17.5804 19.3296C17.6129 19.3218 17.6467 19.3204 17.6797 19.3256C17.7127 19.3309 17.7444 19.3425 17.7729 19.36C17.8015 19.3775 17.8262 19.4004 17.8459 19.4275L18.3091 20.086C18.347 20.1433 18.3623 20.2127 18.352 20.2806C18.3417 20.3485 18.3066 20.4102 18.2534 20.4537L14.855 22.9915C14.8 23.0308 14.7318 23.0468 14.6651 23.0362C14.5984 23.0256 14.5385 22.9892 14.4984 22.9348L14.0366 22.2763C13.9987 22.2192 13.9834 22.15 13.9937 22.0822C14.004 22.0144 14.0391 21.9529 14.0923 21.9096L17.4902 19.3713ZM13.6488 16.0992L12.3009 13.6689L11.5934 14.2003L12.9413 16.6435L13.6488 16.0992ZM10.5043 10.4222L5.2627 0.959961L4.25998 0.966681L9.79054 10.9603L10.5043 10.4222ZM15.4392 15.4286C15.7353 15.2073 16.4131 14.88 16.8009 14.88H21.6009C22.5485 14.88 23.0409 15.8332 23.0409 16.8019C23.0409 17.7763 22.5485 18.24 21.6009 18.24H17.2809L12.0797 22.3209C10.2518 23.674 9.14398 22.1875 9.14398 22.1875L5.07214 17.9976C4.3891 17.1561 4.53694 15.5548 5.35582 14.8459L10.9905 10.7193C11.5502 10.2393 12.3811 10.3147 12.8553 10.884C13.3238 11.46 13.2499 12.3211 12.6893 12.802L9.08206 15.5174L11.6736 18.1497L15.4392 15.4286Z" fill="#3D3D3D"/>
</g>
<defs>
<clipPath id="clip0_17601_47900">
<rect width="24" height="24" fill="white"/>
</clipPath>
</defs>
</svg>
