<svg width="24" height="24" viewBox="0 0 24 24" fill="none" xmlns="http://www.w3.org/2000/svg">
<g id="material-symbols:soup-kitchen-outline">
<path id="Vector" d="M5.09933 13.5005C5.23266 13.3338 5.33266 13.1295 5.39933 12.8875C5.466 12.6455 5.49933 12.3498 5.49933 12.0005C5.49933 11.5005 5.33266 10.8672 4.99933 10.1005C4.666 9.33382 4.49933 8.75882 4.49933 8.37549C4.49933 8.17549 4.52033 7.96716 4.56233 7.75049C4.60433 7.53382 4.71666 7.28382 4.89933 7.00049H6.39933C6.216 7.28382 6.10333 7.53382 6.06133 7.75049C6.01933 7.96716 5.99866 8.17549 5.99933 8.37549C5.99933 8.75882 6.166 9.33382 6.49933 10.1005C6.83266 10.8672 6.99933 11.5005 6.99933 12.0005C6.99933 12.3505 6.966 12.6382 6.89933 12.8635C6.83266 13.0888 6.73266 13.3012 6.59933 13.5005H5.09933ZM11.5993 13.5005C11.7327 13.3338 11.8327 13.1295 11.8993 12.8875C11.966 12.6455 11.9993 12.3498 11.9993 12.0005C11.9993 11.5005 11.8327 10.8672 11.4993 10.1005C11.166 9.33382 10.9993 8.75882 10.9993 8.37549C10.9993 8.17549 11.0203 7.96716 11.0623 7.75049C11.1043 7.53382 11.2167 7.28382 11.3993 7.00049H12.8993C12.716 7.28382 12.6037 7.53382 12.5623 7.75049C12.521 7.96716 12.5 8.17549 12.4993 8.37549C12.4993 8.75882 12.666 9.33382 12.9993 10.1005C13.3327 10.8672 13.4993 11.5005 13.4993 12.0005C13.4993 12.3505 13.466 12.6382 13.3993 12.8635C13.3327 13.0888 13.2327 13.3012 13.0993 13.5005H11.5993ZM8.34933 13.5005C8.48266 13.3338 8.58266 13.1295 8.64933 12.8875C8.716 12.6455 8.74933 12.3498 8.74933 12.0005C8.74933 11.5005 8.58266 10.8672 8.24933 10.1005C7.916 9.33382 7.74933 8.75882 7.74933 8.37549C7.74933 8.17549 7.77033 7.96716 7.81233 7.75049C7.85433 7.53382 7.96666 7.28382 8.14933 7.00049H9.64933C9.466 7.28382 9.35366 7.53382 9.31233 7.75049C9.271 7.96716 9.25 8.17549 9.24933 8.37549C9.24933 8.75882 9.416 9.33382 9.74933 10.1005C10.0827 10.8672 10.2493 11.5005 10.2493 12.0005C10.2493 12.3505 10.216 12.6382 10.1493 12.8635C10.0827 13.0888 9.98266 13.3012 9.84933 13.5005H8.34933ZM9.74933 22.0005C8.066 22.0005 6.587 21.4378 5.31233 20.3125C4.03766 19.1872 3.26666 17.7915 2.99933 16.1255C2.966 15.8255 3.04933 15.5628 3.24933 15.3375C3.44933 15.1122 3.69933 14.9998 3.99933 15.0005H14.5243L15.6243 4.65049C15.7077 3.90049 16.0287 3.27116 16.5873 2.76249C17.146 2.25382 17.8167 1.99982 18.5993 2.00049C19.4327 2.00049 20.141 2.29216 20.7243 2.87549C21.3077 3.45882 21.5993 4.16716 21.5993 5.00049C21.5993 5.23382 21.5783 5.54216 21.5363 5.92549L21.4743 6.50049L19.4993 6.25049L19.5493 5.73749C19.5827 5.39616 19.5993 5.15049 19.5993 5.00049C19.5993 4.71716 19.5033 4.47949 19.3113 4.28749C19.1193 4.09549 18.882 3.99982 18.5993 4.00049C18.3327 4.00049 18.1077 4.08816 17.9243 4.26349C17.741 4.43882 17.6327 4.65116 17.5993 4.90049L16.4493 15.7755C16.266 17.5422 15.541 19.0215 14.2743 20.2135C13.0077 21.4055 11.4993 22.0012 9.74933 22.0005ZM9.74933 20.0005C10.7327 20.0005 11.616 19.7255 12.3993 19.1755C13.1827 18.6255 13.7493 17.9005 14.0993 17.0005H5.32433C5.70766 17.9005 6.295 18.6255 7.08633 19.1755C7.87766 19.7255 8.76533 20.0005 9.74933 20.0005Z" fill="#3D3D3D"/>
</g>
</svg>
