<svg width="24" height="24" viewBox="0 0 24 24" fill="none" xmlns="http://www.w3.org/2000/svg">
<g id="material-symbols:sauna">
<path id="Vector" d="M4 22C3.45 22 2.979 21.804 2.587 21.412C2.195 21.02 1.99934 20.5493 2 20V4C2 3.45 2.196 2.979 2.588 2.587C2.98 2.195 3.45067 1.99934 4 2H20C20.55 2 21.021 2.196 21.413 2.588C21.805 2.98 22.0007 3.45067 22 4V20C22 20.55 21.804 21.021 21.412 21.413C21.02 21.805 20.5493 22.0007 20 22H4ZM4 16V20H6V18H5V16H4ZM4 14H5C5 13.7167 5.096 13.479 5.288 13.287C5.48 13.095 5.71734 12.9993 6 13V10.5C6 10.0833 6.146 9.729 6.438 9.437C6.73 9.145 7.084 8.99934 7.5 9H9.5C9.91667 9 10.271 9.146 10.563 9.438C10.855 9.73 11.0007 10.084 11 10.5V13C11.2833 13 11.521 13.096 11.713 13.288C11.905 13.48 12.0007 13.7173 12 14H20V4H4V14ZM8.5 8C8.08334 8 7.729 7.854 7.437 7.562C7.145 7.27 6.99934 6.916 7 6.5C7 6.08334 7.146 5.729 7.438 5.437C7.73 5.145 8.084 4.99934 8.5 5C8.91667 5 9.271 5.146 9.563 5.438C9.855 5.73 10.0007 6.084 10 6.5C10 6.91667 9.854 7.271 9.562 7.563C9.27 7.855 8.916 8.00067 8.5 8ZM8 20H9V18H8V20ZM11 20H20V16H12V18H11V20ZM12.25 10C12.2833 9.78334 12.3043 9.62067 12.313 9.512C12.3217 9.40334 12.3257 9.291 12.325 9.175C12.325 8.99167 12.2873 8.81667 12.212 8.65C12.1367 8.48334 11.9827 8.25834 11.75 7.975C11.5 7.65834 11.3123 7.34167 11.187 7.025C11.0617 6.70834 10.9993 6.38334 11 6.05C11 5.91667 11.0083 5.77934 11.025 5.638L11.1 5H12.6C12.5667 5.18334 12.5417 5.35434 12.525 5.513C12.5083 5.67167 12.5 5.85067 12.5 6.05C12.5 6.23334 12.5377 6.41267 12.613 6.588C12.6883 6.76334 12.8173 6.95067 13 7.15C13.3 7.51667 13.5167 7.86267 13.65 8.188C13.7833 8.51333 13.85 8.84234 13.85 9.175C13.85 9.35834 13.8417 9.50834 13.825 9.625C13.8083 9.74167 13.7833 9.86667 13.75 10H12.25ZM14.75 10C14.7833 9.78334 14.8043 9.62067 14.813 9.512C14.8217 9.40334 14.8257 9.291 14.825 9.175C14.825 8.99167 14.7873 8.81667 14.712 8.65C14.6367 8.48334 14.4827 8.25834 14.25 7.975C14 7.65834 13.8123 7.34167 13.687 7.025C13.5617 6.70834 13.4993 6.38334 13.5 6.05C13.5 5.91667 13.5083 5.77934 13.525 5.638L13.6 5H15.1C15.0667 5.18334 15.0417 5.35434 15.025 5.513C15.0083 5.67167 15 5.85067 15 6.05C15 6.23334 15.0377 6.41267 15.113 6.588C15.1883 6.76334 15.3173 6.95067 15.5 7.15C15.8 7.51667 16.0167 7.86267 16.15 8.188C16.2833 8.51333 16.35 8.84234 16.35 9.175C16.35 9.35834 16.3417 9.50834 16.325 9.625C16.3083 9.74167 16.2833 9.86667 16.25 10H14.75ZM17.3 10C17.3333 9.78334 17.3543 9.62067 17.363 9.512C17.3717 9.40334 17.3757 9.291 17.375 9.175C17.375 8.99167 17.3373 8.81667 17.262 8.65C17.1867 8.48334 17.0327 8.25834 16.8 7.975C16.55 7.65834 16.3623 7.34167 16.237 7.025C16.1117 6.70834 16.0493 6.38334 16.05 6.05C16.05 5.91667 16.0583 5.77934 16.075 5.638L16.15 5H17.65C17.6167 5.18334 17.5917 5.35434 17.575 5.513C17.5583 5.67167 17.55 5.85067 17.55 6.05C17.55 6.23334 17.5877 6.41267 17.663 6.588C17.7383 6.76334 17.8673 6.95067 18.05 7.15C18.35 7.51667 18.5667 7.86267 18.7 8.188C18.8333 8.51333 18.9 8.84234 18.9 9.175C18.9 9.35834 18.8917 9.50834 18.875 9.625C18.8583 9.74167 18.8333 9.86667 18.8 10H17.3Z" fill="#3D3D3D"/>
</g>
</svg>
