<svg width="24" height="24" viewBox="0 0 24 24" fill="none" xmlns="http://www.w3.org/2000/svg">
<g id="material-symbols:local-car-wash-outline-sharp">
<path id="Vector" d="M12 5C11.5833 5 11.229 4.854 10.937 4.562C10.645 4.27 10.4993 3.916 10.5 3.5C10.5 3.15 10.621 2.775 10.863 2.375C11.105 1.975 11.484 1.51667 12 1C12.5167 1.51667 12.8957 1.975 13.137 2.375C13.3783 2.775 13.4993 3.15 13.5 3.5C13.5 3.91667 13.354 4.271 13.062 4.563C12.77 4.855 12.416 5.00067 12 5ZM7 5C6.58333 5 6.229 4.854 5.937 4.562C5.645 4.27 5.49933 3.916 5.5 3.5C5.5 3.15 5.621 2.775 5.863 2.375C6.105 1.975 6.484 1.51667 7 1C7.51667 1.51667 7.89567 1.975 8.137 2.375C8.37833 2.775 8.49933 3.15 8.5 3.5C8.5 3.91667 8.354 4.271 8.062 4.563C7.77 4.855 7.416 5.00067 7 5ZM17 5C16.5833 5 16.229 4.854 15.937 4.562C15.645 4.27 15.4993 3.916 15.5 3.5C15.5 3.15 15.621 2.775 15.863 2.375C16.105 1.975 16.484 1.51667 17 1C17.5167 1.51667 17.8957 1.975 18.137 2.375C18.3783 2.775 18.4993 3.15 18.5 3.5C18.5 3.91667 18.354 4.271 18.062 4.563C17.77 4.855 17.416 5.00067 17 5ZM6 21V23H3V14L5.45 7H18.55L21 14V23H18V21H6ZM5.8 12H18.2L17.15 9H6.85L5.8 12ZM7.5 18C7.91667 18 8.271 17.854 8.563 17.562C8.855 17.27 9.00067 16.916 9 16.5C9 16.0833 8.854 15.729 8.562 15.437C8.27 15.145 7.916 14.9993 7.5 15C7.08333 15 6.729 15.146 6.437 15.438C6.145 15.73 5.99933 16.084 6 16.5C6 16.9167 6.146 17.271 6.438 17.563C6.73 17.855 7.084 18.0007 7.5 18ZM16.5 18C16.9167 18 17.271 17.854 17.563 17.562C17.855 17.27 18.0007 16.916 18 16.5C18 16.0833 17.854 15.729 17.562 15.437C17.27 15.145 16.916 14.9993 16.5 15C16.0833 15 15.729 15.146 15.437 15.438C15.145 15.73 14.9993 16.084 15 16.5C15 16.9167 15.146 17.271 15.438 17.563C15.73 17.855 16.084 18.0007 16.5 18ZM5 19H19V14H5V19Z" fill="#3D3D3D"/>
</g>
</svg>
