<svg width="24" height="24" viewBox="0 0 24 24" fill="none" xmlns="http://www.w3.org/2000/svg">
<g id="material-symbols:wall-art-outline">
<path id="Vector" d="M4 22C3.45 22 2.979 21.804 2.587 21.412C2.195 21.02 1.99934 20.5493 2 20V8C2 7.45 2.196 6.979 2.588 6.587C2.98 6.195 3.45067 5.99933 4 6H8L12 2L16 6H20C20.55 6 21.021 6.196 21.413 6.588C21.805 6.98 22.0007 7.45067 22 8V20C22 20.55 21.804 21.021 21.412 21.413C21.02 21.805 20.5493 22.0007 20 22H4ZM4 20H20V8H4V20ZM6 18H18L14.25 13L11.25 17L9 14L6 18ZM17.5 13C17.9167 13 18.271 12.854 18.563 12.562C18.855 12.27 19.0007 11.916 19 11.5C19 11.0833 18.854 10.729 18.562 10.437C18.27 10.145 17.916 9.99933 17.5 10C17.0833 10 16.729 10.146 16.437 10.438C16.145 10.73 15.9993 11.084 16 11.5C16 11.9167 16.146 12.271 16.438 12.563C16.73 12.855 17.084 13.0007 17.5 13ZM10.1 6H13.9L12 4.1L10.1 6Z" fill="#3D3D3D"/>
</g>
</svg>
