<svg width="24" height="24" viewBox="0 0 24 24" fill="none" xmlns="http://www.w3.org/2000/svg">
<g id="material-symbols:concierge-outline-rounded">
<path id="Vector" d="M11 21.9992C10.7167 21.9992 10.479 21.9032 10.287 21.7112C10.095 21.5192 9.99934 21.2819 10 20.9992C10 20.7159 10.096 20.4782 10.288 20.2862C10.48 20.0942 10.7173 19.9986 11 19.9992H22C22.2833 19.9992 22.521 20.0952 22.713 20.2872C22.905 20.4792 23.0007 20.7166 23 20.9992C23 21.2826 22.904 21.5202 22.712 21.7122C22.52 21.9042 22.2827 21.9999 22 21.9992H11ZM11 18.9992C11 17.6492 11.425 16.4699 12.275 15.4612C13.125 14.4526 14.2 13.8319 15.5 13.5992V12.9742C15.5 12.6909 15.596 12.4536 15.788 12.2622C15.98 12.0709 16.2173 11.9749 16.5 11.9742C16.7833 11.9742 17.021 12.0702 17.213 12.2622C17.405 12.4542 17.5007 12.6916 17.5 12.9742V13.5992C18.7833 13.8326 19.8543 14.4536 20.713 15.4622C21.5717 16.4709 22.0007 17.6499 22 18.9992H11ZM13.625 16.9742H19.325C19.0083 16.5242 18.604 16.1616 18.112 15.8862C17.62 15.6109 17.0827 15.4736 16.5 15.4742C15.9 15.4742 15.35 15.6119 14.85 15.8872C14.35 16.1626 13.9417 16.5249 13.625 16.9742ZM1 10.9992V3.99922C1 3.44922 1.196 2.97822 1.588 2.58622C1.98 2.19422 2.45067 1.99855 3 1.99922H5C5.4 1.99922 5.8 2.14089 6.2 2.42422C6.6 2.70755 6.86667 3.04922 7 3.44922L13.425 1.64922C13.6083 1.59922 13.8 1.57422 14 1.57422C14.2 1.57422 14.3917 1.60755 14.575 1.67422L21.3 3.77422C21.5167 3.84089 21.6877 3.96189 21.813 4.13722C21.9383 4.31255 22.0007 4.50822 22 4.72422V4.99922C22 5.83255 21.7083 6.54089 21.125 7.12422C20.5417 7.70755 19.8333 7.99922 19 7.99922H17V8.59922C17 9.01589 16.879 9.39489 16.637 9.73622C16.395 10.0776 16.0827 10.3236 15.7 10.4742L9.3 12.8742C9.18334 12.9076 9.07067 12.9369 8.962 12.9622C8.85333 12.9876 8.73267 12.9999 8.6 12.9992H3C2.45 12.9992 1.979 12.8032 1.587 12.4112C1.195 12.0192 0.999335 11.5486 1 10.9992ZM3 7.49922V10.9992H5V3.99922H3V7.49922ZM7 8.24922V10.9992H8.6L14.4 8.87422C14.5833 8.80755 14.7293 8.69489 14.838 8.53622C14.9467 8.37755 15.0007 8.19855 15 7.99922H13.225L11.25 8.64922C10.9833 8.73255 10.729 8.71155 10.487 8.58622C10.245 8.46089 10.0827 8.25722 10 7.97522C9.91667 7.70855 9.93334 7.45855 10.05 7.22522C10.1667 6.99189 10.3583 6.83355 10.625 6.75022L12.825 6.00022H19C19.15 6.00022 19.3377 5.94622 19.563 5.83822C19.7883 5.73022 19.9007 5.60089 19.9 5.45022L13.95 3.59922L7 5.49922V8.24922Z" fill="#3D3D3D"/>
</g>
</svg>
