<svg width="24" height="24" viewBox="0 0 24 24" fill="none" xmlns="http://www.w3.org/2000/svg">
<g id="material-symbols:add-business-outline-rounded">
<path id="Vector" d="M17.9992 20H15.9992C15.7159 20 15.4782 19.904 15.2862 19.712C15.0942 19.52 14.9986 19.2827 14.9992 19C14.9992 18.7167 15.0952 18.479 15.2872 18.287C15.4792 18.095 15.7166 17.9993 15.9992 18H17.9992V16C17.9992 15.7167 18.0952 15.479 18.2872 15.287C18.4792 15.095 18.7166 14.9993 18.9992 15C19.2826 15 19.5202 15.096 19.7122 15.288C19.9042 15.48 19.9999 15.7173 19.9992 16V18H21.9992C22.2826 18 22.5202 18.096 22.7122 18.288C22.9042 18.48 22.9999 18.7173 22.9992 19C22.9992 19.2833 22.9032 19.521 22.7112 19.713C22.5192 19.905 22.2819 20.0007 21.9992 20H19.9992V22C19.9992 22.2833 19.9032 22.521 19.7112 22.713C19.5192 22.905 19.2819 23.0007 18.9992 23C18.7159 23 18.4782 22.904 18.2862 22.712C18.0942 22.52 17.9986 22.2827 17.9992 22V20ZM2.99922 20C2.71589 20 2.47822 19.904 2.28622 19.712C2.09422 19.52 1.99855 19.2827 1.99922 19V14H1.82422C1.50755 14 1.24922 13.879 1.04922 13.637C0.849219 13.395 0.782552 13.116 0.849219 12.8L1.84922 7.8C1.89922 7.56667 2.01589 7.375 2.19922 7.225C2.38255 7.075 2.59089 7 2.82422 7H16.1742C16.4076 7 16.6159 7.075 16.7992 7.225C16.9826 7.375 17.0992 7.56667 17.1492 7.8L18.1492 12.8C18.2159 13.1167 18.1492 13.396 17.9492 13.638C17.7492 13.88 17.4909 14.0007 17.1742 14H16.9992V16C16.9992 16.2833 16.9032 16.521 16.7112 16.713C16.5192 16.905 16.2819 17.0007 15.9992 17C15.7159 17 15.4782 16.904 15.2862 16.712C15.0942 16.52 14.9986 16.2827 14.9992 16V14H10.9992V19C10.9992 19.2833 10.9032 19.521 10.7112 19.713C10.5192 19.905 10.2819 20.0007 9.99922 20H2.99922ZM3.99922 18H8.99922V14H3.99922V18ZM2.99922 6C2.71589 6 2.47822 5.904 2.28622 5.712C2.09422 5.52 1.99855 5.28267 1.99922 5C1.99922 4.71667 2.09522 4.479 2.28722 4.287C2.47922 4.095 2.71655 3.99934 2.99922 4H15.9992C16.2826 4 16.5202 4.096 16.7122 4.288C16.9042 4.48 16.9999 4.71734 16.9992 5C16.9992 5.28334 16.9032 5.521 16.7112 5.713C16.5192 5.905 16.2819 6.00067 15.9992 6H2.99922ZM3.04922 12H15.9492L15.3492 9H3.64922L3.04922 12Z" fill="#3D3D3D"/>
</g>
</svg>
