<svg width="24" height="24" viewBox="0 0 24 24" fill="none" xmlns="http://www.w3.org/2000/svg">
<g id="mdi:smart-home">
<path id="Vector" d="M12 3L2 12H5V20H19V12H22L12 3ZM12 8.5C14.34 8.5 16.46 9.43 18 10.94L16.8 12.12C15.5208 10.8609 13.7949 10.1597 12 10.17C10.12 10.17 8.42 10.91 7.2 12.12L6 10.94C7.60206 9.37044 9.75721 8.49401 12 8.5ZM12 11.83C13.4 11.83 14.67 12.39 15.6 13.3L14.4 14.47C13.7586 13.8438 12.8964 13.4953 12 13.5C11.06 13.5 10.21 13.87 9.6 14.47L8.4 13.3C9.3606 12.3566 10.6536 11.8286 12 11.83ZM12 15.17C12.94 15.17 13.7 15.91 13.7 16.83C13.7 17.75 12.94 18.5 12 18.5C11.06 18.5 10.3 17.75 10.3 16.83C10.3 15.91 11.06 15.17 12 15.17Z" fill="#3D3D3D"/>
</g>
</svg>
