<svg width="10" height="17" viewBox="0 0 10 17" fill="none" xmlns="http://www.w3.org/2000/svg">
<g id="P 3">
<path id="Vector 85" d="M7.97954 14.4896L6.21758 10.6133L4.38009 12.1487L3.8515 8.14653L4.17873 12.1487C4.00253 12.4004 3.44877 12.4105 3.34809 12.1487C3.09638 10.4203 2.63827 6.93832 2.8195 6.83764C4.80801 7.59276 5.73934 5.67977 4.7325 4.47157C4.2962 3.46473 3.29775 1.65243 2.61814 1.30003C2.51745 0.947644 3.04603 0.544925 3.1719 0.645584C4.23747 1.58531 6.24274 3.99838 5.73933 6.13287L8.88569 13.1052C9.1945 13.758 9.84547 15.186 9.97888 15.6751C10.1123 16.1643 9.29332 16.6942 8.94128 16.4348L7.97954 14.4896Z" fill="#3D3D3D"/>
<path id="Vector 86" d="M2.79392 13.3815L3.67491 12.6767C3.0708 12.4754 2.97012 11.7706 2.99529 11.4434L1.56055 12.6012L2.5142 14.3079L2.79392 13.3815Z" fill="#3D3D3D"/>
<circle id="Ellipse 2593" cx="3.62378" cy="5.55396" r="1.25855" fill="#3D3D3D"/>
</g>
</svg>
