<svg width="24" height="24" viewBox="0 0 24 24" fill="none" xmlns="http://www.w3.org/2000/svg">
<g id="pepicons-pencil:bicycle-circle" clip-path="url(#clip0_17601_47939)">
<g id="Group">
<path id="Vector" fill-rule="evenodd" clip-rule="evenodd" d="M17.0766 19.8456C18.0559 19.8456 18.995 19.4565 19.6875 18.7641C20.3799 18.0717 20.7689 17.1325 20.7689 16.1532C20.7689 15.174 20.3799 14.2348 19.6875 13.5424C18.995 12.8499 18.0559 12.4609 17.0766 12.4609C16.0974 12.4609 15.1582 12.8499 14.4658 13.5424C13.7733 14.2348 13.3843 15.174 13.3843 16.1532C13.3843 17.1325 13.7733 18.0717 14.4658 18.7641C15.1582 19.4565 16.0974 19.8456 17.0766 19.8456ZM17.0766 13.384C17.8111 13.384 18.5154 13.6758 19.0348 14.1951C19.5541 14.7144 19.8459 15.4188 19.8459 16.1532C19.8459 16.8877 19.5541 17.5921 19.0348 18.1114C18.5154 18.6307 17.8111 18.9225 17.0766 18.9225C16.3422 18.9225 15.6378 18.6307 15.1185 18.1114C14.5991 17.5921 14.3074 16.8877 14.3074 16.1532C14.3074 15.4188 14.5991 14.7144 15.1185 14.1951C15.6378 13.6758 16.3422 13.384 17.0766 13.384ZM6.92278 19.8456C7.90204 19.8456 8.84119 19.4565 9.53363 18.7641C10.2261 18.0717 10.6151 17.1325 10.6151 16.1532C10.6151 15.174 10.2261 14.2348 9.53363 13.5424C8.84119 12.8499 7.90204 12.4609 6.92278 12.4609C5.94352 12.4609 5.00436 12.8499 4.31192 13.5424C3.61948 14.2348 3.23047 15.174 3.23047 16.1532C3.23047 17.1325 3.61948 18.0717 4.31192 18.7641C5.00436 19.4565 5.94352 19.8456 6.92278 19.8456ZM6.92278 13.384C7.65722 13.384 8.36159 13.6758 8.88092 14.1951C9.40025 14.7144 9.69201 15.4188 9.69201 16.1532C9.69201 16.8877 9.40025 17.5921 8.88092 18.1114C8.36159 18.6307 7.65722 18.9225 6.92278 18.9225C6.18833 18.9225 5.48397 18.6307 4.96463 18.1114C4.4453 17.5921 4.15355 16.8877 4.15355 16.1532C4.15355 15.4188 4.4453 14.7144 4.96463 14.1951C5.48397 13.6758 6.18833 13.384 6.92278 13.384Z" fill="#3D3D3D"/>
<path id="Vector_2" d="M7.38341 7.38401C7.26101 7.38401 7.14361 7.33539 7.05706 7.24883C6.9705 7.16228 6.92188 7.04488 6.92188 6.92248C6.92188 6.80007 6.9705 6.68267 7.05706 6.59612C7.14361 6.50956 7.26101 6.46094 7.38341 6.46094H11.0757C11.1981 6.46094 11.3155 6.50956 11.4021 6.59612C11.4886 6.68267 11.5373 6.80007 11.5373 6.92248C11.5373 7.04488 11.4886 7.16228 11.4021 7.24883C11.3155 7.33539 11.1981 7.38401 11.0757 7.38401H7.38341Z" fill="#3D3D3D"/>
<path id="Vector_3" fill-rule="evenodd" clip-rule="evenodd" d="M12.4369 16.0077L12.4046 15.9117L16.0822 10.0455C16.1256 9.97565 16.1496 9.89547 16.1516 9.81325C16.1536 9.73103 16.1337 9.64976 16.0938 9.57784C16.0538 9.50593 15.9954 9.44599 15.9246 9.40422C15.8537 9.36245 15.773 9.34037 15.6908 9.34027H10.2354L9.38893 6.77781C9.35049 6.66152 9.26744 6.56526 9.15803 6.51021C9.04863 6.45516 8.92183 6.44583 8.80555 6.48427C8.68926 6.5227 8.593 6.60576 8.53795 6.71517C8.4829 6.82457 8.47357 6.95137 8.51201 7.06765L9.50155 10.063L6.51078 15.944C6.47516 16.0143 6.45813 16.0925 6.46131 16.1712C6.4645 16.25 6.48779 16.3266 6.52898 16.3938C6.57016 16.461 6.62786 16.5165 6.69657 16.5551C6.76529 16.5936 6.84274 16.614 6.92155 16.6141H11.9985C12.0715 16.6142 12.1436 16.5969 12.2086 16.5636C12.2737 16.5304 12.33 16.4822 12.3728 16.423C12.4156 16.3638 12.4437 16.2953 12.4549 16.223C12.466 16.1508 12.4599 16.077 12.4369 16.0077ZM7.67385 15.691H11.3597L9.90862 11.2972L7.67478 15.691H7.67385ZM10.5391 10.2624L12.0289 14.7735L14.8563 10.2624H10.54H10.5391Z" fill="#3D3D3D"/>
<path id="Vector_4" d="M15.2702 5.53694C15.209 5.54373 15.1471 5.5382 15.0881 5.5207C15.0291 5.50319 14.9742 5.47406 14.9266 5.43501C14.879 5.39597 14.8397 5.3478 14.811 5.29335C14.7823 5.23889 14.7648 5.17924 14.7595 5.11792C14.7542 5.0566 14.7613 4.99483 14.7802 4.93626C14.7991 4.87769 14.8296 4.8235 14.8698 4.77688C14.9099 4.73026 14.959 4.69215 15.0142 4.66478C15.0693 4.63742 15.1294 4.62137 15.1908 4.61756C18.5647 4.32587 20.3065 4.67387 20.3065 5.99941C20.3065 7.1671 19.4683 7.79571 18.0145 7.84556C17.9539 7.84762 17.8935 7.83772 17.8367 7.81643C17.7799 7.79514 17.7279 7.76288 17.6835 7.72147C17.5941 7.63786 17.5414 7.52212 17.5373 7.39971C17.5331 7.27731 17.5777 7.15826 17.6614 7.06876C17.745 6.97926 17.8607 6.92665 17.9831 6.92248C18.9911 6.88833 19.3834 6.59387 19.3834 5.99941C19.3834 5.56187 18.0496 5.2951 15.2693 5.53602L15.2702 5.53694Z" fill="#3D3D3D"/>
<path id="Vector_5" d="M15.6856 5.00178L17.5318 16.0787C17.6333 16.6852 16.7222 16.8375 16.6216 16.2301L14.7755 5.15317C14.6739 4.54671 15.585 4.3944 15.6856 5.00178Z" fill="#3D3D3D"/>
<path id="Vector_6" fill-rule="evenodd" clip-rule="evenodd" d="M11.9994 22.6148C17.8619 22.6148 22.6148 17.8619 22.6148 11.9994C22.6148 6.13694 17.8619 1.38401 11.9994 1.38401C6.13694 1.38401 1.38401 6.13694 1.38401 11.9994C1.38401 17.8619 6.13694 22.6148 11.9994 22.6148ZM11.9994 23.5379C18.3723 23.5379 23.5379 18.3723 23.5379 11.9994C23.5379 5.62648 18.3723 0.460938 11.9994 0.460938C5.62648 0.460938 0.460938 5.62648 0.460938 11.9994C0.460938 18.3723 5.62648 23.5379 11.9994 23.5379Z" fill="#3D3D3D"/>
</g>
</g>
<defs>
<clipPath id="clip0_17601_47939">
<rect width="24" height="24" fill="white"/>
</clipPath>
</defs>
</svg>
