<svg width="24" height="24" viewBox="0 0 24 24" fill="none" xmlns="http://www.w3.org/2000/svg">
<g id="ph:boat-fill">
<path id="Vector" d="M20.7244 10.3716L19.5 9.96281V5.25C19.5 4.85218 19.342 4.47064 19.0607 4.18934C18.7794 3.90804 18.3978 3.75 18 3.75H12.75V2.25C12.75 2.05109 12.671 1.86032 12.5303 1.71967C12.3897 1.57902 12.1989 1.5 12 1.5C11.8011 1.5 11.6103 1.57902 11.4697 1.71967C11.329 1.86032 11.25 2.05109 11.25 2.25V3.75H6C5.60218 3.75 5.22065 3.90804 4.93934 4.18934C4.65804 4.47064 4.5 4.85218 4.5 5.25V9.96281L3.27563 10.3716C2.9768 10.4712 2.71691 10.6623 2.53282 10.918C2.34873 11.1736 2.24978 11.4806 2.25 11.7956V15.0094C2.2498 15.0789 2.25959 15.148 2.27907 15.2147C3.75282 20.3794 10.3528 22.1578 11.6606 22.4616C11.884 22.5128 12.116 22.5128 12.3394 22.4616C13.6472 22.1578 20.2472 20.3794 21.7209 15.2147C21.7404 15.148 21.7502 15.0789 21.75 15.0094V11.7956C21.7502 11.4806 21.6513 11.1736 21.4672 10.918C21.2831 10.6623 21.0232 10.4712 20.7244 10.3716ZM12.75 15.75C12.75 15.9489 12.671 16.1397 12.5303 16.2803C12.3897 16.421 12.1989 16.5 12 16.5C11.8011 16.5 11.6103 16.421 11.4697 16.2803C11.329 16.1397 11.25 15.9489 11.25 15.75V10.5C11.25 10.3011 11.329 10.1103 11.4697 9.96967C11.6103 9.82902 11.8011 9.75 12 9.75C12.1989 9.75 12.3897 9.82902 12.5303 9.96967C12.671 10.1103 12.75 10.3011 12.75 10.5V15.75ZM18 9.46219L12.2372 7.53844C12.0832 7.48711 11.9168 7.48711 11.7628 7.53844L6 9.46219V5.25H18V9.46219Z" fill="#3D3D3D"/>
</g>
</svg>
