<svg width="24" height="24" viewBox="0 0 24 24" fill="none" xmlns="http://www.w3.org/2000/svg">
<g id="ph:game-controller-light">
<path id="Vector" d="M16.4999 10.3125H14.2499C14.1007 10.3125 13.9576 10.2532 13.8521 10.1477C13.7466 10.0423 13.6874 9.89918 13.6874 9.75C13.6874 9.60082 13.7466 9.45774 13.8521 9.35225C13.9576 9.24676 14.1007 9.1875 14.2499 9.1875H16.4999C16.649 9.1875 16.7921 9.24676 16.8976 9.35225C17.0031 9.45774 17.0624 9.60082 17.0624 9.75C17.0624 9.89918 17.0031 10.0423 16.8976 10.1477C16.7921 10.2532 16.649 10.3125 16.4999 10.3125ZM9.74985 9.1875H8.81235V8.25C8.81235 8.10082 8.75309 7.95774 8.6476 7.85225C8.54211 7.74676 8.39904 7.6875 8.24985 7.6875C8.10067 7.6875 7.95759 7.74676 7.85211 7.85225C7.74662 7.95774 7.68735 8.10082 7.68735 8.25V9.1875H6.74985C6.60067 9.1875 6.45759 9.24676 6.3521 9.35225C6.24662 9.45774 6.18735 9.60082 6.18735 9.75C6.18735 9.89918 6.24662 10.0423 6.3521 10.1477C6.45759 10.2532 6.60067 10.3125 6.74985 10.3125H7.68735V11.25C7.68735 11.3992 7.74662 11.5423 7.85211 11.6477C7.95759 11.7532 8.10067 11.8125 8.24985 11.8125C8.39904 11.8125 8.54211 11.7532 8.6476 11.6477C8.75309 11.5423 8.81235 11.3992 8.81235 11.25V10.3125H9.74985C9.89904 10.3125 10.0421 10.2532 10.1476 10.1477C10.2531 10.0423 10.3124 9.89918 10.3124 9.75C10.3124 9.60082 10.2531 9.45774 10.1476 9.35225C10.0421 9.24676 9.89904 9.1875 9.74985 9.1875ZM22.4849 18.7031C22.1911 19.1228 21.8004 19.4654 21.3461 19.702C20.8918 19.9387 20.3871 20.0623 19.8749 20.0625C19.0312 20.0606 18.2224 19.7253 17.6249 19.1297L17.6005 19.1034L13.8167 14.8125H10.183L6.40391 19.1025L6.37485 19.125C5.77868 19.7232 4.96944 20.0604 4.12485 20.0625C3.65953 20.0622 3.19992 19.96 2.7783 19.7631C2.35668 19.5662 1.98328 19.2794 1.68433 18.9229C1.38538 18.5663 1.16812 18.1486 1.04782 17.6991C0.927519 17.2496 0.907093 16.7792 0.987977 16.3209C0.987977 16.3209 0.987977 16.3153 0.987977 16.3116L2.52173 8.42625C2.7424 7.16928 3.39897 6.03028 4.37608 5.20936C5.3532 4.38844 6.58835 3.93812 7.86454 3.9375H16.1249C17.3977 3.93912 18.6298 4.38672 19.607 5.2025C20.5841 6.01828 21.2444 7.15066 21.4733 8.40281V8.42062L23.0117 16.3125V16.3228C23.0857 16.7347 23.0772 17.1572 22.9867 17.5658C22.8963 17.9743 22.7257 18.3609 22.4849 18.7031ZM16.1249 13.6875C17.2686 13.6875 18.3655 13.2331 19.1742 12.4244C19.983 11.6156 20.4374 10.5187 20.4374 9.375C20.4374 8.23125 19.983 7.13435 19.1742 6.3256C18.3655 5.51685 17.2686 5.0625 16.1249 5.0625H7.86454C6.85228 5.06327 5.87269 5.42088 5.098 6.07245C4.32332 6.72402 3.80314 7.62784 3.62891 8.625C3.62848 8.62811 3.62848 8.63127 3.62891 8.63437L2.09329 16.5216C2.01833 16.952 2.082 17.3951 2.2751 17.787C2.46821 18.1789 2.78078 18.4994 3.16775 18.7022C3.55473 18.905 3.99611 18.9797 4.42827 18.9155C4.86044 18.8513 5.26105 18.6516 5.57235 18.345L9.50985 13.8778C9.56291 13.8185 9.62794 13.7711 9.70067 13.7388C9.77339 13.7065 9.85215 13.6899 9.93173 13.6903L16.1249 13.6875ZM21.9064 16.5216L20.9886 11.8012C20.5372 12.7051 19.8432 13.4655 18.9842 13.9973C18.1252 14.5291 17.1351 14.8114 16.1249 14.8125H15.3158L18.4274 18.345C18.7387 18.6516 19.1393 18.8513 19.5714 18.9155C20.0036 18.9797 20.445 18.905 20.832 18.7022C21.2189 18.4994 21.5315 18.1789 21.7246 17.787C21.9177 17.3951 21.9814 16.952 21.9064 16.5216Z" fill="#3D3D3D"/>
</g>
</svg>
