<svg width="24" height="25" viewBox="0 0 24 25" fill="none" xmlns="http://www.w3.org/2000/svg">
<g id="Pickleball">
<path id="Vector 84" d="M18.0465 19.3591L14.2731 15.9372L13.945 20.1559C13.945 20.1559 9.60902 23.8051 9.18714 23.9528C8.76527 24.1004 7.2887 23.4137 7.94495 22.359C8.6012 21.3044 11.8825 19.1247 11.8825 19.1247L10.8981 10.9919L8.83558 12.7497L5.48402 12.1403C5.42933 12.2028 5.29652 12.3372 5.20277 12.3747C5.10902 12.4122 5.0387 12.1715 5.01527 12.0465C4.07777 11.8403 4.23402 11.1637 4.42933 10.8512C4.48559 10.645 3.35902 10.2653 2.7887 10.1012C2.4762 9.46841 1.82307 8.15123 1.71057 7.94498C1.59807 7.73873 1.75744 7.37466 1.85119 7.21841C2.16369 6.97623 2.91526 6.4356 3.42151 6.2106C3.92776 5.9856 4.25744 6.24185 4.35901 6.3981L5.4137 8.48404V8.90591C4.98245 9.44966 5.04652 10.3825 5.13245 10.7809L8.50745 11.2965L10.9918 9.18717L14.5309 8.60123L21.4215 4.24189C22.3028 3.97939 22.4762 4.80435 22.1715 5.2497L15.2809 9.63251L16.1246 14.3435L20.0856 18.3044L20.7653 23.1325C20.4465 24.4263 19.1012 24.2575 18.6793 23.3903L18.0465 19.3591Z" fill="#3D3D3D"/>
<circle id="Ellipse 2587" cx="12.4688" cy="6.51562" r="1.875" fill="#3D3D3D"/>
<path id="Subtract" fill-rule="evenodd" clip-rule="evenodd" d="M18.7173 1.52259C18.5685 1.76228 18.3029 1.92188 18 1.92188C17.9346 1.92188 17.871 1.91444 17.8099 1.90037C17.8398 1.87914 17.8594 1.8442 17.8594 1.80469C17.8594 1.73997 17.8069 1.6875 17.7422 1.6875C17.6775 1.6875 17.625 1.73997 17.625 1.80469C17.625 1.81564 17.6265 1.82624 17.6293 1.8363C17.3492 1.69907 17.1562 1.41112 17.1562 1.07812C17.1562 0.612135 17.534 0.234375 18 0.234375C18.0782 0.234375 18.1539 0.245014 18.2258 0.264922C18.2023 0.286355 18.1875 0.317235 18.1875 0.351562C18.1875 0.416283 18.24 0.46875 18.3047 0.46875C18.3694 0.46875 18.4219 0.416283 18.4219 0.351562L18.4218 0.347208C18.674 0.493085 18.8438 0.765786 18.8438 1.07812C18.8438 1.17048 18.8289 1.25936 18.8015 1.34253C18.7806 1.31035 18.7443 1.28906 18.7031 1.28906C18.6384 1.28906 18.5859 1.34153 18.5859 1.40625C18.5859 1.47097 18.6384 1.52344 18.7031 1.52344C18.7079 1.52344 18.7127 1.52315 18.7173 1.52259ZM17.7422 0.984375C17.7422 1.0491 17.6897 1.10156 17.625 1.10156C17.5603 1.10156 17.5078 1.0491 17.5078 0.984375C17.5078 0.919654 17.5603 0.867188 17.625 0.867188C17.6897 0.867188 17.7422 0.919654 17.7422 0.984375Z" fill="#3D3D3D"/>
</g>
</svg>
