<svg width="24" height="24" viewBox="0 0 24 24" fill="none" xmlns="http://www.w3.org/2000/svg">
<g clip-path="url(#clip0_14705_8746)">
<path d="M24.0005 11C23.9975 10.2339 23.7015 9.498 23.1732 8.94316C22.645 8.38832 21.9245 8.0566 21.1595 8.016C20.1573 5.69436 18.3061 3.84321 15.9845 2.841C15.9439 2.07598 15.6121 1.35548 15.0573 0.827234C14.5025 0.298983 13.7666 0.0030094 13.0005 0H11.0005C10.2344 0.0030094 9.49848 0.298983 8.94364 0.827234C8.3888 1.35548 8.05707 2.07598 8.01647 2.841C5.695 3.84346 3.84393 5.69453 2.84147 8.016C2.1335 8.05055 1.46092 8.3359 0.944099 8.821C0.42728 9.3061 0.0999481 9.95927 0.0206823 10.6636C-0.0585835 11.368 0.11539 12.0776 0.511469 12.6654C0.907548 13.2533 1.49988 13.681 2.18247 13.872C2.46624 15.3815 3.09517 16.805 4.02011 18.0313C4.94506 19.2576 6.14099 20.2534 7.51447 20.941L7.03447 22.741C6.96608 22.9972 7.00225 23.2701 7.13502 23.4996C7.26779 23.7291 7.48629 23.8965 7.74247 23.965C7.8266 23.9877 7.91332 23.9995 8.00047 24C8.22073 24 8.43481 23.9272 8.60948 23.7931C8.78415 23.6589 8.90965 23.4708 8.96647 23.258L9.40047 21.652C11.1065 22.116 12.9055 22.116 14.6115 21.652L15.0395 23.258C15.1114 23.5103 15.2796 23.7242 15.5077 23.8536C15.7359 23.9831 16.0058 24.0177 16.2592 23.95C16.5126 23.8823 16.7293 23.7177 16.8626 23.4918C16.9958 23.2658 17.0349 22.9965 16.9715 22.742L16.4915 20.942C17.8648 20.2538 19.0606 19.2577 19.9857 18.0313C20.9107 16.805 21.54 15.3815 21.8245 13.872C22.4498 13.6944 23.0003 13.3181 23.3929 12.8C23.7854 12.2819 23.9987 11.65 24.0005 11ZM11.0005 2H13.0005C13.2657 2 13.52 2.10536 13.7076 2.29289C13.8951 2.48043 14.0005 2.73478 14.0005 3C14.0005 3.26522 13.8951 3.51957 13.7076 3.70711C13.52 3.89464 13.2657 4 13.0005 4H11.0005C10.7353 4 10.4809 3.89464 10.2934 3.70711C10.1058 3.51957 10.0005 3.26522 10.0005 3C10.0005 2.73478 10.1058 2.48043 10.2934 2.29289C10.4809 2.10536 10.7353 2 11.0005 2ZM3.00047 10H5.00047C5.26569 10 5.52004 10.1054 5.70758 10.2929C5.89511 10.4804 6.00047 10.7348 6.00047 11C6.00047 11.2652 5.89511 11.5196 5.70758 11.7071C5.52004 11.8946 5.26569 12 5.00047 12H3.00047C2.73525 12 2.4809 11.8946 2.29336 11.7071C2.10583 11.5196 2.00047 11.2652 2.00047 11C2.00047 10.7348 2.10583 10.4804 2.29336 10.2929C2.4809 10.1054 2.73525 10 3.00047 10ZM12.0005 20C11.2945 19.999 10.5918 19.9049 9.91047 19.72L11.6105 13.356C11.6334 13.2691 11.6845 13.1923 11.7556 13.1375C11.8268 13.0827 11.9141 13.053 12.004 13.053C12.0938 13.053 12.1811 13.0827 12.2523 13.1375C12.3235 13.1923 12.3745 13.2691 12.3975 13.356L14.0975 19.72C13.4139 19.9054 12.7088 19.9995 12.0005 20ZM15.9555 18.951L14.3255 12.841C14.1931 12.3263 13.8922 11.8708 13.4709 11.5469C13.0495 11.223 12.5319 11.0495 12.0005 11.054C11.4689 11.0493 10.951 11.2227 10.5295 11.5466C10.1079 11.8705 9.80691 12.3261 9.67447 12.841L8.04547 18.951C7.11406 18.4227 6.29879 17.7119 5.64844 16.8612C4.99809 16.0105 4.52602 15.0374 4.26047 14H5.00047C5.76973 13.972 6.49882 13.6495 7.03688 13.099C7.57495 12.5485 7.88083 11.8122 7.89123 11.0425C7.90164 10.2728 7.61577 9.52858 7.09278 8.96375C6.56979 8.39892 5.8497 8.05674 5.08147 8.008C5.89823 6.5998 7.12035 5.47037 8.58847 4.767C8.86502 5.14793 9.22763 5.45816 9.64677 5.67243C10.0659 5.88669 10.5297 5.99893 11.0005 6H13.0005C13.4712 5.99901 13.9351 5.88681 14.3542 5.67254C14.7734 5.45827 15.136 5.14799 15.4125 4.767C16.8804 5.47023 18.1023 6.59971 18.9185 8.008C18.1502 8.05684 17.4302 8.39913 16.9072 8.96405C16.3843 9.52896 16.0985 10.2733 16.1091 11.043C16.1196 11.8127 16.4256 12.549 16.9638 13.0993C17.502 13.6497 18.2312 13.9722 19.0005 14H19.7405C19.4746 15.0372 19.0024 16.0102 18.3521 16.8609C17.7018 17.7116 16.8867 18.4224 15.9555 18.951ZM21.0005 12H19.0005C18.7353 12 18.4809 11.8946 18.2934 11.7071C18.1058 11.5196 18.0005 11.2652 18.0005 11C18.0005 10.7348 18.1058 10.4804 18.2934 10.2929C18.4809 10.1054 18.7353 10 19.0005 10H21.0005C21.2657 10 21.52 10.1054 21.7076 10.2929C21.8951 10.4804 22.0005 10.7348 22.0005 11C22.0005 11.2652 21.8951 11.5196 21.7076 11.7071C21.52 11.8946 21.2657 12 21.0005 12Z" fill="#3D3D3D"/>
</g>
<defs>
<clipPath id="clip0_14705_8746">
<rect width="24" height="24" fill="white"/>
</clipPath>
</defs>
</svg>
