<svg width="24" height="24" viewBox="0 0 24 24" fill="none" xmlns="http://www.w3.org/2000/svg">
<g id="ph:recycle-light">
<path id="Vector" d="M8.81344 19.5003C8.81344 19.6495 8.75417 19.7926 8.64868 19.8981C8.54319 20.0035 8.40012 20.0628 8.25094 20.0628H3.75094C3.38931 20.0619 3.03427 19.966 2.72141 19.7846C2.40856 19.6033 2.14889 19.3428 1.96845 19.0294C1.78801 18.716 1.69314 18.3607 1.69336 17.9991C1.69358 17.6374 1.78887 17.2822 1.96969 16.9691L5.41125 11.0216L3.6525 11.4903C3.50829 11.5288 3.35467 11.5085 3.22545 11.4338C3.09622 11.3591 3.00197 11.2361 2.96344 11.0919C2.9249 10.9477 2.94522 10.794 3.01994 10.6648C3.09467 10.5356 3.21766 10.4413 3.36187 10.4028L6.43406 9.58061C6.50572 9.56108 6.58053 9.55593 6.65419 9.56546C6.72785 9.57499 6.79889 9.59902 6.86321 9.63615C6.92753 9.67328 6.98387 9.72278 7.02896 9.78179C7.07405 9.84081 7.10701 9.90817 7.12594 9.97999L7.95094 13.0512C7.97008 13.1226 7.97498 13.197 7.96537 13.2702C7.95575 13.3435 7.93181 13.4141 7.8949 13.4781C7.85798 13.5421 7.80883 13.5982 7.75024 13.6432C7.69166 13.6881 7.62478 13.7212 7.55344 13.7403C7.50574 13.7532 7.45658 13.7598 7.40719 13.76C7.28341 13.7599 7.16314 13.7189 7.065 13.6435C6.96687 13.5681 6.89635 13.4624 6.86437 13.3428L6.39562 11.5803L2.94281 17.5316C2.86069 17.6738 2.81737 17.8351 2.81721 17.9994C2.81704 18.1636 2.86003 18.325 2.94186 18.4674C3.0237 18.6098 3.14151 18.7282 3.28351 18.8108C3.4255 18.8933 3.58669 18.9371 3.75094 18.9378H8.25094C8.40012 18.9378 8.54319 18.9971 8.64868 19.1026C8.75417 19.208 8.81344 19.3511 8.81344 19.5003ZM22.0322 16.9691L19.8628 13.2191C19.785 13.0966 19.6628 13.009 19.5219 12.9745C19.381 12.94 19.2322 12.9612 19.1066 13.0338C18.981 13.1064 18.8883 13.2248 18.8479 13.3641C18.8075 13.5034 18.8224 13.653 18.8897 13.7816L21.0591 17.5316C21.1412 17.6738 21.1845 17.8351 21.1847 17.9994C21.1848 18.1636 21.1418 18.325 21.06 18.4674C20.9782 18.6098 20.8604 18.7282 20.7184 18.8108C20.5764 18.8933 20.4152 18.9371 20.2509 18.9378H13.3584L14.6484 17.6478C14.7478 17.5412 14.8019 17.4001 14.7993 17.2544C14.7967 17.1087 14.7377 16.9696 14.6347 16.8666C14.5316 16.7635 14.3926 16.7045 14.2468 16.7019C14.1011 16.6994 13.9601 16.7534 13.8534 16.8528L11.6034 19.1028C11.4981 19.2083 11.4389 19.3512 11.4389 19.5003C11.4389 19.6494 11.4981 19.7923 11.6034 19.8978L13.8534 22.1478C13.9601 22.2472 14.1011 22.3013 14.2468 22.2987C14.3926 22.2961 14.5316 22.2371 14.6347 22.134C14.7377 22.031 14.7967 21.8919 14.7993 21.7462C14.8019 21.6005 14.7478 21.4594 14.6484 21.3528L13.3584 20.0628H20.2509C20.6126 20.0619 20.9676 19.966 21.2805 19.7846C21.5933 19.6033 21.853 19.3428 22.0334 19.0294C22.2139 18.716 22.3087 18.3607 22.3085 17.9991C22.3083 17.6374 22.213 17.2822 22.0322 16.9691ZM12.8119 3.28155L16.2544 9.22905L14.4956 8.7603C14.3559 8.73294 14.2109 8.75962 14.09 8.83495C13.9692 8.91028 13.8814 9.02866 13.8444 9.16619C13.8074 9.30372 13.8239 9.45017 13.8907 9.57598C13.9574 9.70179 14.0694 9.79759 14.2041 9.84405L17.2772 10.6681C17.4213 10.7065 17.5747 10.686 17.7037 10.6113C17.8327 10.5366 17.9268 10.4137 17.9653 10.2697L18.7894 7.19655C18.8119 7.12422 18.8197 7.04808 18.8121 6.9727C18.8045 6.89731 18.7818 6.82423 18.7452 6.75785C18.7087 6.69146 18.6592 6.63314 18.5996 6.58638C18.5399 6.53962 18.4715 6.50539 18.3983 6.48574C18.3251 6.46609 18.2487 6.46142 18.1737 6.47202C18.0987 6.48262 18.0266 6.50827 17.9617 6.54742C17.8969 6.58657 17.8406 6.63843 17.7962 6.69987C17.7519 6.76132 17.7205 6.83109 17.7037 6.90499L17.2303 8.66936L13.7822 2.71905C13.6005 2.40781 13.3405 2.14961 13.0279 1.97016C12.7154 1.79072 12.3613 1.69629 12.0009 1.69629C11.6406 1.69629 11.2865 1.79072 10.9739 1.97016C10.6614 2.14961 10.4014 2.40781 10.2197 2.71905L8.04469 6.46905C7.97331 6.59803 7.95541 6.74987 7.99485 6.8919C8.03428 7.03393 8.1279 7.15481 8.25555 7.22853C8.3832 7.30225 8.53469 7.32291 8.67742 7.28607C8.82015 7.24923 8.94272 7.15784 9.01875 7.03155L11.19 3.28155C11.2724 3.13948 11.3907 3.02156 11.533 2.93958C11.6753 2.85761 11.8367 2.81446 12.0009 2.81446C12.1652 2.81446 12.3265 2.85761 12.4689 2.93958C12.6112 3.02156 12.7295 3.13948 12.8119 3.28155Z" fill="#3D3D3D"/>
</g>
</svg>
