<svg width="24" height="24" viewBox="0 0 24 24" fill="none" xmlns="http://www.w3.org/2000/svg">
<g id="ic:round-app-shortcut">
<path id="Vector" d="M17 18H7V6H17V7H19V3C19 1.9 18.1 1 17 1H7C5.9 1 5 1.9 5 3V21C5 22.1 5.9 23 7 23H17C18.1 23 19 22.1 19 21V17H17V18ZM20.38 9.62L20.78 10.49C20.87 10.69 21.15 10.69 21.24 10.49L21.64 9.62L22.51 9.22C22.71 9.13 22.71 8.85 22.51 8.76L21.64 8.36L21.24 7.49C21.15 7.29 20.87 7.29 20.78 7.49L20.38 8.36L19.51 8.76C19.31 8.85 19.31 9.13 19.51 9.22L20.38 9.62Z" fill="#3D3D3D"/>
<path id="Vector_2" d="M15.5397 8.99948L14.7497 10.7495L12.9997 11.5395C12.9124 11.5792 12.8384 11.6433 12.7865 11.724C12.7346 11.8046 12.707 11.8985 12.707 11.9945C12.707 12.0904 12.7346 12.1843 12.7865 12.265C12.8384 12.3457 12.9124 12.4097 12.9997 12.4495L14.7497 13.2395L15.5397 14.9995C15.5795 15.0868 15.6435 15.1608 15.7242 15.2127C15.8049 15.2646 15.8988 15.2922 15.9947 15.2922C16.0907 15.2922 16.1846 15.2646 16.2652 15.2127C16.3459 15.1608 16.41 15.0868 16.4497 14.9995L17.2397 13.2495L18.9997 12.4595C19.087 12.4197 19.161 12.3557 19.2129 12.275C19.2648 12.1943 19.2924 12.1004 19.2924 12.0045C19.2924 11.9085 19.2648 11.8146 19.2129 11.734C19.161 11.6533 19.087 11.5892 18.9997 11.5495L17.2497 10.7595L16.4597 8.99948C16.4188 8.91206 16.3537 8.83813 16.2723 8.78633C16.1908 8.73454 16.0963 8.70703 15.9997 8.70703C15.9032 8.70703 15.8086 8.73454 15.7272 8.78633C15.6457 8.83813 15.5807 8.91206 15.5397 8.99948ZM20.7697 13.4995L20.3697 14.3695L19.4997 14.7695C19.2997 14.8595 19.2997 15.1395 19.4997 15.2295L20.3697 15.6295L20.7697 16.4995C20.8597 16.6995 21.1397 16.6995 21.2297 16.4995L21.6297 15.6295L22.4997 15.2295C22.6997 15.1395 22.6997 14.8595 22.4997 14.7695L21.6297 14.3695L21.2297 13.4995C21.2084 13.4567 21.1756 13.4207 21.135 13.3956C21.0943 13.3705 21.0475 13.3571 20.9997 13.3571C20.9519 13.3571 20.9051 13.3705 20.8645 13.3956C20.8239 13.4207 20.791 13.4567 20.7697 13.4995Z" fill="#3D3D3D"/>
</g>
</svg>
