<svg width="24" height="24" viewBox="0 0 24 24" fill="none" xmlns="http://www.w3.org/2000/svg">
<g clip-path="url(#clip0_35229_57933)">
<path d="M22.0575 5.229L14.6835 1.716C13.0603 0.746438 11.04 0.729235 9.40052 1.671L1.94355 5.229C1.91557 5.24302 1.88655 5.25802 1.85955 5.274C0.0899255 6.28584 -0.524418 8.54067 0.487425 10.3103C0.83041 10.9102 1.33493 11.4017 1.94355 11.729L4.00057 12.709V17.609C4.00178 19.8001 5.42749 21.7358 7.51957 22.387C8.97546 22.8082 10.4851 23.0144 12.0006 22.999C13.5159 23.016 15.0255 22.8115 16.4816 22.392C18.5737 21.7409 19.9994 19.8051 20.0006 17.614V12.707L22.0006 11.751V19.999C22.0006 20.5513 22.4483 20.999 23.0006 20.999C23.5529 20.999 24.0006 20.5513 24.0006 19.999V7.99899C24.0072 6.82472 23.0801 5.73994 22.0575 5.229ZM18.0005 17.614C18.0011 18.9246 17.1507 20.0839 15.9005 20.477C14.6328 20.8393 13.319 21.0151 12.0005 20.999C10.6821 21.0151 9.36832 20.8393 8.10054 20.477C6.85033 20.0838 6.00002 18.9246 6.00054 17.614V13.662L9.31755 15.2421C10.136 15.7281 11.0707 15.9834 12.0226 15.981C12.9286 15.9875 13.8193 15.7476 14.5996 15.2871L18.0005 13.662V17.614ZM21.2006 9.924L13.6586 13.524C12.607 14.1363 11.3035 14.119 10.2686 13.479L2.88953 9.969C2.06702 9.52547 1.7598 8.49914 2.20333 7.67667C2.35333 7.39852 2.57824 7.16794 2.85255 7.011L10.3475 3.43102C11.3995 2.82005 12.7022 2.83734 13.7375 3.47602L21.1115 6.98902C21.6538 7.29014 21.9931 7.85878 22.0005 8.47903C22.0015 9.06656 21.699 9.61294 21.2006 9.924Z" fill="#3D3D3D"/>
</g>
<defs>
<clipPath id="clip0_35229_57933">
<rect width="24" height="24" fill="white"/>
</clipPath>
</defs>
</svg>
