<svg width="24" height="24" viewBox="0 0 24 24" fill="none" xmlns="http://www.w3.org/2000/svg">
<g id="map:grocery-or-supermarket">
<path id="Vector" d="M21.1192 22.0802C22.1796 22.0802 23.0392 21.2206 23.0392 20.1602C23.0392 19.0998 22.1796 18.2402 21.1192 18.2402C20.0588 18.2402 19.1992 19.0998 19.1992 20.1602C19.1992 21.2206 20.0588 22.0802 21.1192 22.0802Z" fill="#3D3D3D"/>
<path id="Vector_2" d="M7.1993 22.0802C8.25968 22.0802 9.1193 21.2206 9.1193 20.1602C9.1193 19.0998 8.25968 18.2402 7.1993 18.2402C6.13891 18.2402 5.2793 19.0998 5.2793 20.1602C5.2793 21.2206 6.13891 22.0802 7.1993 22.0802Z" fill="#3D3D3D"/>
<path id="Vector_3" d="M22.56 15.8399H7.57008L7.89024 15.3205C8.02752 15.0978 8.06784 14.8285 8.00208 14.5751L7.6896 13.3722L21.6014 12.6493C22.129 12.6224 22.56 12.1679 22.56 11.6399V5.27988C22.56 4.75188 22.128 4.31988 21.6 4.31988H5.33712L5.14944 3.59844C5.09597 3.39268 4.97571 3.21049 4.80753 3.08044C4.63935 2.95039 4.43276 2.87985 4.22016 2.87988H0.96C0.705392 2.87988 0.461212 2.98103 0.281178 3.16106C0.101143 3.3411 0 3.58527 0 3.83988C0 4.09449 0.101143 4.33867 0.281178 4.51871C0.461212 4.69874 0.705392 4.79988 0.96 4.79988H3.47808L6.04128 14.6615L5.03328 16.2959C4.94362 16.4413 4.89443 16.608 4.8908 16.7788C4.88718 16.9496 4.92924 17.1183 5.01264 17.2674C5.0957 17.4167 5.21715 17.541 5.36442 17.6276C5.51168 17.7142 5.67941 17.7599 5.85024 17.7599H22.56C22.8146 17.7599 23.0588 17.6587 23.2388 17.4787C23.4189 17.2987 23.52 17.0545 23.52 16.7999C23.52 16.5453 23.4189 16.3011 23.2388 16.1211C23.0588 15.941 22.8146 15.8399 22.56 15.8399Z" fill="#3D3D3D"/>
</g>
</svg>
