<svg width="24" height="24" viewBox="0 0 24 24" fill="none" xmlns="http://www.w3.org/2000/svg">
<g clip-path="url(#clip0_35229_57971)">
<path d="M17 18C17 17.2044 16.6839 16.4413 16.1213 15.8787C15.5587 15.3161 14.7956 15 14 15C13.2044 15 12.4413 15.3161 11.8787 15.8787C11.3161 16.4413 11 17.2044 11 18H13C13 17.7348 13.1054 17.4804 13.2929 17.2929C13.4804 17.1054 13.7348 17 14 17C14.2652 17 14.5196 17.1054 14.7071 17.2929C14.8946 17.4804 15 17.7348 15 18C15 18.5 14.15 19.138 13.4 19.7C12.275 20.544 11 21.5 11 23V24H17V22H13.71C13.981 21.764 14.299 21.526 14.6 21.3C15.725 20.456 17 19.5 17 18Z" fill="#3D3D3D"/>
<path d="M22 19H20V15H18V19C18 19.5304 18.2107 20.0391 18.5858 20.4142C18.9609 20.7893 19.4696 21 20 21H22V24H24V15H22V19Z" fill="#3D3D3D"/>
<path d="M13 6H11V11H7V13H13V6Z" fill="#3D3D3D"/>
<path d="M22.0006 2.00132V5.37532C20.9269 3.75153 19.4742 2.41344 17.7678 1.47658C16.0614 0.539723 14.1526 0.0322437 12.2063 -0.00204501C10.2599 -0.0363337 8.33448 0.403599 6.59615 1.27977C4.85782 2.15595 3.35886 3.44203 2.22866 5.027C1.09847 6.61197 0.371005 8.44819 0.109079 10.3771C-0.152848 12.3061 0.0586323 14.2698 0.725261 16.0988C1.39189 17.9277 2.49364 19.5669 3.93538 20.8749C5.37713 22.1829 7.11556 23.1204 9.00058 23.6063V21.5403C7.44588 21.0567 6.03278 20.2008 4.88404 19.047C3.7353 17.8932 2.88566 16.4763 2.40895 14.9195C1.93224 13.3627 1.84286 11.713 2.14859 10.1138C2.45433 8.51461 3.14592 7.01424 4.16328 5.74306C5.18064 4.47188 6.49301 3.46834 7.98636 2.81962C9.47971 2.1709 11.1089 1.89663 12.7323 2.02063C14.3557 2.14463 15.9244 2.66315 17.3019 3.53115C18.6794 4.39915 19.8241 5.59037 20.6366 7.00132H17.0006V9.00132H22.0006C22.531 9.00132 23.0397 8.7906 23.4148 8.41553C23.7899 8.04046 24.0006 7.53175 24.0006 7.00132V2.00132H22.0006Z" fill="#3D3D3D"/>
</g>
<defs>
<clipPath id="clip0_35229_57971">
<rect width="24" height="24" fill="white"/>
</clipPath>
</defs>
</svg>
