<svg width="24" height="24" viewBox="0 0 24 24" fill="none" xmlns="http://www.w3.org/2000/svg">
<g clip-path="url(#clip0_14705_8768)">
<path d="M17.9934 2.28638C16.7729 1.19592 15.278 0.45896 13.6698 0.154808C12.0615 -0.149344 10.4008 -0.00917345 8.8663 0.560236C7.33179 1.12964 5.98162 2.10673 4.96107 3.38635C3.94052 4.66596 3.28825 6.19966 3.07444 7.82238C2.88242 9.24522 3.03599 10.6934 3.52216 12.0443C4.00833 13.3952 4.81278 14.6092 5.86744 15.5834C6.51964 16.1553 7.04592 16.8565 7.41292 17.6425C7.77993 18.4285 7.97965 19.2821 7.99944 20.1494V20.3104C8.0005 21.2887 8.38961 22.2267 9.08139 22.9184C9.77317 23.6102 10.7111 23.9993 11.6894 24.0004H12.3094C13.2878 23.9993 14.2257 23.6102 14.9175 22.9184C15.6093 22.2267 15.9984 21.2887 15.9994 20.3104V19.7614C16.0144 18.9948 16.1948 18.2406 16.5282 17.5502C16.8617 16.8598 17.3403 16.2496 17.9314 15.7614C18.89 14.9218 19.6593 13.8882 20.1882 12.7289C20.7172 11.5696 20.9937 10.3111 20.9996 9.03685C21.0054 7.7626 20.7405 6.50165 20.2222 5.33753C19.704 4.17342 18.9443 3.13272 17.9934 2.28438V2.28638ZM12.3094 22.0004H11.6894C11.2414 21.9998 10.8118 21.8216 10.495 21.5048C10.1782 21.188 9.99997 20.7584 9.99944 20.3104C9.99944 20.3104 9.99244 20.0504 9.99144 20.0004H13.9994V20.3104C13.9989 20.7584 13.8207 21.188 13.5039 21.5048C13.187 21.8216 12.7575 21.9998 12.3094 22.0004ZM16.6094 14.2594C15.4709 15.2469 14.6486 16.5481 14.2454 18.0004H12.9994V10.8164C13.5823 10.6103 14.0873 10.2291 14.4454 9.72508C14.8034 9.22101 14.9969 8.61864 14.9994 8.00038C14.9994 7.73516 14.8941 7.48081 14.7065 7.29327C14.519 7.10573 14.2647 7.00038 13.9994 7.00038C13.7342 7.00038 13.4799 7.10573 13.2923 7.29327C13.1048 7.48081 12.9994 7.73516 12.9994 8.00038C12.9994 8.26559 12.8941 8.51995 12.7065 8.70748C12.519 8.89502 12.2647 9.00038 11.9994 9.00038C11.7342 9.00038 11.4799 8.89502 11.2923 8.70748C11.1048 8.51995 10.9994 8.26559 10.9994 8.00038C10.9994 7.73516 10.8941 7.48081 10.7065 7.29327C10.519 7.10573 10.2647 7.00038 9.99944 7.00038C9.73422 7.00038 9.47987 7.10573 9.29233 7.29327C9.1048 7.48081 8.99944 7.73516 8.99944 8.00038C9.002 8.61864 9.19552 9.22101 9.55353 9.72508C9.91153 10.2291 10.4165 10.6103 10.9994 10.8164V18.0004H9.67744C9.22643 16.5096 8.38056 15.1686 7.22944 14.1194C6.25239 13.209 5.55616 12.0381 5.22291 10.7449C4.88966 9.45165 4.93328 8.09009 5.34865 6.82087C5.76401 5.55165 6.53378 4.42773 7.56711 3.58174C8.60043 2.73575 9.8542 2.20301 11.1804 2.04638C11.4554 2.01569 11.7318 2.00033 12.0084 2.00038C13.726 1.99527 15.3841 2.629 16.6604 3.77838C17.4001 4.43797 17.9912 5.24726 18.3944 6.1526C18.7976 7.05794 19.0038 8.03864 18.9992 9.0297C18.9947 10.0208 18.7795 10.9995 18.3681 11.9011C17.9566 12.8027 17.3581 13.6066 16.6124 14.2594H16.6094Z" fill="#3D3D3D"/>
</g>
<defs>
<clipPath id="clip0_14705_8768">
<rect width="24" height="24" fill="white"/>
</clipPath>
</defs>
</svg>
