<svg width="24" height="24" viewBox="0 0 24 24" fill="none" xmlns="http://www.w3.org/2000/svg">
<g id="streamline:travel-places-beach-island-waves-outdoor-recreation-tree-beach-palm-wave-water" clip-path="url(#clip0_17601_48160)">
<g id="Group">
<path id="Vector" d="M23.1431 23.1113H22.286C21.3767 23.1113 20.5046 22.7501 19.8616 22.1071C19.2186 21.4641 18.8574 20.5921 18.8574 19.6828C18.8574 20.5921 18.4962 21.4641 17.8532 22.1071C17.2102 22.7501 16.3382 23.1113 15.4289 23.1113C14.5195 23.1113 13.6475 22.7501 13.0045 22.1071C12.3615 21.4641 12.0003 20.5921 12.0003 19.6828C12.0003 20.5921 11.6391 21.4641 10.9961 22.1071C10.3531 22.7501 9.48102 23.1113 8.57171 23.1113C7.66239 23.1113 6.79032 22.7501 6.14734 22.1071C5.50436 21.4641 5.14314 20.5921 5.14314 19.6828C5.14314 20.5921 4.78191 21.4641 4.13893 22.1071C3.49595 22.7501 2.62388 23.1113 1.71456 23.1113H0.857422M17.1431 16.2542C16.2602 15.1808 15.1505 14.3162 13.8938 13.7227C12.637 13.1291 11.2644 12.8213 9.87457 12.8213C8.4847 12.8213 7.11208 13.1291 5.85533 13.7227C4.59858 14.3162 3.48889 15.1808 2.60599 16.2542" stroke="#3D3D3D" stroke-width="1.71429" stroke-linecap="round" stroke-linejoin="round"/>
<path id="Vector_2" d="M11.1436 12.9093C11.2464 9.03502 12.4293 5.50359 15.0007 4.23502M9.875 0.977873C10.9863 0.759058 12.1391 0.974892 13.0959 1.58089C14.0528 2.18689 14.7407 3.13686 15.0179 4.23502" stroke="#3D3D3D" stroke-width="1.71429" stroke-linecap="round" stroke-linejoin="round"/>
<path id="Vector_3" d="M21.2743 4.87028C20.4853 4.01832 19.4124 3.48374 18.2571 3.36695C17.1018 3.25016 15.9436 3.55919 15 4.23599" stroke="#3D3D3D" stroke-width="1.71429" stroke-linecap="round" stroke-linejoin="round"/>
<path id="Vector_4" d="M8.70898 6.06902C9.38073 5.07937 10.3764 4.35481 11.5247 4.02002C12.673 3.68523 13.9021 3.76116 15.0004 4.23473C16.1021 4.50417 17.056 5.19126 17.6605 6.15088C18.2651 7.1105 18.473 8.26752 18.2404 9.37759" stroke="#3D3D3D" stroke-width="1.71429" stroke-linecap="round" stroke-linejoin="round"/>
</g>
</g>
<defs>
<clipPath id="clip0_17601_48160">
<rect width="24" height="24" fill="white"/>
</clipPath>
</defs>
</svg>
