<svg width="24" height="24" viewBox="0 0 24 24" fill="none" xmlns="http://www.w3.org/2000/svg">
<g clip-path="url(#clip0_35229_57886)">
<path d="M2.99923 18C2.42924 17.9997 1.8659 17.8776 1.34695 17.6418C0.828001 17.406 0.365432 17.0621 -0.00976562 16.633L1.49923 15.315C1.76749 15.6192 2.12189 15.8346 2.51542 15.9327C2.90895 16.0309 3.32301 16.007 3.70267 15.8644C4.08233 15.7217 4.40965 15.467 4.64122 15.134C4.87278 14.8011 4.99764 14.4056 4.99923 14H6.99923C6.99923 14.5304 7.20995 15.0391 7.58502 15.4142C7.96009 15.7893 8.4688 16 8.99923 16C9.52967 16 10.0384 15.7893 10.4134 15.4142C10.7885 15.0391 10.9992 14.5304 10.9992 14H12.9992C12.9992 14.5304 13.2099 15.0391 13.585 15.4142C13.9601 15.7893 14.4688 16 14.9992 16C15.5297 16 16.0384 15.7893 16.4134 15.4142C16.7885 15.0391 16.9992 14.5304 16.9992 14H18.9992C19.0006 14.4057 19.1253 14.8013 19.3568 15.1344C19.5883 15.4676 19.9156 15.7224 20.2953 15.8652C20.675 16.0079 21.0892 16.0319 21.4828 15.9338C21.8764 15.8357 22.2309 15.6202 22.4992 15.316L24.0052 16.632C23.6315 17.0621 23.1697 17.4068 22.6509 17.6425C22.1322 17.8783 21.5688 17.9996 20.999 17.9983C20.4293 17.997 19.8664 17.873 19.3488 17.6348C18.8312 17.3967 18.3709 17.0499 17.9992 16.618C17.6287 17.0514 17.1686 17.3994 16.6508 17.6379C16.1329 17.8765 15.5694 18.0001 14.9992 18.0001C14.429 18.0001 13.8656 17.8765 13.3477 17.6379C12.8298 17.3994 12.3698 17.0514 11.9992 16.618C11.6287 17.0514 11.1686 17.3994 10.6508 17.6379C10.1329 17.8765 9.56944 18.0001 8.99923 18.0001C8.42903 18.0001 7.8656 17.8765 7.34771 17.6379C6.82982 17.3994 6.36978 17.0514 5.99923 16.618C5.62752 17.05 5.16724 17.397 4.64962 17.6354C4.13199 17.8739 3.56914 17.9982 2.99923 18ZM20.9992 21C20.4688 21 19.9601 20.7893 19.585 20.4142C19.2099 20.0391 18.9992 19.5304 18.9992 19H16.9992C16.9992 19.5304 16.7885 20.0391 16.4134 20.4142C16.0384 20.7893 15.5297 21 14.9992 21C14.4688 21 13.9601 20.7893 13.585 20.4142C13.2099 20.0391 12.9992 19.5304 12.9992 19H10.9992C10.9992 19.5304 10.7885 20.0391 10.4134 20.4142C10.0384 20.7893 9.52967 21 8.99923 21C8.4688 21 7.96009 20.7893 7.58502 20.4142C7.20995 20.0391 6.99923 19.5304 6.99923 19H4.99923C4.99764 19.4056 4.87278 19.8011 4.64122 20.134C4.40965 20.467 4.08233 20.7217 3.70267 20.8644C3.32301 21.007 2.90895 21.0309 2.51542 20.9327C2.12189 20.8346 1.76749 20.6192 1.49923 20.315L-0.00976562 21.633C0.36409 22.0634 0.826245 22.4083 1.34528 22.6442C1.86431 22.8801 2.42805 23.0014 2.99817 23C3.56828 22.9986 4.13141 22.8744 4.64926 22.6359C5.1671 22.3975 5.62753 22.0503 5.99923 21.618C6.36978 22.0514 6.82982 22.3994 7.34771 22.6379C7.8656 22.8765 8.42903 23.0001 8.99923 23.0001C9.56944 23.0001 10.1329 22.8765 10.6508 22.6379C11.1686 22.3994 11.6287 22.0514 11.9992 21.618C12.3698 22.0514 12.8298 22.3994 13.3477 22.6379C13.8656 22.8765 14.429 23.0001 14.9992 23.0001C15.5694 23.0001 16.1329 22.8765 16.6508 22.6379C17.1686 22.3994 17.6287 22.0514 17.9992 21.618C18.3709 22.0504 18.8314 22.3976 19.3493 22.6361C19.8672 22.8746 20.4304 22.9987 21.0005 23C21.5707 23.0014 22.1345 22.8799 22.6535 22.6438C23.1725 22.4077 23.6345 22.0626 24.0082 21.632L22.4992 20.316C22.3122 20.5301 22.0816 20.7018 21.823 20.8197C21.5643 20.9377 21.2835 20.9991 20.9992 21ZM4.74323 12L12.1582 6.809L15.8082 12H18.2532L11.4152 2.274H11.4102C11.1339 1.88108 10.7672 1.56028 10.341 1.33858C9.9148 1.11688 9.44162 1.00076 8.96123 1H1.99923V3H8.96123C9.12142 3.00007 9.27924 3.03862 9.42142 3.11241C9.5636 3.1862 9.68597 3.29306 9.77823 3.424L11.0082 5.172L1.25523 12H4.74323ZM18.4992 8C18.9937 8 19.477 7.85338 19.8882 7.57867C20.2993 7.30397 20.6197 6.91352 20.8089 6.45671C20.9982 5.99989 21.0477 5.49723 20.9512 5.01227C20.8547 4.52732 20.6166 4.08186 20.267 3.73223C19.9174 3.3826 19.4719 3.1445 18.987 3.04804C18.502 2.95157 17.9993 3.00108 17.5425 3.1903C17.0857 3.37952 16.6953 3.69995 16.4206 4.11107C16.1459 4.5222 15.9992 5.00555 15.9992 5.5C15.9992 6.16304 16.2626 6.79893 16.7315 7.26777C17.2003 7.73661 17.8362 8 18.4992 8Z" fill="#3d3d3d"/>
</g>
<defs>
<clipPath id="clip0_35229_57886">
<rect width="24" height="24" fill="white"/>
</clipPath>
</defs>
</svg>
