<svg width="24" height="24" viewBox="0 0 24 24" fill="none" xmlns="http://www.w3.org/2000/svg">
<g id="tabler:massage">
<path id="Vector" d="M4 21.9995L8 19.9995V16.9995H20M11 19.9995H20M8 13.9995L11 11.9995L12 7.99951C15 8.99951 15 11.9995 15 13.9995M3 16.9995C3 17.2647 3.10536 17.5191 3.29289 17.7066C3.48043 17.8942 3.73478 17.9995 4 17.9995C4.26522 17.9995 4.51957 17.8942 4.70711 17.7066C4.89464 17.5191 5 17.2647 5 16.9995C5 16.7343 4.89464 16.4799 4.70711 16.2924C4.51957 16.1049 4.26522 15.9995 4 15.9995C3.73478 15.9995 3.48043 16.1049 3.29289 16.2924C3.10536 16.4799 3 16.7343 3 16.9995ZM8 4.99951C8 5.26473 8.10536 5.51908 8.29289 5.70662C8.48043 5.89415 8.73478 5.99951 9 5.99951C9.26522 5.99951 9.51957 5.89415 9.70711 5.70662C9.89464 5.51908 10 5.26473 10 4.99951C10 4.7343 9.89464 4.47994 9.70711 4.29241C9.51957 4.10487 9.26522 3.99951 9 3.99951C8.73478 3.99951 8.48043 4.10487 8.29289 4.29241C8.10536 4.47994 8 4.7343 8 4.99951Z" stroke="#3D3D3D" stroke-width="2" stroke-linecap="round" stroke-linejoin="round"/>
</g>
</svg>
