<svg width="24" height="24" viewBox="0 0 24 24" fill="none" xmlns="http://www.w3.org/2000/svg">
<g clip-path="url(#clip0_35229_57944)">
<path d="M20.4847 3.51486C18.8069 1.8386 16.6698 0.69739 14.3435 0.235507C12.0172 -0.226376 9.60614 0.0117995 7.41518 0.919926C5.22421 1.82805 3.35167 3.36536 2.03425 5.33752C0.716825 7.30968 0.0136719 9.62815 0.0136719 11.9999C0.0136719 14.3716 0.716825 16.69 2.03425 18.6622C3.35167 20.6344 5.22421 22.1717 7.41518 23.0798C9.60614 23.9879 12.0172 24.2261 14.3435 23.7642C16.6698 23.3023 18.8069 22.1611 20.4847 20.4849C22.7318 18.2328 23.9938 15.1813 23.9938 11.9999C23.9938 8.81846 22.7318 5.76696 20.4847 3.51486ZM21.9337 10.9319C20.7346 11.0773 19.518 10.9481 18.3762 10.554C17.2343 10.1598 16.1971 9.51111 15.343 8.6569C14.4889 7.8027 13.8402 6.76539 13.4462 5.62349C13.0522 4.48159 12.9231 3.26502 13.0687 2.06586C15.3385 2.30449 17.4574 3.3153 19.0711 4.92917C20.6848 6.54305 21.6954 8.66211 21.9337 10.9319ZM2.06575 13.0679C3.26492 12.9224 4.48147 13.0516 5.62333 13.4458C6.76518 13.8399 7.80242 14.4886 8.65653 15.3428C9.51064 16.197 10.1592 17.2343 10.5533 18.3762C10.9473 19.5181 11.0764 20.7347 10.9307 21.9339C8.66102 21.6952 6.54207 20.6844 4.92838 19.0706C3.31468 17.4567 2.30412 15.3376 2.06575 13.0679ZM19.0707 19.0679C17.4278 20.7144 15.2599 21.7331 12.9437 21.9469C13.0873 20.4801 12.9038 18.9998 12.4067 17.6125C11.9096 16.2251 11.1111 14.9652 10.0688 13.9234C9.02638 12.8816 7.76604 12.0839 6.37841 11.5875C4.99079 11.0911 3.51039 10.9086 2.04375 11.0529C2.26126 8.73715 3.28084 6.57016 4.92632 4.92632C6.57181 3.28248 8.73982 2.26506 11.0557 2.04986C10.9213 3.43642 11.0784 4.83577 11.517 6.15798C11.9556 7.48019 12.666 8.696 13.6025 9.72728C14.5391 10.7586 15.681 11.5825 16.955 12.1461C18.2289 12.7097 19.6067 13.0005 20.9997 12.9999C21.3167 12.9999 21.6347 12.9839 21.9527 12.9539C21.7355 15.2668 20.716 17.4308 19.0707 19.0709V19.0679Z" fill="#3D3D3D"/>
</g>
<defs>
<clipPath id="clip0_35229_57944">
<rect width="24" height="24" fill="white"/>
</clipPath>
</defs>
</svg>
