<svg width="24" height="24" viewBox="0 0 24 24" fill="none" xmlns="http://www.w3.org/2000/svg">
<g id="u:dumbbell">
<path id="Vector" d="M17.4802 6.55019L14.6402 3.71019C14.5472 3.61646 14.4366 3.54206 14.3148 3.49129C14.1929 3.44053 14.0622 3.41439 13.9302 3.41439C13.7982 3.41439 13.6675 3.44053 13.5456 3.49129C13.4237 3.54206 13.3131 3.61646 13.2202 3.71019C13.0339 3.89755 12.9294 4.151 12.9294 4.41519C12.9294 4.67937 13.0339 4.93282 13.2202 5.12019L15.3402 7.24019L7.24019 15.3402L5.12019 13.2202C4.93282 13.0339 4.67937 12.9294 4.41519 12.9294C4.151 12.9294 3.89755 13.0339 3.71019 13.2202C3.61646 13.3131 3.54206 13.4237 3.49129 13.5456C3.44053 13.6675 3.41439 13.7982 3.41439 13.9302C3.41439 14.0622 3.44053 14.1929 3.49129 14.3148C3.54206 14.4366 3.61646 14.5472 3.71019 14.6402L6.52019 17.4502L9.33019 20.2602C9.4228 20.3547 9.53325 20.4298 9.65512 20.4813C9.777 20.5328 9.90788 20.5596 10.0402 20.5602C10.2388 20.5613 10.4333 20.5033 10.5988 20.3935C10.7643 20.2837 10.8934 20.1271 10.9696 19.9437C11.0457 19.7602 11.0655 19.5583 11.0265 19.3635C10.9874 19.1688 10.8912 18.9901 10.7502 18.8502L8.66019 16.7602L16.7602 8.66019L18.8802 10.7802C18.9734 10.8728 19.084 10.9461 19.2056 10.9959C19.3271 11.0458 19.4573 11.0712 19.5887 11.0707C19.7201 11.0703 19.8501 11.0439 19.9713 10.9932C20.0926 10.9425 20.2026 10.8684 20.2952 10.7752C20.3878 10.6819 20.4611 10.5714 20.5109 10.4498C20.5608 10.3282 20.5862 10.198 20.5857 10.0666C20.5853 9.93525 20.5589 9.80524 20.5082 9.68402C20.4575 9.56281 20.3834 9.45277 20.2902 9.36019L17.4802 6.55019ZM3.71019 17.4602C3.52188 17.2719 3.26649 17.1661 3.00019 17.1661C2.73388 17.1661 2.47849 17.2719 2.29019 17.4602C2.10188 17.6485 1.99609 17.9039 1.99609 18.1702C1.99609 18.4365 2.10188 18.6919 2.29019 18.8802L5.12019 21.7102C5.21363 21.8029 5.32444 21.8762 5.44628 21.926C5.56812 21.9757 5.69858 22.0009 5.83019 22.0002C5.96179 22.0009 6.09225 21.9757 6.21409 21.926C6.33593 21.8762 6.44675 21.8029 6.54019 21.7102C6.63391 21.6172 6.70831 21.5066 6.75908 21.3848C6.80985 21.2629 6.83598 21.1322 6.83598 21.0002C6.83598 20.8682 6.80985 20.7375 6.75908 20.6156C6.70831 20.4937 6.63391 20.3831 6.54019 20.2902L3.71019 17.4602ZM21.7102 5.12019L18.8802 2.29019C18.7869 2.19695 18.6763 2.12299 18.5544 2.07253C18.4326 2.02207 18.302 1.99609 18.1702 1.99609C18.0383 1.99609 17.9078 2.02207 17.7859 2.07253C17.6641 2.12299 17.5534 2.19695 17.4602 2.29019C17.3669 2.38342 17.293 2.49411 17.2425 2.61594C17.1921 2.73776 17.1661 2.86833 17.1661 3.00019C17.1661 3.13204 17.1921 3.26261 17.2425 3.38443C17.293 3.50626 17.3669 3.61695 17.4602 3.71019L20.2902 6.54019C20.3831 6.63391 20.4937 6.70831 20.6156 6.75908C20.7375 6.80985 20.8682 6.83598 21.0002 6.83598C21.1322 6.83598 21.2629 6.80985 21.3848 6.75908C21.5066 6.70831 21.6172 6.63391 21.7102 6.54019C21.8039 6.44722 21.8783 6.33662 21.9291 6.21476C21.9798 6.0929 22.006 5.9622 22.006 5.83019C22.006 5.69817 21.9798 5.56747 21.9291 5.44561C21.8783 5.32375 21.8039 5.21315 21.7102 5.12019Z" fill="#3D3D3D"/>
</g>
</svg>
