<svg width="24" height="24" viewBox="0 0 24 24" fill="none" xmlns="http://www.w3.org/2000/svg">
<g id="u:swimmer">
<path id="Vector" d="M17.0005 9.2793C17.3961 9.2793 17.7827 9.162 18.1116 8.94224C18.4405 8.72247 18.6969 8.41012 18.8483 8.04466C18.9996 7.67921 19.0392 7.27708 18.9621 6.88912C18.8849 6.50115 18.6944 6.14479 18.4147 5.86508C18.135 5.58538 17.7786 5.3949 17.3907 5.31773C17.0027 5.24056 16.6006 5.28016 16.2351 5.43154C15.8697 5.58291 15.5573 5.83926 15.3376 6.16816C15.1178 6.49706 15.0005 6.88374 15.0005 7.2793C15.0005 7.80973 15.2112 8.31844 15.5863 8.69351C15.9614 9.06858 16.4701 9.2793 17.0005 9.2793ZM2.7105 13.9193C2.90866 13.9826 3.09968 14.0664 3.2805 14.1693C3.90243 14.5331 4.60998 14.7249 5.3305 14.7249C6.05103 14.7249 6.75857 14.5331 7.3805 14.1693C7.77158 13.9503 8.21229 13.8353 8.6605 13.8353C9.10871 13.8353 9.54942 13.9503 9.9405 14.1693L10.1505 14.2693C10.7573 14.5647 11.4271 14.7073 12.1016 14.6846C12.7761 14.662 13.4349 14.4748 14.0205 14.1393C14.4116 13.9203 14.8523 13.8053 15.3005 13.8053C15.7487 13.8053 16.1894 13.9203 16.5805 14.1393C17.2142 14.5015 17.9306 14.6943 18.6605 14.6993C19.3648 14.692 20.0548 14.4988 20.6605 14.1393C20.8413 14.0364 21.0323 13.9526 21.2305 13.8893C21.3783 13.8791 21.522 13.8362 21.6512 13.7637C21.7804 13.6912 21.8919 13.5909 21.9776 13.4701C22.0633 13.3492 22.121 13.2108 22.1467 13.0649C22.1724 12.919 22.1653 12.7692 22.126 12.6264C22.0867 12.4835 22.0161 12.3512 21.9194 12.239C21.8228 12.1267 21.7023 12.0374 21.5669 11.9774C21.4314 11.9174 21.2843 11.8882 21.1362 11.892C20.9881 11.8958 20.8427 11.9324 20.7105 11.9993C20.3616 12.1076 20.0261 12.2552 19.7105 12.4393C19.3913 12.6236 19.0291 12.7206 18.6605 12.7206C18.2919 12.7206 17.9297 12.6236 17.6105 12.4393C16.9178 12.0485 16.1359 11.8432 15.3405 11.8432C14.5451 11.8432 13.7632 12.0485 13.0705 12.4393C12.9764 12.4853 12.8796 12.5254 12.7805 12.5593L14.3405 10.9993C14.3762 10.953 14.4065 10.9026 14.4305 10.8493C14.4757 10.8001 14.5159 10.7465 14.5505 10.6893C14.5552 10.626 14.5552 10.5625 14.5505 10.4993C14.5562 10.4361 14.5562 10.3725 14.5505 10.3093C14.5553 10.2494 14.5553 10.1892 14.5505 10.1293C14.5562 10.0661 14.5562 10.0025 14.5505 9.9393C14.5209 9.88051 14.4875 9.82372 14.4505 9.7693C14.4245 9.7117 14.3909 9.65787 14.3505 9.6093L11.2805 6.2793C11.1997 6.19124 11.1052 6.11694 11.0005 6.0593C10.9308 6.05007 10.8602 6.05007 10.7905 6.0593C10.7342 6.05015 10.6768 6.05015 10.6205 6.0593C10.4874 6.00573 10.3433 5.98515 10.2005 5.9993L6.6605 7.3193C6.41126 7.40956 6.20806 7.59509 6.09555 7.8351C5.98305 8.07512 5.97044 8.34999 6.0605 8.5993C6.15076 8.84853 6.33629 9.05174 6.57631 9.16424C6.81632 9.27675 7.09119 9.28936 7.3405 9.1993L10.2705 8.1293L12.2705 10.2493L10.3705 12.1493C9.7339 11.9018 9.05036 11.7986 8.36907 11.847C7.68778 11.8954 7.0257 12.0943 6.4305 12.4293C6.11126 12.6136 5.74913 12.7106 5.3805 12.7106C5.01187 12.7106 4.64974 12.6136 4.3305 12.4293C4.01492 12.2452 3.67943 12.0976 3.3305 11.9893C3.20255 11.9416 3.06618 11.9205 2.92979 11.9275C2.79341 11.9345 2.6599 11.9693 2.53749 12.0299C2.41509 12.0905 2.30639 12.1755 2.21809 12.2796C2.12979 12.3838 2.06376 12.505 2.02408 12.6356C1.9844 12.7663 1.97191 12.9037 1.98737 13.0394C2.00283 13.1751 2.04592 13.3062 2.11398 13.4246C2.18204 13.543 2.27363 13.6462 2.3831 13.7278C2.49258 13.8095 2.61761 13.8678 2.7505 13.8993L2.7105 13.9193ZM20.7105 17.0093C20.3616 17.1176 20.0261 17.2652 19.7105 17.4493C19.3913 17.6336 19.0291 17.7306 18.6605 17.7306C18.2919 17.7306 17.9297 17.6336 17.6105 17.4493C16.9178 17.0585 16.1359 16.8532 15.3405 16.8532C14.5451 16.8532 13.7632 17.0585 13.0705 17.4493C12.7486 17.6364 12.3828 17.7349 12.0105 17.7349C11.6382 17.7349 11.2724 17.6364 10.9505 17.4493C10.2578 17.0585 9.47587 16.8532 8.6805 16.8532C7.88513 16.8532 7.10324 17.0585 6.4105 17.4493C6.09126 17.6336 5.72913 17.7306 5.3605 17.7306C4.99187 17.7306 4.62974 17.6336 4.3105 17.4493C3.99492 17.2652 3.65943 17.1176 3.3105 17.0093C3.18255 16.9616 3.04618 16.9405 2.90979 16.9475C2.77341 16.9545 2.6399 16.9893 2.51749 17.0499C2.39509 17.1105 2.28639 17.1955 2.19809 17.2996C2.10979 17.4038 2.04376 17.525 2.00408 17.6556C1.9644 17.7863 1.95191 17.9237 1.96737 18.0594C1.98283 18.1951 2.02592 18.3262 2.09398 18.4446C2.16204 18.563 2.25363 18.6662 2.3631 18.7478C2.47258 18.8295 2.59761 18.8878 2.7305 18.9193C2.92866 18.9826 3.11968 19.0664 3.3005 19.1693C3.92243 19.5331 4.62998 19.7249 5.3505 19.7249C6.07103 19.7249 6.77857 19.5331 7.4005 19.1693C7.79158 18.9503 8.23229 18.8353 8.6805 18.8353C9.12871 18.8353 9.56942 18.9503 9.9605 19.1693C10.5878 19.528 11.2979 19.7167 12.0205 19.7167C12.7431 19.7167 13.4532 19.528 14.0805 19.1693C14.4716 18.9503 14.9123 18.8353 15.3605 18.8353C15.8087 18.8353 16.2494 18.9503 16.6405 19.1693C17.2742 19.5315 17.9906 19.7243 18.7205 19.7293C19.4248 19.722 20.1148 19.5288 20.7205 19.1693C20.9013 19.0664 21.0923 18.9826 21.2905 18.9193C21.4166 18.8812 21.5339 18.8187 21.6358 18.7352C21.7377 18.6518 21.8222 18.5491 21.8844 18.4331C21.9466 18.317 21.9853 18.1898 21.9984 18.0587C22.0115 17.9277 21.9986 17.7954 21.9605 17.6693C21.9224 17.5432 21.8599 17.4259 21.7764 17.324C21.693 17.2221 21.5903 17.1376 21.4743 17.0754C21.3582 17.0132 21.231 16.9745 21.1 16.9614C20.9689 16.9483 20.8366 16.9612 20.7105 16.9993V17.0093Z" fill="#3D3D3D"/>
</g>
</svg>
