<svg width="24" height="26" viewBox="0 0 24 26" fill="none" xmlns="http://www.w3.org/2000/svg">
<g id="Valet parking">
<path id="Vector 81" d="M0.5625 4.79688H7.52344C8 4.88281 9.0375 5.34063 9.375 6.48438C9.7125 7.62812 10.3906 9.63281 10.6875 10.4922M10.6875 10.4922L12.1172 9.32031M10.6875 10.4922C11.6406 11.3281 13.5234 13.2953 13.4297 14.4766C13.3359 15.6578 13.2969 18.3906 13.2891 19.6094C13.1094 20.1172 12.4969 21.1469 11.4844 21.2031C11.2574 21.2157 10.7467 21.2239 10.0547 21.2286M0.609375 21.2031C1.95767 21.213 3.91835 21.2245 5.8125 21.2304M5.8125 21.2304V23.6641C5.89062 24.0234 6.22969 24.7562 6.96094 24.8125C7.69219 24.8688 8.57812 24.8359 8.92969 24.8125C9.35938 24.6641 9.9375 24.2031 10.0547 23.6641C10.0547 23.0078 10.0547 21.767 10.0547 21.2286M5.8125 21.2304C7.4095 21.2353 8.9592 21.2362 10.0547 21.2286M0.609375 17.9688H2.48438M5.15625 17.6641C5.23437 17.0469 5.70469 15.85 6.96094 16C7.27969 16 8.20312 16 8.625 16C9.28125 16.1641 10.1016 17.8516 8.92969 18.5781C7.60938 18.8281 5.00625 18.9953 5.15625 17.6641Z" stroke="#3D3D3D" stroke-linecap="round" stroke-linejoin="round"/>
<path id="Vector 83" d="M21.4688 22.7031H16.8516M21.4688 22.7031L22.2891 24.1094C22.5516 24.4281 22.0078 24.6485 21.7031 24.7188C21.0307 24.7151 20.0077 24.7107 19.0547 24.7091M21.4688 22.7031V15.1094M16.8516 22.7031L15.9375 24.1094C15.9531 24.3203 16.1297 24.7375 16.7109 24.7188C17.0173 24.7089 17.9926 24.7072 19.0547 24.7091M16.8516 22.7031L16.6641 8.9922M21.4688 8.9922V15.1094M19.0547 24.7091V13.8203M19.0547 13.8203H23.3203M19.0547 13.8203H14.8828M23.3203 13.8203C23.2344 12.7578 23.1797 9.76564 23.1797 9.76564C23.1797 9.76564 22.5234 6.76564 21.2109 6.74524H19.0547M23.3203 13.8203V15.0287C22.875 15.7891 21.5625 15.6719 21.4688 15.1094M14.8828 13.8203V9.78906C15.2266 8.80469 16.0828 6.80314 17.1328 6.76564C17.6204 6.74822 18.3359 6.74361 19.0547 6.74524M14.8828 13.8203V15.0625C15.4453 15.6719 16.3013 15.7084 16.7466 15.0287M19.0547 6.74524V10.3516M17.5312 2.92188V1.72656C17.6094 1.57031 17.8313 1.25781 18.0938 1.25781C18.3562 1.25781 19.5313 1.25781 20.0859 1.25781C20.4375 1.25781 20.6719 1.72656 20.6719 1.72656V2.92188M17.5312 2.92188H20.6719M17.5312 2.92188V4.65625C18.5156 6.01562 19.9688 5.89844 20.6719 4.65625V2.92188" stroke="#3D3D3D" stroke-linecap="round" stroke-linejoin="round"/>
<path id="Vector 82" d="M0.539062 7.11719H6.9375L8.60156 11.7812L0.539062 12.4375" stroke="#3D3D3D" stroke-linecap="round" stroke-linejoin="round"/>
</g>
</svg>
