<svg width="24" height="24" viewBox="0 0 24 24" fill="none" xmlns="http://www.w3.org/2000/svg">
<path id="Vector" d="M9.44328 6.13725C8.00039 6.79459 7.07741 7.80127 7.07741 8.92969C7.07741 9.8616 7.70692 10.7105 8.73889 11.3481M9.44328 6.13725C10.5361 6.93756 12.2509 7.45312 14.179 7.45312C15.732 7.45312 17.1467 7.1186 18.2094 6.5702M9.44328 6.13725C8.66521 5.56745 8.20242 4.85331 8.20242 4.07812C8.20242 2.21416 10.8782 0.703125 14.179 0.703125C17.4797 0.703125 20.1555 2.21416 20.1555 4.07812C20.1555 5.06506 19.4054 5.95306 18.2094 6.5702M18.2094 6.5702C19.1859 7.20077 19.7776 8.02621 19.7776 8.92969C19.7776 9.25513 19.7008 9.57044 19.557 9.87017M8.73889 11.3481C9.90003 12.0656 11.5707 12.5156 13.4275 12.5156C16.3583 12.5156 18.8253 11.3944 19.557 9.87017M8.73889 11.3481C8.23807 11.8972 7.89698 12.5156 7.75751 13.1761M19.557 9.87017C21.4523 10.7592 22.6868 12.2112 22.6868 13.8516C22.6868 14.6578 22.3886 15.4185 21.8602 16.0893M21.8602 16.0893C22.681 16.8131 23.1555 17.6689 23.1555 18.5859C23.1555 21.1877 19.336 23.2969 14.6243 23.2969C12.0385 23.2969 9.72145 22.6616 8.15693 21.6584M21.8602 16.0893C19.4055 20.0625 11.3759 18.5311 10.3821 18.0234M8.48367 15.6562C10.0071 15.1406 11.8352 16.6875 11.179 17.3906L10.3821 18.0234M8.48367 15.6562C8.34378 14.5413 8.08812 13.6777 7.75751 13.1761M8.48367 15.6562L8.31446 15.8163L6.74929 17.2969M7.75751 13.1761C7.26808 12.4336 6.6144 12.4845 5.92897 13.6875C3.81403 10.2852 2.96179 15.4512 5.00883 16.9552C0.25051 13.7541 -0.124014 17.6288 1.89773 18.0703C-0.295986 18.3243 1.46899 22.173 4.97351 18.9018C3.25433 20.6923 3.63204 25.2655 5.99929 22.1016C7.27248 24.073 8.14584 23.1016 8.15693 21.6584M8.15693 21.6584C8.16381 20.7636 7.83926 19.6875 7.07309 19.0189C11.065 21.7909 11.8574 18.2528 10.2649 18.0938L10.3821 18.0234" stroke="#3D3D3D"/>
</svg>
