<svg width="24" height="24" viewBox="0 0 24 24" fill="none" xmlns="http://www.w3.org/2000/svg">
<g id="zondicons:music-artist" clip-path="url(#clip0_17601_48223)">
<path id="Vector" d="M18.8993 9.59896L14.4113 5.09896C14.3434 4.12334 14.5759 3.15032 15.0775 2.31077C15.5791 1.47121 16.3258 0.805402 17.2171 0.402877C18.1084 0.000350952 19.1016 -0.119581 20.0631 0.0592112C21.0246 0.238003 21.9083 0.706944 22.5953 1.40296C23.2891 2.09175 23.756 2.97594 23.9336 3.93729C24.1112 4.89863 23.991 5.89128 23.5891 6.78246C23.1872 7.67365 22.5228 8.42087 21.6847 8.9242C20.8466 9.42752 19.8749 9.66294 18.8993 9.59896ZM2.21934 18.359L13.2593 7.33096L16.6553 10.727L5.61534 21.767L2.23134 18.359H2.21934ZM0.539344 21.755L3.07134 19.211L4.77534 20.915L2.23134 23.459L0.527344 21.755H0.539344ZM11.9993 17.999L14.3993 15.599V23.999H11.9993V17.999Z" fill="#3D3D3D"/>
</g>
<defs>
<clipPath id="clip0_17601_48223">
<rect width="24" height="24" fill="white"/>
</clipPath>
</defs>
</svg>
